SplineFontDB: 3.0
FontName: SquareAntiqua-BookOblique
FullName: Square Antiqua Book Oblique
FamilyName: Square Antiqua
Weight: Book
Copyright: Copyright (c) 2020-2024 by Wojciech Kalinowski "wmk69" with Reserved Font Name "SquareAntiqua-BookOblique".\nThis Font Software is licensed under the SIL Open Font License, Version 1.1.
Version: 2.1.1; 2021-05-15
ItalicAngle: -12
UnderlinePosition: -80
UnderlineWidth: 200
Ascent: 1638
Descent: 410
InvalidEm: 0
LayerCount: 2
Layer: 0 1 "Warstwa t+AUIA-a" 1
Layer: 1 1 "Plan pierwszy" 0
XUID: [1021 783 23647091 10727182]
StyleMap: 0x0001
FSType: 0
OS2Version: 3
OS2_WeightWidthSlopeOnly: 0
OS2_UseTypoMetrics: 1
CreationTime: 1260698820
ModificationTime: 1621086416
PfmFamily: 17
TTFWeight: 400
TTFWidth: 5
LineGap: 300
VLineGap: 0
Panose: 2 14 5 2 5 5 3 13 2 4
OS2TypoAscent: 1990
OS2TypoAOffset: 0
OS2TypoDescent: -490
OS2TypoDOffset: 0
OS2TypoLinegap: 300
OS2WinAscent: 1990
OS2WinAOffset: 0
OS2WinDescent: 490
OS2WinDOffset: 0
HheadAscent: 1990
HheadAOffset: 0
HheadDescent: -490
HheadDOffset: 0
OS2SubXSize: 1434
OS2SubYSize: 1331
OS2SubXOff: 0
OS2SubYOff: 287
OS2SupXSize: 1434
OS2SupYSize: 1331
OS2SupXOff: 0
OS2SupYOff: 977
OS2StrikeYSize: 102
OS2StrikeYPos: 512
OS2CapHeight: 1510
OS2XHeight: 1100
OS2Vendor: '    '
OS2CodePages: 20000093.00000000
OS2UnicodeRanges: 8000002f.4000204b.00000000.00000000
Lookup: 258 0 0 "'kern' Horizontal Kerning lookup 0" { "'kern' Horizontal Kerning lookup 0-1 subtable" [307,0,6] } ['kern' ('DFLT' <'dflt' > 'grek' <'dflt' > 'latn' <'dflt' > ) ]
MarkAttachClasses: 1
DEI: 91125
KernClass2: 56 48 "'kern' Horizontal Kerning lookup 0-1 subtable"
 147 H I M N Igrave Iacute Icircumflex Idieresis Ntilde Hcircumflex Hbar Itilde Imacron Ibreve Iogonek Idotaccent Nacute Ncommaaccent Ncaron Eng uni1E40
 73 A Agrave Aacute Acircumflex Atilde Adieresis Aring Amacron Abreve Aogonek

StartChar: .notdef
Encoding: 65536 -1 0
Width: 894
Flags: W
HStem: 0 118<293 651> 1393 118<564 922>
VStem: 150 594<0 594> 471 594<917 1511>
DStem2: 150 0 267.918 0 0.207912 0.978148<145.153 1448.64> 625.918 0 744 0 0.207912 0.978148<120.636 1424.12>
LayerCount: 2
Fore
SplineSet
150 0 m 1,0,-1
 471 1511 l 1,1,-1
 1065 1511 l 1,2,-1
 744 0 l 1,3,-1
 150 0 l 1,0,-1
564 1393 m 1,4,-1
 293 118 l 1,5,-1
 651 118 l 1,6,-1
 922 1393 l 1,7,-1
 564 1393 l 1,4,-1
EndSplineSet
Validated: 1
EndChar

StartChar: exclam
Encoding: 33 33 4
Width: 742
GlyphClass: 2
Flags: W
HStem: -20 255<301.619 486.381> 1491 20G<568.788 812>
VStem: 263 262<17.4883 197.532>
LayerCount: 2
Fore
SplineSet
367 -20 m 0,0,1
 263 -19 263 -19 263 66 c 0,2,3
 263 235 263 235 421 235 c 0,4,5
 525 235 525 235 525 148 c 0,6,7
 525 -20 525 -20 367 -20 c 0,0,1
572 1511 m 1,8,-1
 812 1511 l 1,9,-1
 506 353 l 1,10,-1
 386 353 l 1,11,-1
 572 1511 l 1,8,-1
EndSplineSet
Validated: 1
EndChar

StartChar: quotedbl
Encoding: 34 34 5
Width: 554
GlyphClass: 2
Flags: W
HStem: 1120 410<375 448 639 712>
VStem: 318 511
LayerCount: 2
Fore
SplineSet
639 1530 m 1,0,-1
 829 1530 l 1,1,-1
 712 1120 l 1,2,-1
 582 1120 l 1,3,-1
 639 1530 l 1,0,-1
375 1530 m 1,4,-1
 565 1530 l 1,5,-1
 448 1120 l 1,6,-1
 318 1120 l 1,7,-1
 375 1530 l 1,4,-1
EndSplineSet
Validated: 1
EndChar

StartChar: numbersign
Encoding: 35 35 6
Width: 1483
GlyphClass: 2
Flags: W
HStem: 516 150<292 600 782 954 1136 1443> 870 150<367 675 857 1029 1211 1518>
VStem: 527 150<176 326> 779 150<1210 1360> 881 150<176 326> 1133 150<1210 1360>
DStem2: 527 176 677 176 0.207912 0.978148<31.1868 347.748 532.31 709.605 894.167 1210.52> 881 176 1031 176 0.207912 0.978148<31.1868 347.748 532.31 709.605 894.167 1210.52>
LayerCount: 2
Fore
SplineSet
527 176 m 1,0,-1
 600 516 l 1,1,-1
 260 516 l 1,2,-1
 292 666 l 1,3,-1
 632 666 l 1,4,-1
 675 870 l 1,5,-1
 335 870 l 1,6,-1
 367 1020 l 1,7,-1
 707 1020 l 1,8,-1
 779 1360 l 1,9,-1
 929 1360 l 1,10,-1
 857 1020 l 1,11,-1
 1061 1020 l 1,12,-1
 1133 1360 l 1,13,-1
 1283 1360 l 1,14,-1
 1211 1020 l 1,15,-1
 1550 1020 l 1,16,-1
 1518 870 l 1,17,-1
 1179 870 l 1,18,-1
 1136 666 l 1,19,-1
 1475 666 l 1,20,-1
 1443 516 l 1,21,-1
 1104 516 l 1,22,-1
 1031 176 l 1,23,-1
 881 176 l 1,24,-1
 954 516 l 1,25,-1
 750 516 l 1,26,-1
 677 176 l 1,27,-1
 527 176 l 1,0,-1
782 666 m 1,28,-1
 986 666 l 1,29,-1
 1029 870 l 1,30,-1
 825 870 l 1,31,-1
 782 666 l 1,28,-1
EndSplineSet
Validated: 1
EndChar

StartChar: dollar
Encoding: 36 36 7
Width: 1368
GlyphClass: 2
Flags: W
HStem: -20 125<520.1 640> 746 153<692.815 802 934 1047.79> 1403 127<800.74 942 1069 1145.28>
VStem: 232 205<177.932 365> 423 207<955.73 1199.67> 604 100<-186 -86> 1004 100<1595 1695> 1123 206<402.625 679.438> 1213 203<1145 1340.31>
DStem2: 604 -186 704 -186 0.207912 0.978148<20.7912 171.814 322.443 952.8 1126.97 1625.53 1774.2 1923.06>
LayerCount: 2
Fore
SplineSet
571 -20 m 0,0,1
 232 -20 232 -20 232 279 c 0,2,3
 232 319 232 319 238 365 c 1,4,-1
 449 420 l 1,5,6
 437 363 437 363 437 317 c 0,7,8
 437 118 437 118 666 105 c 1,9,-1
 802 746 l 1,10,11
 423 760 423 760 423 1009 c 0,12,13
 423 1067 423 1067 444 1138 c 0,14,15
 497 1321 497 1321 670 1426 c 0,16,17
 791 1500 791 1500 967 1521 c 1,18,-1
 1004 1695 l 1,19,-1
 1104 1695 l 1,20,-1
 1069 1529 l 1,21,22
 1093 1530 1093 1530 1118 1530 c 0,23,24
 1416 1530 1416 1530 1416 1229 c 0,25,26
 1416 1190 1416 1190 1411 1145 c 1,27,-1
 1200 1090 l 1,28,29
 1213 1153 1213 1153 1213 1204 c 0,30,31
 1213 1380 1213 1380 1042 1403 c 1,32,-1
 934 896 l 1,33,34
 1329 886 1329 886 1329 616 c 0,35,36
 1329 565 1329 565 1315 504 c 0,37,38
 1253 241 1253 241 1054 105 c 0,39,40
 926 18 926 18 742 -9 c 1,41,-1
 704 -186 l 1,42,-1
 604 -186 l 1,43,-1
 640 -18 l 1,44,45
 606 -20 606 -20 571 -20 c 0,0,1
835 899 m 1,46,-1
 942 1404 l 1,47,48
 708 1381 708 1381 640 1127 c 0,49,50
 630 1090 630 1090 630 1059 c 0,51,52
 630 919 630 919 835 899 c 1,46,-1
902 743 m 1,53,-1
 767 109 l 1,54,55
 1042 148 1042 148 1116 507 c 0,56,57
 1123 541 1123 541 1123 570 c 0,58,59
 1123 727 1123 727 902 743 c 1,53,-1
EndSplineSet
Validated: 1
EndChar

StartChar: percent
Encoding: 37 37 8
Width: 1648
GlyphClass: 2
Flags: W
HStem: -20 110<1047.85 1299.98> 0 21G<372 581.523> 499 110<1150.4 1404.09> 901 110<564.848 816.982> 1420 110<667.399 921.093> 1490 20G<1377.5 1589>
VStem: 372 196<0 196> 389 157<1032.26 1271.69> 872 157<111.263 350.685> 940 157<1159.82 1398.74> 1391 198<1312 1510> 1423 157<238.824 477.737>
DStem2: 372 0 568 0 0.560132 0.828403<109.786 1821.66>
LayerCount: 2
Fore
SplineSet
1173 90 m 0,0,1
 1360 90 1360 90 1419 364 c 0,2,3
 1423 383 1423 383 1423 400 c 0,4,5
 1423 498 1423 498 1278 499 c 0,6,7
 1092 499 1092 499 1033 225 c 0,8,9
 1029 206 1029 206 1029 189 c 0,10,11
 1029 91 1029 91 1173 90 c 0,0,1
1096 -20 m 0,12,13
 872 -20 872 -20 872 165 c 0,14,15
 872 218 872 218 890 287 c 0,16,17
 937 464 937 464 1082 549 c 0,18,19
 1184 609 1184 609 1356 609 c 0,20,21
 1580 609 1580 609 1580 424 c 0,22,23
 1580 371 1580 371 1562 302 c 0,24,25
 1515 128 1515 128 1373 43 c 0,26,27
 1267 -20 1267 -20 1096 -20 c 0,12,13
690 1011 m 0,28,29
 877 1011 877 1011 936 1285 c 0,30,31
 940 1304 940 1304 940 1321 c 0,32,33
 940 1419 940 1419 795 1420 c 0,34,35
 609 1420 609 1420 550 1146 c 0,36,37
 546 1127 546 1127 546 1110 c 0,38,39
 546 1012 546 1012 690 1011 c 0,28,29
873 1530 m 0,40,41
 1097 1530 1097 1530 1097 1345 c 0,42,43
 1097 1292 1097 1292 1079 1223 c 0,44,45
 1032 1049 1032 1049 890 964 c 0,46,47
 784 901 784 901 613 901 c 0,48,49
 389 901 389 901 389 1086 c 0,50,51
 389 1139 389 1139 407 1208 c 0,52,53
 454 1385 454 1385 599 1470 c 0,54,55
 701 1530 701 1530 873 1530 c 0,40,41
372 0 m 1,56,-1
 1391 1510 l 1,57,-1
 1589 1510 l 1,58,-1
 568 0 l 1,59,-1
 372 0 l 1,56,-1
EndSplineSet
Validated: 1
EndChar

StartChar: ampersand
Encoding: 38 38 9
Width: 1560
GlyphClass: 2
Flags: W
HStem: -20 124<518.839 897.971> 0 21G<1231.22 1460> 1394 136<844.554 1271.1>
VStem: 232 206<183.981 524.251> 481 196<944.685 1199.67> 1199 191<1231 1347.5> 1391 191<770.999 906>
DStem2: 971 898 827 763 0.478235 -0.878232<31.4218 526.658 743.313 918.254>
LayerCount: 2
Fore
SplineSet
1460 0 m 1,0,-1
 1242 0 l 1,1,-1
 1159 154 l 1,2,3
 924 -20 924 -20 581 -20 c 0,4,5
 232 -20 232 -20 232 282 c 0,6,7
 232 408 232 408 267 503 c 0,8,9
 306 609 306 609 398 687 c 0,10,11
 486 762 486 762 599 805 c 1,12,13
 481 886 481 886 481 1012 c 0,14,15
 481 1038 481 1038 486 1066 c 0,16,17
 569 1530 569 1530 1149 1530 c 0,18,19
 1390 1530 1390 1530 1390 1231 c 1,20,-1
 1192 1178 l 1,21,22
 1199 1211 1199 1211 1199 1240 c 0,23,24
 1199 1394 1199 1394 986 1394 c 0,25,26
 743 1394 743 1394 684 1114 c 16,27,28
 677 1081 677 1081 677 1053 c 0,29,30
 677 898 677 898 893 898 c 2,31,-1
 971 898 l 1,32,-1
 1222 435 l 1,33,34
 1333 639 1333 639 1391 906 c 1,35,-1
 1582 942 l 1,36,37
 1495 532 1495 532 1298 297 c 1,38,-1
 1460 0 l 1,0,-1
827 763 m 1,39,40
 518 745 518 745 449 420 c 16,41,42
 438 366 438 366 438 322 c 0,43,44
 438 104 438 104 709 104 c 0,45,46
 955 104 955 104 1102 255 c 1,47,-1
 827 763 l 1,39,40
EndSplineSet
Validated: 1
EndChar

StartChar: quotesingle
Encoding: 39 39 10
Width: 290
GlyphClass: 2
Flags: W
HStem: 1120 410<375 448>
VStem: 318 247
LayerCount: 2
Fore
SplineSet
375 1530 m 1,0,-1
 565 1530 l 1,1,-1
 448 1120 l 1,2,-1
 318 1120 l 1,3,-1
 375 1530 l 1,0,-1
EndSplineSet
Validated: 1
EndChar

StartChar: parenleft
Encoding: 40 40 11
Width: 846
GlyphClass: 2
Flags: W
VStem: 382 186<107.062 764.964>
LayerCount: 2
Fore
SplineSet
992 1797 m 1,0,-1
 1128 1797 l 1,1,2
 949 1584 949 1584 826 1352 c 0,3,4
 676 1071 676 1071 612 765 c 0,5,6
 568 554 568 554 568 355 c 0,7,8
 568 265 568 265 577 178 c 0,9,10
 601 -54 601 -54 689 -267 c 1,11,-1
 553 -267 l 1,12,13
 473 -123 473 -123 414 160 c 0,14,15
 382 316 382 316 382 468 c 0,16,17
 382 618 382 618 413 765 c 0,18,19
 475 1055 475 1055 671 1370 c 0,20,21
 846 1649 846 1649 992 1797 c 1,0,-1
EndSplineSet
Validated: 1
EndChar

StartChar: parenright
Encoding: 41 41 12
Width: 846
GlyphClass: 2
Flags: W
VStem: 603 186<765.035 1430.33>
LayerCount: 2
Fore
SplineSet
618 1797 m 1,0,1
 702 1649 702 1649 757 1370 c 0,2,3
 789 1210 789 1210 789 1056 c 0,4,5
 789 907 789 907 759 765 c 0,6,7
 696 469 696 469 500 160 c 0,8,9
 321 -123 321 -123 179 -267 c 1,10,-1
 43 -267 l 1,11,12
 222 -54 222 -54 345 178 c 0,13,14
 494 459 494 459 559 765 c 0,15,16
 603 974 603 974 603 1172 c 0,17,18
 603 1263 603 1263 594 1352 c 0,19,20
 570 1584 570 1584 482 1797 c 1,21,-1
 618 1797 l 1,0,1
EndSplineSet
Validated: 1
EndChar

StartChar: asterisk
Encoding: 42 42 13
Width: 1139
GlyphClass: 2
Flags: W
HStem: 1491 20G<811.797 966>
VStem: 639 150<678 828> 816 150<1361 1511>
DStem2: 355 964 402 834 0.8961 0.443853<0 325.175 615.827 937.435> 517 1373 417 1257 0.855927 -0.517096<0 264.029 498.553 770.017> 639 678 789 678 0.207912 0.978148<31.1868 318.904 600.756 851.597>
LayerCount: 2
Fore
SplineSet
639 678 m 1,0,-1
 705 990 l 1,1,-1
 402 834 l 1,2,-1
 355 964 l 1,3,-1
 669 1114 l 1,4,-1
 417 1257 l 1,5,-1
 517 1373 l 1,6,-1
 758 1235 l 1,7,-1
 816 1511 l 1,8,-1
 966 1511 l 1,9,-1
 908 1235 l 1,10,-1
 1206 1373 l 1,11,-1
 1256 1257 l 1,12,-1
 943 1114 l 1,13,-1
 1194 964 l 1,14,-1
 1091 834 l 1,15,-1
 855 990 l 1,16,-1
 789 678 l 1,17,-1
 639 678 l 1,0,-1
EndSplineSet
Validated: 1
EndChar

StartChar: plus
Encoding: 43 43 14
Width: 1183
GlyphClass: 2
Flags: W
HStem: 693 150<329 663 845 1180>
VStem: 585 150<326 476> 768 150<1035 1185>
DStem2: 585 326 735 326 0.207912 0.978148<31.1868 375.197 559.759 878.277>
LayerCount: 2
Fore
SplineSet
585 326 m 1,0,-1
 663 693 l 1,1,-1
 297 693 l 1,2,-1
 329 843 l 1,3,-1
 695 843 l 1,4,-1
 768 1185 l 1,5,-1
 918 1185 l 1,6,-1
 845 843 l 1,7,-1
 1212 843 l 1,8,-1
 1180 693 l 1,9,-1
 813 693 l 1,10,-1
 735 326 l 1,11,-1
 585 326 l 1,0,-1
EndSplineSet
Validated: 1
EndChar

StartChar: comma
Encoding: 44 44 15
Width: 381
GlyphClass: 2
Flags: W
HStem: -266 556
VStem: 178 165<-64.4355 123.56>
LayerCount: 2
Fore
SplineSet
246 290 m 17,0,1
 343 209 343 209 343 92 c 0,2,3
 343 59 343 59 336 24 c 0,4,5
 302 -138 302 -138 56 -266 c 9,6,-1
 15 -165 l 17,7,8
 156 -90 156 -90 175 -1 c 0,9,10
 178 13 178 13 178 27 c 0,11,12
 178 101 178 101 91 156 c 1,13,-1
 246 290 l 17,0,1
EndSplineSet
Validated: 1
EndChar

StartChar: hyphen
Encoding: 45 45 16
Width: 1183
GlyphClass: 2
Flags: W
HStem: 693 150<329 1180>
LayerCount: 2
Fore
SplineSet
1180 693 m 1,0,-1
 297 693 l 1,1,-1
 329 843 l 1,2,-1
 1212 843 l 1,3,-1
 1180 693 l 1,0,-1
EndSplineSet
Validated: 1
EndChar

StartChar: period
Encoding: 46 46 17
Width: 345
GlyphClass: 2
Flags: W
HStem: -20 255<102.619 287.381>
VStem: 64 262<17.4883 197.532>
LayerCount: 2
Fore
SplineSet
168 -20 m 0,0,1
 64 -19 64 -19 64 66 c 0,2,3
 64 235 64 235 222 235 c 0,4,5
 326 235 326 235 326 148 c 0,6,7
 326 -20 326 -20 168 -20 c 0,0,1
EndSplineSet
Validated: 1
EndChar

StartChar: slash
Encoding: 47 47 18
Width: 1023
GlyphClass: 2
Flags: W
DStem2: -18 -132 118 -203 0.5601 0.828425<17.3554 2216.34>
LayerCount: 2
Fore
SplineSet
1222 1705 m 1,0,-1
 1360 1634 l 1,1,-1
 118 -203 l 1,2,-1
 -18 -132 l 1,3,-1
 1222 1705 l 1,0,-1
EndSplineSet
Validated: 1
EndChar

StartChar: zero
Encoding: 48 48 19
Width: 1388
GlyphClass: 2
Flags: W
HStem: -20 124<515.432 885.882> 1406 124<823.118 1193.57>
VStem: 236 204<172.471 536.906> 1269 204<973.094 1337.53>
DStem2: 155.949 -20 366.166 -20 0.207912 0.978148<366.228 1250.81> 1013.55 -20 1223.55 -20 0.207912 0.978148<377.485 1262.07>
LayerCount: 2
Fore
SplineSet
709 104 m 0,0,1
 1040 104 1040 104 1143 589 c 2,2,-1
 1261 1145 l 2,3,4
 1269 1184 1269 1184 1269 1217 c 0,5,6
 1269 1406 1269 1406 1000 1406 c 0,7,8
 669 1406 669 1406 566 921 c 2,9,-1
 448 365 l 2,10,11
 440 326 440 326 440 293 c 0,12,13
 440 104 440 104 709 104 c 0,0,1
581 -20 m 0,14,15
 236 -20 236 -20 236 286 c 0,16,17
 236 357 236 357 255 446 c 2,18,-1
 356 921 l 2,19,20
 485 1530 485 1530 1128 1530 c 0,21,22
 1473 1530 1473 1530 1473 1224 c 0,23,24
 1473 1153 1473 1153 1454 1064 c 10,25,-1
 1353 589 l 2,26,27
 1224 -20 1224 -20 581 -20 c 0,14,15
EndSplineSet
Validated: 1
EndChar

StartChar: one
Encoding: 49 49 20
Width: 755
GlyphClass: 2
Flags: W
HStem: 0 21G<305 509.248> 1378 132<398.676 576>
VStem: 305 200<0 200> 576 212<1134.38 1402.84>
DStem2: 305 0 505 0 0.207912 0.978148<41.5823 1360.37>
LayerCount: 2
Fore
SplineSet
305 0 m 1,0,-1
 562 1210 l 2,1,2
 576 1276 576 1276 576 1335 c 0,3,4
 576 1357 576 1357 574 1378 c 1,5,6
 485 1378 485 1378 349 1313 c 1,7,-1
 380 1460 l 1,8,9
 529 1510 529 1510 691 1510 c 2,10,-1
 776 1510 l 1,11,12
 788 1470 788 1470 788 1414 c 0,13,14
 788 1330 788 1330 762 1210 c 2,15,-1
 505 0 l 1,16,-1
 305 0 l 1,0,-1
EndSplineSet
Validated: 1
EndChar

StartChar: two
Encoding: 50 50 21
Width: 1187
GlyphClass: 2
Flags: W
HStem: 0 127<320 1028.27> 654 128<581.923 868.57> 1403 127<582.465 1053.2>
VStem: 1116 209<1056.88 1345.53>
LayerCount: 2
Fore
SplineSet
80 0 m 1,0,1
 246 782 246 782 672 782 c 0,2,3
 987 782 987 782 1096 1118 c 0,4,5
 1116 1176 1116 1176 1116 1240 c 0,6,7
 1116 1403 1116 1403 861 1403 c 2,8,-1
 830 1403 l 2,9,10
 678 1403 678 1403 515 1333 c 1,11,-1
 547 1480 l 1,12,13
 710 1530 710 1530 857 1530 c 2,14,-1
 970 1530 l 2,15,16
 1325 1530 1325 1530 1325 1261 c 0,17,18
 1325 1196 1325 1196 1304 1114 c 8,19,20
 1255 922 1255 922 1131 804 c 0,21,22
 974 654 974 654 703 654 c 0,23,24
 460 654 460 654 320 127 c 1,25,-1
 778 127 l 2,26,27
 934 127 934 127 1093 197 c 9,28,-1
 1062 50 l 17,29,30
 930 0 930 0 751 0 c 2,31,-1
 80 0 l 1,0,1
EndSplineSet
Validated: 1
EndChar

StartChar: three
Encoding: 51 51 22
Width: 1296
GlyphClass: 2
Flags: W
HStem: -20 124<445.189 819.646> 765 127<543 832.899> 1403 127<639.829 1079.6>
VStem: 151 216<182.081 365> 1056 219<397.491 702.445> 1118 203<1130.6 1368.29>
LayerCount: 2
Fore
SplineSet
509 -20 m 0,0,1
 151 -20 151 -20 151 278 c 0,2,3
 151 319 151 319 158 365 c 1,4,-1
 379 420 l 1,5,6
 367 365 367 365 367 319 c 0,7,8
 367 104 367 104 629 104 c 0,9,10
 961 104 961 104 1045 505 c 24,11,12
 1056 559 1056 559 1056 589 c 0,13,14
 1056 765 1056 765 784 765 c 2,15,-1
 516 765 l 1,16,-1
 543 892 l 1,17,18
 1036 892 1036 892 1114 1241 c 24,19,20
 1118 1259 1118 1259 1118 1283 c 0,21,22
 1118 1403 1118 1403 917 1403 c 2,23,-1
 886 1403 l 2,24,25
 734 1403 734 1403 571 1333 c 1,26,-1
 603 1480 l 1,27,28
 773 1530 773 1530 913 1530 c 2,29,-1
 969 1530 l 2,30,31
 1321 1530 1321 1530 1321 1274 c 0,32,33
 1321 1234 1321 1234 1309 1186 c 0,34,35
 1281 1077 1281 1077 1189 993 c 0,36,37
 1098 909 1098 909 946 860 c 1,38,39
 1275 836 1275 836 1275 595 c 0,40,41
 1275 536 1275 536 1255 464 c 0,42,43
 1197 256 1197 256 1029 127 c 0,44,45
 837 -20 837 -20 509 -20 c 0,0,1
EndSplineSet
Validated: 1
EndChar

StartChar: four
Encoding: 52 52 23
Width: 1281
GlyphClass: 2
Flags: W
HStem: 0 21G<901 1105.25> 443 127<501 995> 1490 20G<496.745 701>
VStem: 501 200<1310 1510> 901 200<0 200> 1158 200<1010 1210>
DStem2: 179.837 0 379.843 0 0.207912 0.978148<624.318 1543.78> 901 0 1101 0 0.207912 0.978148<41.5823 452.863 582.701 1236.99>
LayerCount: 2
Fore
SplineSet
1101 0 m 25,0,-1
 901 0 l 25,1,-1
 995 443 l 1,2,-1
 274 443 l 1,3,-1
 501 1510 l 25,4,-1
 701 1510 l 25,5,-1
 501 570 l 1,6,-1
 1022 570 l 1,7,-1
 1158 1210 l 1,8,-1
 1358 1210 l 1,9,-1
 1101 0 l 25,0,-1
EndSplineSet
Validated: 1
EndChar

StartChar: five
Encoding: 53 53 24
Width: 1268
GlyphClass: 2
Flags: W
HStem: -20 124<446.903 820.594> 765 127<636 980.271> 1382 128<772 1334>
VStem: 151 216<181.738 365> 1057 212<400.468 700.124>
DStem2: 413 765 636 892 0.266509 0.963832<181.838 690.361>
LayerCount: 2
Fore
SplineSet
501 -20 m 0,0,1
 151 -20 151 -20 151 277 c 0,2,3
 151 318 151 318 158 365 c 1,4,-1
 379 420 l 1,5,6
 367 365 367 365 367 319 c 0,7,8
 367 104 367 104 629 104 c 0,9,10
 963 104 963 104 1047 504 c 24,11,12
 1057 551 1057 551 1057 588 c 0,13,14
 1057 765 1057 765 784 765 c 2,15,16
 413 765 l 1,17,-1
 619 1510 l 1,18,-1
 1361 1510 l 1,19,-1
 1334 1382 l 1,20,-1
 772 1382 l 1,21,-1
 636 892 l 1,22,-1
 905 892 l 2,23,24
 1269 892 1269 892 1269 619 c 0,25,26
 1269 554 1269 554 1248 473 c 0,27,28
 1187 236 1187 236 991 105 c 0,29,30
 804 -20 804 -20 501 -20 c 0,0,1
EndSplineSet
Validated: 1
EndChar

StartChar: six
Encoding: 54 54 25
Width: 1388
GlyphClass: 2
Flags: W
HStem: -20 124<519.197 900.846> 765 124<654.956 1063.07> 1406 124<820.59 1182.02>
VStem: 236 202<181.431 528.021> 1134 215<398.413 700.27> 1262 215<1145 1327.92>
DStem2: 155.949 -20 355.475 -20 0.207912 0.978148<394.516 708.413 873.774 1258.25>
LayerCount: 2
Fore
SplineSet
581 -20 m 0,0,1
 236 -20 236 -20 236 286 c 0,2,3
 236 357 236 357 255 446 c 2,4,-1
 356 921 l 2,5,6
 485 1530 485 1530 1128 1530 c 0,7,8
 1477 1530 1477 1530 1477 1232 c 0,9,10
 1477 1191 1477 1191 1471 1145 c 1,11,-1
 1250 1090 l 1,12,13
 1262 1145 1262 1145 1262 1191 c 0,14,15
 1262 1406 1262 1406 1000 1406 c 0,16,17
 659 1406 659 1406 556 921 c 2,18,-1
 529 794 l 1,19,20
 699 889 699 889 963 889 c 0,21,22
 1349 889 1349 889 1349 614 c 0,23,24
 1349 556 1349 556 1332 486 c 0,25,26
 1267 221 1267 221 1044 88 c 0,27,28
 863 -20 863 -20 581 -20 c 0,0,1
1127 517 m 16,29,30
 1134 552 1134 552 1134 581 c 0,31,32
 1134 765 1134 765 864 765 c 0,33,34
 522 765 522 765 449 420 c 16,35,36
 438 366 438 366 438 322 c 0,37,38
 438 104 438 104 709 104 c 0,39,40
 1042 104 1042 104 1127 517 c 16,29,30
EndSplineSet
Validated: 1
EndChar

StartChar: seven
Encoding: 55 55 26
Width: 1029
GlyphClass: 2
Flags: W
HStem: 0 21G<128 385.463> 1383 127<348.676 1077>
VStem: 128 244<0 244>
LayerCount: 2
Fore
SplineSet
128 0 m 1,0,-1
 1077 1383 l 1,1,-1
 614 1383 l 2,2,3
 412 1383 412 1383 299 1313 c 9,4,-1
 330 1460 l 17,5,6
 479 1510 479 1510 641 1510 c 2,7,-1
 1330 1510 l 1,8,-1
 1303 1383 l 1,9,-1
 372 0 l 1,10,-1
 128 0 l 1,0,-1
EndSplineSet
Validated: 1
EndChar

StartChar: eight
Encoding: 56 56 27
Width: 1385
GlyphClass: 2
Flags: W
HStem: -20 124<525.678 890.183> 765 133<730.827 1042.07> 1394 136<843.53 1140.49>
VStem: 227 219<179.922 490.616> 483 203<942.23 1202.78> 1136 211<401.163 702.444> 1184 201<1095.84 1350.47>
LayerCount: 2
Fore
SplineSet
863 765 m 0,0,1
 533 765 533 765 458 420 c 16,2,3
 446 365 446 365 446 319 c 0,4,5
 446 104 446 104 708 104 c 0,6,7
 1036 104 1036 104 1129 527 c 16,8,9
 1136 559 1136 559 1136 589 c 0,10,11
 1136 765 1136 765 863 765 c 0,0,1
985 1394 m 0,12,13
 752 1394 752 1394 693 1114 c 16,14,15
 686 1079 686 1079 686 1050 c 0,16,17
 686 898 686 898 888 898 c 0,18,19
 1119 898 1119 898 1177 1175 c 16,20,21
 1184 1210 1184 1210 1184 1240 c 0,22,23
 1184 1394 1184 1394 985 1394 c 0,12,13
580 -20 m 0,24,25
 227 -20 227 -20 227 261 c 0,26,27
 227 332 227 332 250 422 c 0,28,29
 322 705 322 705 598 805 c 1,30,31
 483 870 483 870 483 1008 c 0,32,33
 483 1057 483 1057 498 1116 c 0,34,35
 555 1344 555 1344 761 1450 c 0,36,37
 915 1530 915 1530 1128 1530 c 0,38,39
 1265 1530 1265 1530 1335 1438 c 0,40,41
 1385 1371 1385 1371 1385 1288 c 0,42,43
 1385 1222 1385 1222 1368 1165 c 0,44,45
 1305 955 1305 955 1108 869 c 1,46,47
 1347 832 1347 832 1347 616 c 0,48,49
 1347 549 1347 549 1324 464 c 0,50,51
 1257 218 1257 218 1049 92 c 0,52,53
 866 -20 866 -20 580 -20 c 0,24,25
EndSplineSet
Validated: 1
EndChar

StartChar: nine
Encoding: 57 57 28
Width: 1388
GlyphClass: 2
Flags: W
HStem: -20 124<526.978 888.41> 621 124<645.928 1054.04> 1406 124<808.154 1189.8>
VStem: 232 215<182.081 365> 360 215<809.73 1111.59> 1271 202<981.979 1328.57>
DStem2: 1023.55 -20 1223.55 -20 0.207912 0.978148<367.968 752.444 917.805 1231.7>
LayerCount: 2
Fore
SplineSet
581 -20 m 0,0,1
 232 -20 232 -20 232 278 c 0,2,3
 232 319 232 319 238 365 c 1,4,-1
 459 420 l 1,5,6
 447 365 447 365 447 319 c 0,7,8
 447 104 447 104 709 104 c 0,9,10
 1050 104 1050 104 1153 589 c 2,11,-1
 1180 716 l 1,12,13
 1010 621 1010 621 746 621 c 0,14,15
 360 621 360 621 360 896 c 0,16,17
 360 954 360 954 377 1024 c 0,18,19
 442 1289 442 1289 665 1422 c 0,20,21
 846 1530 846 1530 1128 1530 c 0,22,23
 1473 1530 1473 1530 1473 1224 c 0,24,25
 1473 1153 1473 1153 1454 1064 c 2,26,-1
 1353 589 l 2,27,28
 1224 -20 1224 -20 581 -20 c 0,0,1
582 993 m 16,29,30
 575 958 575 958 575 929 c 0,31,32
 575 745 575 745 845 745 c 0,33,34
 1187 745 1187 745 1260 1090 c 16,35,36
 1271 1144 1271 1144 1271 1188 c 0,37,38
 1271 1406 1271 1406 1000 1406 c 0,39,40
 667 1406 667 1406 582 993 c 16,29,30
EndSplineSet
Validated: 1
EndChar

StartChar: colon
Encoding: 58 58 29
Width: 346
GlyphClass: 2
Flags: W
HStem: -20 255<103.619 288.381> 636 255<242.619 427.381>
VStem: 65 262<17.4883 197.532> 204 262<673.488 853.532>
LayerCount: 2
Fore
SplineSet
362 891 m 0,0,1
 466 891 466 891 466 804 c 0,2,3
 466 636 466 636 308 636 c 0,4,5
 204 637 204 637 204 722 c 0,6,7
 204 891 204 891 362 891 c 0,0,1
169 -20 m 0,8,9
 65 -19 65 -19 65 66 c 0,10,11
 65 235 65 235 223 235 c 0,12,13
 327 235 327 235 327 148 c 0,14,15
 327 -20 327 -20 169 -20 c 0,8,9
EndSplineSet
Validated: 1
EndChar

StartChar: semicolon
Encoding: 59 59 30
Width: 406
GlyphClass: 2
Flags: W
HStem: 636 255<278.619 463.381>
VStem: 178 165<-64.4355 123.56> 240 262<673.488 853.532>
LayerCount: 2
Fore
SplineSet
398 891 m 0,0,1
 502 891 502 891 502 804 c 0,2,3
 502 636 502 636 344 636 c 0,4,5
 240 637 240 637 240 722 c 0,6,7
 240 891 240 891 398 891 c 0,0,1
246 290 m 17,8,9
 343 209 343 209 343 92 c 0,10,11
 343 59 343 59 336 24 c 0,12,13
 302 -138 302 -138 56 -266 c 9,14,-1
 15 -165 l 17,15,16
 156 -90 156 -90 175 -1 c 0,17,18
 178 13 178 13 178 27 c 0,19,20
 178 101 178 101 91 156 c 1,21,-1
 246 290 l 17,8,9
EndSplineSet
Validated: 1
EndChar

StartChar: less
Encoding: 60 60 31
Width: 1206
GlyphClass: 2
Flags: W
DStem2: 477 778 294 676 0.816024 -0.578017<0 739.454> 334 865 477 778 0.878658 0.477452<84.1097 974.94>
LayerCount: 2
Fore
SplineSet
294 676 m 1,0,-1
 334 865 l 1,1,-1
 1302 1391 l 1,2,-1
 1261 1201 l 1,3,-1
 477 778 l 1,4,-1
 1080 350 l 1,5,-1
 1038 149 l 1,6,-1
 294 676 l 1,0,-1
EndSplineSet
Validated: 1
EndChar

StartChar: equal
Encoding: 61 61 32
Width: 1183
GlyphClass: 2
Flags: W
HStem: 531 150<295 1146> 859 150<364 1216>
LayerCount: 2
Fore
SplineSet
1216 859 m 1,0,-1
 333 859 l 1,1,-1
 364 1009 l 1,2,-1
 1247 1009 l 1,3,-1
 1216 859 l 1,0,-1
1146 531 m 1,4,-1
 263 531 l 1,5,-1
 295 681 l 1,6,-1
 1178 681 l 1,7,-1
 1146 531 l 1,4,-1
EndSplineSet
Validated: 1
EndChar

StartChar: greater
Encoding: 62 62 33
Width: 1206
GlyphClass: 2
Flags: W
DStem2: 272 340 232 150 0.878658 0.477452<0 887.239> 496 1392 453 1191 0.816024 -0.578017<81.0924 819.255>
LayerCount: 2
Fore
SplineSet
1240 865 m 1,0,-1
 1200 676 l 1,1,-1
 232 150 l 1,2,-1
 272 340 l 1,3,-1
 1053 761 l 1,4,-1
 453 1191 l 1,5,-1
 496 1392 l 1,6,-1
 1240 865 l 1,0,-1
EndSplineSet
Validated: 1
EndChar

StartChar: question
Encoding: 63 63 34
Width: 1389
GlyphClass: 2
Flags: W
HStem: -20 255<570.619 755.381> 574 128<886.363 1068.96> 1406 124<819.569 1203.01>
VStem: 356 221<976 1063.73> 532 262<17.1338 197.866> 603 214<345 431.486> 1279 203<1006.42 1334.28>
LayerCount: 2
Fore
SplineSet
1128 1530 m 0,0,1
 1482 1530 1482 1530 1482 1244 c 0,2,3
 1482 1168 1482 1168 1457 1072 c 0,4,5
 1397 841 1397 841 1281 714 c 0,6,7
 1154 574 1154 574 960 574 c 0,8,9
 866 574 866 574 817 345 c 9,10,-1
 603 276 l 17,11,12
 694 702 694 702 929 702 c 0,13,14
 1177 702 1177 702 1271 1142 c 16,15,16
 1279 1181 1279 1181 1279 1214 c 0,17,18
 1279 1406 1279 1406 1000 1406 c 0,19,20
 669 1406 669 1406 577 976 c 9,21,-1
 356 921 l 17,22,23
 485 1530 485 1530 1128 1530 c 0,0,1
636 -20 m 0,24,25
 532 -20 532 -20 532 66 c 24,26,27
 532 235 532 235 690 235 c 0,28,29
 794 235 794 235 794 149 c 24,30,31
 794 -20 794 -20 636 -20 c 0,24,25
EndSplineSet
Validated: 1
EndChar

StartChar: at
Encoding: 64 64 35
Width: 1459
GlyphClass: 2
Flags: W
HStem: -430 107<398.7 814.097> -20 130<615 906.192> 0 21G<1126.5 1323> 576 101<941.274 1191> 993 127<795.491 1202.19>
VStem: 168 171<-262.295 106.969> 525 183<115.253 347.076> 914 185<-235.254 -157> 1123 179<1.65991 352.182> 1253 179<679.922 946.746>
DStem2: 89.0114 -430 268.441 -430 0.207912 0.978148<338.82 1244.97> 992.109 -430 1167.11 -430 0.207912 0.978148<631.58 740.175 1122.71 1285.67>
LayerCount: 2
Fore
SplineSet
1323 0 m 1,0,-1
 1130 0 l 1,1,2
 1123 44 1123 44 1123 94 c 0,3,4
 1123 184 1123 184 1146 294 c 1,5,6
 1000 -20 1000 -20 705 -20 c 0,7,8
 525 -20 525 -20 525 165 c 0,9,10
 525 220 525 220 548 292 c 0,11,12
 620 526 620 526 897 637 c 0,13,14
 996 677 996 677 1228 677 c 1,15,-1
 1245 758 l 2,16,17
 1253 796 1253 796 1253 830 c 0,18,19
 1253 993 1253 993 1049 993 c 0,20,21
 571 993 571 993 469 513 c 2,22,-1
 349 -51 l 2,23,24
 339 -98 339 -98 339 -138 c 0,25,26
 339 -323 339 -323 562 -323 c 0,27,28
 878 -323 878 -323 914 -157 c 1,29,-1
 1099 -135 l 1,30,31
 1036 -430 1036 -430 505 -430 c 0,32,33
 168 -430 168 -430 168 -128 c 0,34,35
 168 -58 168 -58 187 31 c 2,36,-1
 290 513 l 2,37,38
 420 1120 420 1120 1128 1120 c 0,39,40
 1432 1120 1432 1120 1432 867 c 0,41,42
 1432 810 1432 810 1418 745 c 2,43,-1
 1321 294 l 2,44,45
 1302 206 1302 206 1302 148 c 0,46,47
 1302 62 1302 62 1323 0 c 1,0,-1
1191 576 m 1,48,49
 783 576 783 576 712 240 c 16,50,51
 708 221 708 221 708 204 c 0,52,53
 708 110 708 110 778 110 c 0,54,55
 935 110 935 110 1073 336 c 0,56,57
 1146 455 1146 455 1191 576 c 1,48,49
EndSplineSet
Validated: 1
EndChar

StartChar: B
Encoding: 66 66 36
Width: 1336
GlyphClass: 2
Flags: W
HStem: 0 127<427 871.076> 765 127<591 887.25> 1383 127<680 1123.6>
VStem: 475 205<1115.47 1381.37> 1105 214<409.712 699.997> 1162 203<1127.58 1344.62>
DStem2: 200 0 400.005 0 0.207912 0.978148<171.421 823.963 953.801 1378.83>
LayerCount: 2
Fore
SplineSet
427 127 m 1,0,-1
 682 127 l 2,1,2
 1013 127 1013 127 1098 525 c 16,3,4
 1105 558 1105 558 1105 587 c 0,5,6
 1105 765 1105 765 832 765 c 2,7,-1
 564 765 l 1,8,-1
 427 127 l 1,0,-1
200 0 m 1,9,-1
 457 1210 l 2,10,11
 475 1295 475 1295 475 1353 c 0,12,13
 475 1428 475 1428 451 1510 c 1,14,-1
 1013 1510 l 2,15,16
 1365 1510 1365 1510 1365 1294 c 0,17,18
 1365 1254 1365 1254 1353 1206 c 0,19,20
 1325 1097 1325 1097 1233 1013 c 0,21,22
 1142 929 1142 929 990 880 c 1,23,24
 1319 856 1319 856 1319 615 c 0,25,26
 1319 556 1319 556 1299 484 c 0,27,28
 1243 277 1243 277 1073 147 c 0,29,30
 881 0 881 0 553 0 c 2,31,-1
 200 0 l 1,9,-1
591 892 m 1,32,33
 1055 892 1055 892 1151 1189 c 0,34,35
 1162 1223 1162 1223 1162 1260 c 0,36,37
 1162 1383 1162 1383 961 1383 c 2,38,-1
 680 1383 l 1,39,40
 680 1321 680 1321 657 1210 c 2,41,-1
 591 892 l 1,32,33
EndSplineSet
Validated: 1
EndChar

StartChar: C
Encoding: 67 67 37
Width: 1385
GlyphClass: 2
Flags: W
HStem: -20 124<515.432 883.375> 1406 124<823.118 1181.72>
VStem: 236 204<172.471 536.906> 1262 211<1144 1328.77>
DStem2: 155.949 -20 366.166 -20 0.207912 0.978148<366.228 1250.81>
LayerCount: 2
Fore
SplineSet
581 -20 m 0,0,1
 236 -20 236 -20 236 286 c 0,2,3
 236 357 236 357 255 446 c 2,4,-1
 356 921 l 2,5,6
 485 1530 485 1530 1128 1530 c 0,7,8
 1473 1530 1473 1530 1473 1223 c 0,9,10
 1473 1186 1473 1186 1468 1144 c 1,11,-1
 1250 1090 l 1,12,13
 1262 1145 1262 1145 1262 1191 c 0,14,15
 1262 1406 1262 1406 1000 1406 c 0,16,17
 669 1406 669 1406 566 921 c 2,18,-1
 448 365 l 2,19,20
 440 326 440 326 440 293 c 0,21,22
 440 104 440 104 709 104 c 0,23,24
 997 104 997 104 1113 472 c 1,25,-1
 1331 497 l 1,26,27
 1174 -20 1174 -20 581 -20 c 0,0,1
EndSplineSet
Validated: 1
EndChar

StartChar: D
Encoding: 68 68 38
Width: 1388
GlyphClass: 2
Flags: W
HStem: 0 127<427 890.477> 1383 127<680 1185.66>
VStem: 476 204<1115.47 1382.24> 1265 204<955.664 1316.2>
DStem2: 200 0 400.005 0 0.207912 0.978148<171.421 1380.11> 1017.55 0 1227.55 0 0.207912 0.978148<379.02 1219.35>
LayerCount: 2
Fore
SplineSet
680 1383 m 1,0,1
 678 1309 678 1309 657 1210 c 2,2,-1
 427 127 l 1,3,-1
 715 127 l 2,4,5
 1045 127 1045 127 1147 609 c 2,6,-1
 1257 1125 l 2,7,8
 1265 1163 1265 1163 1265 1195 c 0,9,10
 1265 1383 1265 1383 994 1383 c 2,11,-1
 680 1383 l 1,0,1
200 0 m 1,12,-1
 457 1210 l 2,13,14
 476 1299 476 1299 476 1354 c 0,15,16
 476 1437 476 1437 451 1510 c 1,17,-1
 1124 1510 l 2,18,19
 1469 1510 1469 1510 1469 1204 c 0,20,21
 1469 1133 1469 1133 1450 1044 c 10,22,-1
 1357 609 l 2,23,24
 1227 0 1227 0 586 0 c 2,25,-1
 200 0 l 1,12,-1
EndSplineSet
Validated: 1
EndChar

StartChar: E
Encoding: 69 69 39
Width: 1111
GlyphClass: 2
Flags: W
HStem: 0 127<427 1016.84> 698 127<575 1030> 1383 127<680 1176>
VStem: 476 204<1115.47 1381.38>
DStem2: 200 0 400.005 0 0.207912 0.978148<171.421 755.1 884.939 1380.11>
LayerCount: 2
Fore
SplineSet
200 0 m 1,0,-1
 457 1210 l 2,1,2
 476 1299 476 1299 476 1354 c 0,3,4
 476 1434 476 1434 451 1510 c 1,5,-1
 1203 1510 l 17,6,-1
 1176 1383 l 9,7,-1
 680 1383 l 1,8,9
 680 1318 680 1318 657 1210 c 2,10,-1
 575 825 l 1,11,-1
 1057 825 l 25,12,-1
 1030 698 l 25,13,-1
 548 698 l 1,14,-1
 427 127 l 1,15,-1
 758 127 l 2,16,17
 940 127 940 127 1073 197 c 1,18,-1
 1042 50 l 1,19,20
 910 0 910 0 731 0 c 2,21,-1
 200 0 l 1,0,-1
EndSplineSet
Validated: 1
EndChar

StartChar: F
Encoding: 70 70 40
Width: 1002
GlyphClass: 2
Flags: W
HStem: 0 21G<200 404.241> 698 127<575 1030> 1383 127<680 1176>
VStem: 200 200<0 200> 476 204<1115.47 1382.59>
DStem2: 200 0 400 0 0.207912 0.978148<41.5823 755.1 884.939 1379.16>
LayerCount: 2
Fore
SplineSet
200 0 m 17,0,-1
 457 1210 l 2,1,2
 476 1299 476 1299 476 1353 c 0,3,4
 476 1432 476 1432 451 1510 c 1,5,-1
 1203 1510 l 17,6,-1
 1176 1383 l 9,7,-1
 680 1383 l 1,8,9
 680 1318 680 1318 657 1210 c 2,10,-1
 575 825 l 1,11,-1
 1057 825 l 25,12,-1
 1030 698 l 25,13,-1
 548 698 l 1,14,-1
 400 0 l 9,15,-1
 200 0 l 17,0,-1
EndSplineSet
Validated: 1
EndChar

StartChar: G
Encoding: 71 71 41
Width: 1388
GlyphClass: 2
Flags: W
HStem: -20 124<515.432 885.27> 635 127<852.163 1153> 1406 124<823.118 1181.65>
VStem: 236 204<172.471 536.906> 1262 210<1144 1329.1>
DStem2: 155.949 -20 366.166 -20 0.207912 0.978148<366.228 1250.81> 1013.55 -20 1223.55 -20 0.207912 0.978148<377.317 669.679>
LayerCount: 2
Fore
SplineSet
581 -20 m 0,0,1
 236 -20 236 -20 236 286 c 0,2,3
 236 357 236 357 255 446 c 2,4,-1
 356 921 l 2,5,6
 485 1530 485 1530 1128 1530 c 0,7,8
 1472 1530 1472 1530 1472 1224 c 0,9,10
 1472 1186 1472 1186 1467 1144 c 1,11,-1
 1250 1090 l 1,12,13
 1262 1145 1262 1145 1262 1191 c 0,14,15
 1262 1406 1262 1406 1000 1406 c 0,16,17
 669 1406 669 1406 566 921 c 2,18,-1
 448 365 l 2,19,20
 440 326 440 326 440 293 c 0,21,22
 440 104 440 104 709 104 c 0,23,24
 1038 104 1038 104 1143 589 c 2,25,-1
 1153 635 l 1,26,-1
 1111 635 l 2,27,28
 929 635 929 635 796 565 c 1,29,-1
 827 712 l 1,30,31
 959 762 959 762 1138 762 c 2,32,-1
 1390 762 l 1,33,-1
 1353 589 l 2,34,35
 1223 -20 1223 -20 581 -20 c 0,0,1
EndSplineSet
Validated: 1
EndChar

StartChar: H
Encoding: 72 72 42
Width: 1406
GlyphClass: 2
Flags: W
HStem: 0 21G<200 404.253 1052 1276> 696 127<575 1154> 1490 20G<451 675.5 1322.75 1527>
VStem: 200 200<0 200> 478 202<1111.34 1508.32> 1048 201<1.73767 399.859> 1327 200<1310 1510>
DStem2: 200 0 400 0 0.207912 0.978148<41.5823 753.144 882.982 1392.2> 1006.23 0 1206.23 0 0.207912 0.978148<193.081 711.513 841.352 1543.69>
LayerCount: 2
Fore
SplineSet
200 0 m 1,0,-1
 457 1210 l 2,1,2
 478 1309 478 1309 478 1366 c 0,3,4
 478 1451 478 1451 451 1510 c 1,5,-1
 671 1510 l 1,6,7
 680 1462 680 1462 680 1407 c 0,8,9
 680 1319 680 1319 657 1210 c 2,10,-1
 575 823 l 1,11,-1
 1181 823 l 1,12,-1
 1327 1510 l 1,13,-1
 1527 1510 l 1,14,-1
 1270 300 l 2,15,16
 1249 201 1249 201 1249 144 c 0,17,18
 1249 61 1249 61 1276 0 c 1,19,-1
 1056 0 l 1,20,21
 1048 50 1048 50 1048 105 c 0,22,23
 1048 196 1048 196 1070 300 c 2,24,-1
 1154 696 l 1,25,-1
 548 696 l 1,26,-1
 400 0 l 1,27,-1
 200 0 l 1,0,-1
EndSplineSet
Validated: 1
EndChar

StartChar: I
Encoding: 73 73 43
Width: 600
GlyphClass: 2
Flags: W
HStem: 0 21G<200 404.248> 1490 20G<451 676>
VStem: 200 200<0 200> 477 204<1115.47 1508.29>
DStem2: 200 0 400 0 0.207912 0.978148<41.5823 1390.89>
LayerCount: 2
Fore
SplineSet
200 0 m 25,0,-1
 457 1210 l 2,1,2
 477 1304 477 1304 477 1365 c 0,3,4
 477 1447 477 1447 451 1510 c 1,5,-1
 671 1510 l 17,6,7
 681 1464 681 1464 681 1408 c 0,8,9
 681 1323 681 1323 657 1210 c 2,10,-1
 400 0 l 25,11,-1
 200 0 l 25,0,-1
EndSplineSet
Validated: 1
EndChar

StartChar: J
Encoding: 74 74 44
Width: 1088
GlyphClass: 2
Flags: W
HStem: -20 124<198 604.038> 1383 127<584.121 982>
VStem: 76 215<137.699 279>
DStem2: 683.871 -20 883.258 -20 0.207912 0.978148<307.416 1434.33>
LayerCount: 2
Fore
SplineSet
320 -20 m 0,0,1
 76 -20 76 -20 76 221 c 0,2,3
 76 248 76 248 79 279 c 1,4,-1
 301 334 l 1,5,6
 291 288 291 288 291 251 c 0,7,8
 291 104 291 104 448 104 c 0,9,10
 710 104 710 104 791 484 c 2,11,-1
 982 1383 l 1,12,-1
 832 1383 l 2,13,14
 684 1383 684 1383 517 1313 c 1,15,-1
 548 1460 l 1,16,17
 672 1510 672 1510 859 1510 c 2,18,-1
 1209 1510 l 1,19,-1
 994 501 l 2,20,21
 884 -20 884 -20 320 -20 c 0,0,1
EndSplineSet
Validated: 1
EndChar

StartChar: K
Encoding: 75 75 45
Width: 1317
GlyphClass: 2
Flags: W
HStem: 0 21G<200 404.253 952 1187> 696 127<575 928.77> 1490 20G<451 675.5 1206.76 1421>
VStem: 200 200<0 200> 478 202<1111.34 1508.4> 947 214<1.70679 439.11> 993 207<142.795 632.263>
DStem2: 200 0 400 0 0.207912 0.978148<41.5823 753.144 882.982 1392.2> 907.233 0 1117.23 0 0.207912 0.978148<196.496 477.403 1138.08 1480.4>
LayerCount: 2
Fore
SplineSet
200 0 m 1,0,-1
 457 1210 l 2,1,2
 478 1309 478 1309 478 1366 c 0,3,4
 478 1456 478 1456 451 1510 c 1,5,-1
 671 1510 l 17,6,7
 680 1462 680 1462 680 1406 c 0,8,9
 680 1319 680 1319 657 1210 c 2,10,-1
 575 823 l 1,11,-1
 817 823 l 2,12,13
 1065 823 1065 823 1144 1194 c 2,14,-1
 1211 1510 l 25,15,-1
 1421 1510 l 25,16,-1
 1377 1305 l 2,17,18
 1292 910 1292 910 1010 779 c 1,19,20
 1200 678 1200 678 1200 454 c 0,21,22
 1200 389 1200 389 1184 314 c 2,23,-1
 1181 300 l 2,24,25
 1161 207 1161 207 1161 145 c 0,26,27
 1161 62 1161 62 1187 0 c 1,28,-1
 957 0 l 1,29,30
 947 47 947 47 947 103 c 0,31,32
 947 188 947 188 971 300 c 2,33,-1
 974 314 l 2,34,35
 993 403 993 403 993 472 c 0,36,37
 993 696 993 696 790 696 c 2,38,-1
 548 696 l 1,39,-1
 400 0 l 1,40,-1
 200 0 l 1,0,-1
EndSplineSet
Validated: 1
EndChar

StartChar: L
Encoding: 76 76 46
Width: 1041
GlyphClass: 2
Flags: W
HStem: 0 127<427 1016.84> 1490 20G<451 675>
VStem: 478 201<1111.97 1508.26>
DStem2: 200 0 400.005 0 0.207912 0.978148<171.421 1392.2>
LayerCount: 2
Fore
SplineSet
200 0 m 1,0,-1
 457 1210 l 2,1,2
 478 1309 478 1309 478 1366 c 0,3,4
 478 1449 478 1449 451 1510 c 1,5,-1
 671 1510 l 1,6,7
 679 1460 679 1460 679 1405 c 0,8,9
 679 1314 679 1314 657 1210 c 2,10,-1
 427 127 l 1,11,-1
 758 127 l 2,12,13
 940 127 940 127 1073 197 c 1,14,-1
 1042 50 l 1,15,16
 910 0 910 0 731 0 c 2,17,-1
 200 0 l 1,0,-1
EndSplineSet
Validated: 1
EndChar

StartChar: O
Encoding: 79 79 47
Width: 1388
GlyphClass: 2
Flags: W
HStem: -20 124<515.432 885.882> 1406 124<823.118 1193.57>
VStem: 236 204<172.471 536.906> 1269 204<973.094 1337.53>
DStem2: 155.949 -20 366.166 -20 0.207912 0.978148<366.228 1250.81> 1013.55 -20 1223.55 -20 0.207912 0.978148<377.485 1262.07>
LayerCount: 2
Fore
SplineSet
709 104 m 0,0,1
 1040 104 1040 104 1143 589 c 2,2,-1
 1261 1145 l 2,3,4
 1269 1184 1269 1184 1269 1217 c 0,5,6
 1269 1406 1269 1406 1000 1406 c 0,7,8
 669 1406 669 1406 566 921 c 2,9,-1
 448 365 l 2,10,11
 440 326 440 326 440 293 c 0,12,13
 440 104 440 104 709 104 c 0,0,1
581 -20 m 0,14,15
 236 -20 236 -20 236 286 c 0,16,17
 236 357 236 357 255 446 c 2,18,-1
 356 921 l 2,19,20
 485 1530 485 1530 1128 1530 c 0,21,22
 1473 1530 1473 1530 1473 1224 c 0,23,24
 1473 1153 1473 1153 1454 1064 c 10,25,-1
 1353 589 l 2,26,27
 1224 -20 1224 -20 581 -20 c 0,14,15
EndSplineSet
Validated: 1
EndChar

StartChar: P
Encoding: 80 80 48
Width: 1271
GlyphClass: 2
Flags: W
HStem: 0 21G<200 404.252> 508 127<535 925.919> 1383 127<682 1117.52>
VStem: 200 200<0 200> 475 207<1121.84 1381.52> 1191 204<978.414 1315.27>
DStem2: 200 0 400 0 0.207912 0.978148<41.5823 560.936 690.774 1375.99>
LayerCount: 2
Fore
SplineSet
200 0 m 1,0,-1
 457 1210 l 2,1,2
 475 1295 475 1295 475 1350 c 0,3,4
 475 1435 475 1435 451 1510 c 1,5,-1
 1050 1510 l 2,6,7
 1303 1510 1303 1510 1372 1343 c 0,8,9
 1395 1287 1395 1287 1395 1204 c 0,10,11
 1395 1150 1395 1150 1385 1100 c 0,12,13
 1266 508 1266 508 620 508 c 2,14,-1
 508 508 l 1,15,-1
 400 0 l 1,16,-1
 200 0 l 1,0,-1
535 635 m 17,17,-1
 749 635 l 2,18,19
 1082 635 1082 635 1179 1100 c 24,20,21
 1191 1158 1191 1158 1191 1195 c 0,22,23
 1191 1383 1191 1383 920 1383 c 2,24,-1
 682 1383 l 1,25,26
 682 1325 682 1325 658 1212 c 10,27,-1
 535 635 l 17,17,-1
EndSplineSet
Validated: 1
EndChar

StartChar: Q
Encoding: 81 81 49
Width: 1392
GlyphClass: 2
Flags: W
HStem: -20 124<515.432 891.487> 0 21G<1080.29 1312> 1406 124<823.118 1193.57>
VStem: 236 204<172.471 536.906> 732 214<314 528> 1269 204<973.094 1337.53>
DStem2: 155.949 -20 366.166 -20 0.207912 0.978148<366.228 1250.81> 946 528 732 528 0.569696 -0.821856<0 221.929 406.68 518.255> 1013.55 -20 1223.55 -20 0.207912 0.978148<372.62 1262.07>
LayerCount: 2
Fore
SplineSet
709 104 m 0,0,1
 857 104 857 104 960 195 c 1,2,-1
 732 528 l 1,3,-1
 946 528 l 1,4,-1
 1073 346 l 1,5,6
 1106 412 1106 412 1143 589 c 2,7,-1
 1261 1145 l 2,8,9
 1269 1184 1269 1184 1269 1217 c 0,10,11
 1269 1406 1269 1406 1000 1406 c 0,12,13
 669 1406 669 1406 566 921 c 2,14,-1
 448 365 l 2,15,16
 440 326 440 326 440 293 c 0,17,18
 440 104 440 104 709 104 c 0,0,1
581 -20 m 0,19,20
 236 -20 236 -20 236 286 c 0,21,22
 236 357 236 357 255 446 c 2,23,-1
 356 921 l 2,24,25
 485 1530 485 1530 1128 1530 c 0,26,27
 1473 1530 1473 1530 1473 1224 c 0,28,29
 1473 1153 1473 1153 1454 1064 c 2,30,-1
 1353 589 l 2,31,32
 1302 349 1302 349 1171 203 c 1,33,-1
 1312 0 l 1,34,-1
 1094 0 l 1,35,-1
 1033 89 l 1,36,37
 853 -20 853 -20 581 -20 c 0,19,20
EndSplineSet
Validated: 1
EndChar

StartChar: R
Encoding: 82 82 50
Width: 1340
GlyphClass: 2
Flags: W
HStem: 0 21G<200 404.252 948 1180> 508 127<535 923.422> 1383 127<682 1117.52>
VStem: 200 200<0 200> 474 208<1121.84 1382.14> 946 215<1.47168 351.859> 968 210<145.638 464.646> 1191 204<996.877 1315.27>
DStem2: 200 0 400 0 0.207912 0.978148<41.5823 560.936 690.774 1372.78>
LayerCount: 2
Fore
SplineSet
200 0 m 1,0,-1
 457 1210 l 2,1,2
 474 1290 474 1290 474 1347 c 0,3,4
 474 1427 474 1427 451 1510 c 1,5,-1
 1050 1510 l 2,6,7
 1303 1510 1303 1510 1372 1343 c 0,8,9
 1395 1287 1395 1287 1395 1204 c 0,10,11
 1395 1155 1395 1155 1385 1100 c 0,12,13
 1317 727 1317 727 974 591 c 1,14,15
 1178 544 1178 544 1178 357 c 0,16,17
 1178 332 1178 332 1175 308 c 2,18,-1
 1174 300 l 2,19,20
 1161 196 1161 196 1161 144 c 0,21,22
 1161 67 1161 67 1180 0 c 1,23,-1
 950 0 l 1,24,25
 946 27 946 27 946 68 c 0,26,27
 946 156 946 156 964 300 c 2,28,-1
 965 308 l 2,29,30
 968 332 968 332 968 348 c 0,31,32
 968 508 968 508 778 508 c 2,33,-1
 508 508 l 1,34,-1
 400 0 l 1,35,-1
 200 0 l 1,0,-1
535 635 m 1,36,-1
 749 635 l 2,37,38
 1080 635 1080 635 1183 1125 c 24,39,40
 1191 1163 1191 1163 1191 1195 c 0,41,42
 1191 1383 1191 1383 920 1383 c 2,43,-1
 682 1383 l 1,44,45
 681 1320 681 1320 658 1212 c 2,46,-1
 535 635 l 1,36,-1
EndSplineSet
Validated: 1
EndChar

StartChar: S
Encoding: 83 83 51
Width: 1368
GlyphClass: 2
Flags: W
HStem: -20 124<526.158 884.938> 745 151<704.227 1047> 1406 124<811.61 1139.61>
VStem: 232 215<176.289 365> 423 217<953.936 1199.28> 1113 216<407.472 682.465> 1203 213<1145 1345.94>
LayerCount: 2
Fore
SplineSet
571 -20 m 0,0,1
 232 -20 232 -20 232 279 c 0,2,3
 232 319 232 319 238 365 c 9,4,-1
 459 420 l 17,5,6
 447 363 447 363 447 317 c 0,7,8
 447 104 447 104 699 104 c 0,9,10
 1020 104 1020 104 1106 507 c 16,11,12
 1113 541 1113 541 1113 570 c 0,13,14
 1113 745 1113 745 849 745 c 0,15,16
 423 745 423 745 423 1009 c 0,17,18
 423 1067 423 1067 444 1138 c 0,19,20
 497 1321 497 1321 670 1426 c 0,21,22
 840 1530 840 1530 1118 1530 c 0,23,24
 1416 1530 1416 1530 1416 1229 c 0,25,26
 1416 1190 1416 1190 1411 1145 c 9,27,-1
 1190 1090 l 17,28,29
 1203 1153 1203 1153 1203 1204 c 0,30,31
 1203 1406 1203 1406 990 1406 c 0,32,33
 722 1406 722 1406 650 1127 c 0,34,35
 640 1090 640 1090 640 1059 c 0,36,37
 640 896 640 896 904 896 c 0,38,39
 1329 896 1329 896 1329 616 c 0,40,41
 1329 565 1329 565 1315 504 c 0,42,43
 1253 241 1253 241 1054 105 c 0,44,45
 870 -20 870 -20 571 -20 c 0,0,1
EndSplineSet
Validated: 1
EndChar

StartChar: T
Encoding: 84 84 52
Width: 1040
GlyphClass: 2
Flags: W
HStem: 0 21G<420 624.252> 1383 127<346.672 714 914 1324>
VStem: 420 200<0 200>
DStem2: 420 0 620 0 0.207912 0.978148<41.5823 1413.9>
LayerCount: 2
Fore
SplineSet
420 0 m 1,0,-1
 714 1383 l 1,1,-1
 604 1383 l 2,2,3
 427 1383 427 1383 289 1313 c 1,4,-1
 320 1460 l 1,5,6
 433 1510 433 1510 631 1510 c 2,7,-1
 1351 1510 l 25,8,-1
 1324 1383 l 25,9,-1
 914 1383 l 1,10,-1
 620 0 l 1,11,-1
 420 0 l 1,0,-1
EndSplineSet
Validated: 1
EndChar

StartChar: U
Encoding: 85 85 53
Width: 1426
GlyphClass: 2
Flags: W
HStem: -20 123<544.243 899.793> 1490 20G<451 675.5 1342.74 1547>
VStem: 277 193<169.114 533.102> 477 203<1116.04 1508.2> 1347 200<1310 1510>
DStem2: 195.949 -20 396.166 -20 0.207912 0.978148<363.232 1412.24> 1021.55 -20 1221.55 -20 0.207912 0.978148<368.65 1564.23>
LayerCount: 2
Fore
SplineSet
631 -20 m 0,0,1
 277 -20 277 -20 277 289 c 0,2,3
 277 361 277 361 295 446 c 2,4,-1
 457 1210 l 2,5,6
 477 1304 477 1304 477 1366 c 0,7,8
 477 1443 477 1443 451 1510 c 1,9,-1
 671 1510 l 1,10,11
 680 1462 680 1462 680 1407 c 0,12,13
 680 1319 680 1319 657 1210 c 2,14,-1
 478 365 l 2,15,16
 470 327 470 327 470 292 c 0,17,18
 470 103 470 103 735 103 c 0,19,20
 1048 103 1048 103 1151 589 c 2,21,-1
 1347 1510 l 25,22,-1
 1547 1510 l 25,23,-1
 1351 589 l 2,24,25
 1221 -20 1221 -20 631 -20 c 0,0,1
EndSplineSet
Validated: 1
EndChar

StartChar: V
Encoding: 86 86 54
Width: 1358
GlyphClass: 2
Flags: W
HStem: 0 21G<468 1049> 1490 20G<401 635.5 1229 1539>
VStem: 358 196<408.033 1119.79> 425 215<1104.11 1508.25> 1329 210<1337.52 1510>
LayerCount: 2
Fore
SplineSet
578 0 m 1,0,1
 358 336 358 336 358 774 c 0,2,3
 358 980 358 980 407 1210 c 0,4,5
 425 1294 425 1294 425 1365 c 0,6,7
 425 1447 425 1447 401 1510 c 1,8,-1
 631 1510 l 1,9,10
 640 1461 640 1461 640 1405 c 0,11,12
 640 1316 640 1316 617 1210 c 0,13,14
 554 925 554 925 554 685 c 0,15,16
 554 346 554 346 680 98 c 1,17,18
 1129 568 1129 568 1329 1510 c 1,19,-1
 1539 1510 l 1,20,21
 1358 524 1358 524 740 0 c 1,22,-1
 578 0 l 1,0,1
EndSplineSet
Validated: 1
EndChar

StartChar: X
Encoding: 88 88 55
Width: 1298
GlyphClass: 2
Flags: W
HStem: 0 21G<140 394 952 1178> 1490 20G<441 666.5 1228 1479>
VStem: 140 210<0 148.477> 438 202<998.613 1364.02> 467 205<1134.66 1508.25> 946 207<1.65979 403.436> 983 202<147.068 552.828> 1269 210<1363.87 1510>
LayerCount: 2
Fore
SplineSet
140 0 m 1,0,1
 240 492 240 492 686 768 c 1,2,3
 438 912 438 912 438 1125 c 0,4,5
 438 1166 438 1166 447 1210 c 0,6,7
 467 1303 467 1303 467 1366 c 0,8,9
 467 1442 467 1442 441 1510 c 1,10,-1
 661 1510 l 1,11,12
 672 1466 672 1466 672 1409 c 0,13,14
 672 1335 672 1335 647 1210 c 0,15,16
 640 1175 640 1175 640 1142 c 0,17,18
 640 987 640 987 830 853 c 1,19,20
 1187 1124 1187 1124 1269 1510 c 1,21,-1
 1479 1510 l 1,22,23
 1396 1072 1396 1072 937 784 c 1,24,25
 1185 653 1185 653 1185 414 c 0,26,27
 1185 360 1185 360 1172 300 c 0,28,29
 1153 211 1153 211 1153 145 c 0,30,31
 1153 66 1153 66 1178 0 c 1,32,-1
 958 0 l 1,33,34
 946 40 946 40 946 96 c 0,35,36
 946 180 946 180 972 300 c 0,37,38
 983 350 983 350 983 396 c 0,39,40
 983 573 983 573 796 692 c 1,41,42
 438 414 438 414 350 0 c 1,43,-1
 140 0 l 1,0,1
EndSplineSet
Validated: 1
EndChar

StartChar: Y
Encoding: 89 89 56
Width: 1336
GlyphClass: 2
Flags: W
HStem: 0 21G<558 762.269> 507 123<619.304 666 869 968.785> 1490 20G<421 645.5 1292.75 1497>
VStem: 355 195<695.671 1056.51> 445 205<1109.95 1508.12> 558 200<0 200> 1297 200<1310 1510>
DStem2: 169.395 0 369.612 0 0.207912 0.978148<878.312 1385.56> 558 0 758 0 0.207912 0.978148<41.5823 518.375> 975.999 0 1176 0 0.207912 0.978148<873.596 1543.74>
LayerCount: 2
Fore
SplineSet
558 0 m 1,0,-1
 666 507 l 1,1,2
 355 520 355 520 355 809 c 0,3,4
 355 874 355 874 376 972 c 2,5,-1
 427 1210 l 2,6,7
 445 1294 445 1294 445 1360 c 0,8,9
 445 1439 445 1439 421 1510 c 1,10,-1
 641 1510 l 1,11,12
 650 1461 650 1461 650 1406 c 0,13,14
 650 1318 650 1318 627 1210 c 2,15,-1
 559 891 l 2,16,17
 550 849 550 849 550 816 c 0,18,19
 550 630 550 630 806 630 c 0,20,21
 1110 630 1110 630 1213 1115 c 2,22,-1
 1297 1510 l 1,23,-1
 1497 1510 l 1,24,-1
 1413 1115 l 2,25,26
 1303 598 1303 598 869 520 c 1,27,-1
 758 0 l 1,28,-1
 558 0 l 1,0,-1
EndSplineSet
Validated: 1
EndChar

StartChar: Z
Encoding: 90 90 57
Width: 1273
GlyphClass: 2
Flags: W
HStem: 0 127<349 1170.27> 1383 127<514.052 1217>
DStem2: 107 127 349 127 0.662213 0.749315<160.256 1676.2>
LayerCount: 2
Fore
SplineSet
80 0 m 1,0,-1
 107 127 l 1,1,-1
 1217 1383 l 1,2,-1
 770 1383 l 2,3,4
 593 1383 593 1383 455 1313 c 9,5,-1
 486 1460 l 17,6,7
 635 1510 635 1510 797 1510 c 2,8,-1
 1486 1510 l 1,9,-1
 1459 1383 l 1,10,-1
 349 127 l 1,11,-1
 920 127 l 2,12,13
 1080 127 1080 127 1235 197 c 9,14,-1
 1204 50 l 17,15,16
 1072 0 1072 0 893 0 c 2,17,-1
 80 0 l 1,0,-1
EndSplineSet
Validated: 19457
EndChar

StartChar: bracketleft
Encoding: 91 91 58
Width: 853
GlyphClass: 2
Flags: W
HStem: -289 150<370 742> 1668 150<755 1158>
DStem2: 139 -289 338.117 -289 0.207912 0.978148<194.75 2042.31>
LayerCount: 2
Fore
SplineSet
139 -289 m 1,0,-1
 586 1818 l 1,1,-1
 1189 1818 l 1,2,-1
 1158 1668 l 1,3,-1
 755 1668 l 1,4,-1
 370 -139 l 1,5,-1
 773 -139 l 1,6,-1
 742 -289 l 1,7,-1
 139 -289 l 1,0,-1
EndSplineSet
Validated: 1
EndChar

StartChar: backslash
Encoding: 92 92 59
Width: 1002
GlyphClass: 2
Flags: W
VStem: 359 605
DStem2: 504 1705 359 1643 0.242908 -0.970049<24.9213 1893.72>
LayerCount: 2
Fore
SplineSet
504 1705 m 1,0,-1
 964 -132 l 1,1,-1
 819 -194 l 1,2,-1
 359 1643 l 1,3,-1
 504 1705 l 1,0,-1
EndSplineSet
Validated: 1
EndChar

StartChar: bracketright
Encoding: 93 93 60
Width: 853
GlyphClass: 2
Flags: W
HStem: -289 150<20 423> 1668 150<436 808>
DStem2: 391.117 -289 592 -289 0.207912 0.978148<153.351 2000.91>
LayerCount: 2
Fore
SplineSet
592 -289 m 1,0,-1
 -11 -289 l 1,1,-1
 20 -139 l 1,2,-1
 423 -139 l 1,3,-1
 808 1668 l 1,4,-1
 405 1668 l 1,5,-1
 436 1818 l 1,6,-1
 1039 1818 l 1,7,-1
 592 -289 l 1,0,-1
EndSplineSet
Validated: 1
EndChar

StartChar: asciicircum
Encoding: 94 94 61
Width: 1176
GlyphClass: 2
Flags: W
HStem: 988 523
VStem: 310 218<988 1206>
DStem2: 310 988 528 988 0.696745 0.717319<151.89 633.554> 1000 1511 860 1337 0.479792 -0.877382<85.4936 479.502>
LayerCount: 2
Fore
SplineSet
818 1511 m 1,0,-1
 1000 1511 l 1,1,-1
 1286 988 l 1,2,-1
 1043 988 l 1,3,-1
 860 1337 l 1,4,-1
 528 988 l 1,5,-1
 310 988 l 1,6,-1
 818 1511 l 1,0,-1
EndSplineSet
Validated: 1
EndChar

StartChar: underscore
Encoding: 95 95 62
Width: 1183
GlyphClass: 2
Flags: W
HStem: -410 150<95 946>
LayerCount: 2
Fore
SplineSet
946 -410 m 1,0,-1
 63 -410 l 1,1,-1
 95 -260 l 1,2,-1
 978 -260 l 1,3,-1
 946 -410 l 1,0,-1
EndSplineSet
Validated: 1
EndChar

StartChar: grave
Encoding: 96 96 63
Width: 469
GlyphClass: 2
Flags: W
HStem: 1170 360
VStem: 349 336
LayerCount: 2
Fore
SplineSet
499 1530 m 1,0,-1
 685 1250 l 1,1,-1
 585 1170 l 1,2,-1
 349 1409 l 1,3,-1
 499 1530 l 1,0,-1
EndSplineSet
Validated: 1
EndChar

StartChar: a
Encoding: 97 97 64
Width: 1129
GlyphClass: 2
Flags: W
HStem: -20 130<327.717 576.192> 0 21G<796.5 993> 576 101<573.41 861> 1016 104<652.78 900.661>
VStem: 119 194<129.965 344.675> 793 179<1.61377 352.315> 928 177<680.352 991.265>
DStem2: 749.257 -20 924.257 -20 0.207912 0.978148<212.391 321.015 702.906 906.182>
LayerCount: 2
Fore
SplineSet
993 0 m 1,0,-1
 800 0 l 1,1,2
 793 44 793 44 793 94 c 0,3,4
 793 184 793 184 816 294 c 1,5,6
 670 -20 670 -20 375 -20 c 0,7,8
 119 -20 119 -20 119 165 c 0,9,10
 119 220 119 220 142 292 c 0,11,12
 203 482 203 482 424 588 c 0,13,14
 609 677 609 677 898 677 c 1,15,-1
 915 758 l 2,16,17
 928 820 928 820 928 870 c 0,18,19
 928 1016 928 1016 804 1016 c 0,20,21
 642 1016 642 1016 523 839 c 1,22,-1
 385 904 l 1,23,24
 563 1120 563 1120 878 1120 c 0,25,26
 1105 1120 1105 1120 1105 890 c 0,27,28
 1105 825 1105 825 1088 746 c 2,29,-1
 991 294 l 2,30,31
 972 205 972 205 972 148 c 0,32,33
 972 59 972 59 993 0 c 1,0,-1
317 240 m 16,34,35
 313 221 313 221 313 204 c 0,36,37
 313 110 313 110 448 110 c 0,38,39
 605 110 605 110 743 336 c 0,40,41
 816 455 816 455 861 576 c 1,42,43
 389 576 389 576 317 240 c 16,34,35
EndSplineSet
Validated: 1
EndChar

StartChar: b
Encoding: 98 98 65
Width: 1204
GlyphClass: 2
Flags: W
HStem: -20 116<476.207 767.738> 990 130<787.931 1011.6> 1490 20G<457 653>
VStem: 258 178<136.116 452.057> 477 180<1118.23 1508.25> 1037 192<616.141 965.507>
DStem2: 195.504 -20 370.605 -20 0.207912 0.978148<315.205 725.94 879.844 1411.42> 859.021 -20 1049.02 -20 0.207912 0.978148<302.504 892.727>
LayerCount: 2
Fore
SplineSet
611 96 m 0,0,1
 884 96 884 96 967 488 c 2,2,-1
 1027 770 l 2,3,4
 1037 819 1037 819 1037 856 c 0,5,6
 1037 990 1037 990 908 990 c 0,7,8
 751 990 751 990 619 763 c 0,9,10
 490 540 490 540 445 330 c 16,11,12
 436 286 436 286 436 250 c 0,13,14
 436 96 436 96 611 96 c 0,0,1
485 -20 m 0,15,16
 258 -20 258 -20 258 210 c 0,17,18
 258 274 258 274 275 354 c 2,19,-1
 458 1216 l 2,20,21
 477 1305 477 1305 477 1365 c 0,22,23
 477 1442 477 1442 457 1510 c 1,24,-1
 649 1510 l 1,25,26
 657 1466 657 1466 657 1414 c 0,27,28
 657 1326 657 1326 634 1218 c 2,29,-1
 546 805 l 1,30,31
 692 1120 692 1120 987 1120 c 0,32,33
 1229 1120 1229 1120 1229 885 c 0,34,35
 1229 824 1229 824 1212 745 c 2,36,-1
 1157 488 l 2,37,38
 1048 -20 1048 -20 485 -20 c 0,15,16
EndSplineSet
Validated: 1
EndChar

StartChar: c
Encoding: 99 99 66
Width: 1141
GlyphClass: 2
Flags: W
HStem: -20 104<443.39 748.849> 1016 104<662.631 962.988>
VStem: 215 183<129.479 484.703> 1009 192<841 971.248>
DStem2: 145.427 -20 335.856 -20 0.207912 0.978148<308.789 906.32>
LayerCount: 2
Fore
SplineSet
476 -20 m 0,0,1
 215 -20 215 -20 215 237 c 0,2,3
 215 305 215 305 233 392 c 2,4,-1
 280 612 l 2,5,6
 389 1120 389 1120 936 1120 c 0,7,8
 1201 1120 1201 1120 1201 865 c 0,9,10
 1201 853 1201 853 1200 841 c 1,11,-1
 1001 790 l 1,12,13
 1009 828 1009 828 1009 860 c 0,14,15
 1009 1016 1009 1016 812 1016 c 0,16,17
 556 1016 556 1016 470 612 c 2,18,-1
 406 310 l 2,19,20
 398 273 398 273 398 241 c 0,21,22
 398 84 398 84 600 84 c 0,23,24
 798 84 798 84 894 337 c 1,25,-1
 1089 359 l 1,26,27
 945 -20 945 -20 476 -20 c 0,0,1
EndSplineSet
Validated: 1
EndChar

StartChar: d
Encoding: 100 100 67
Width: 1204
GlyphClass: 2
Flags: W
HStem: -20 130<426.313 650.436> 0 21G<872 1068> 1004 116<667.003 963.125> 1490 20G<1086 1282>
VStem: 209 192<134.404 483.859> 868 179<1.70593 350.378> 1107 179<1124.77 1508.34>
DStem2: 146.291 -20 336.605 -20 0.207912 0.978148<311.374 929.251> 825.045 -20 999.257 -20 0.207912 0.978148<211.279 322.037 483.631 885.699 1069.29 1413.56>
LayerCount: 2
Fore
SplineSet
529 110 m 0,0,1
 689 110 689 110 820 341.5 c 128,-1,2
 951 573 951 573 993 770 c 16,3,4
 1002 813 1002 813 1002 849 c 0,5,6
 1002 1004 1002 1004 826 1004 c 0,7,8
 554 1004 554 1004 471 612 c 2,9,-1
 411 330 l 2,10,11
 401 281 401 281 401 243 c 0,12,13
 401 110 401 110 529 110 c 0,0,1
1068 0 m 1,14,-1
 876 0 l 1,15,16
 868 43 868 43 868 94 c 0,17,18
 868 183 868 183 892 295 c 1,19,20
 746 -20 746 -20 451 -20 c 0,21,22
 209 -20 209 -20 209 215 c 0,23,24
 209 276 209 276 226 355 c 2,25,-1
 281 612 l 2,26,27
 390 1120 390 1120 851 1120 c 0,28,29
 983 1120 983 1120 1047 1026 c 1,30,-1
 1088 1220 l 2,31,32
 1107 1310 1107 1310 1107 1367 c 0,33,34
 1107 1447 1107 1447 1086 1510 c 1,35,-1
 1278 1510 l 1,36,37
 1286 1467 1286 1467 1286 1416 c 0,38,39
 1286 1329 1286 1329 1262 1216 c 2,40,-1
 1066 294 l 2,41,42
 1047 205 1047 205 1047 147 c 0,43,44
 1047 66 1047 66 1068 0 c 1,14,-1
EndSplineSet
Validated: 1
EndChar

StartChar: e
Encoding: 101 101 68
Width: 1173
GlyphClass: 2
Flags: W
HStem: -20 104<443.39 748.849> 1016 104<662.429 966.236>
VStem: 215 183<129.62 380.798> 1009 181<758.437 972.58>
DStem2: 145.639 -20 335.856 -20 0.207912 0.978148<309.693 445.367 592.666 906.192> 451 521 420 377 0.916353 0.400372<0 595.786>
LayerCount: 2
Fore
SplineSet
476 -20 m 0,0,1
 215 -20 215 -20 215 237 c 0,2,3
 215 305 215 305 233 391 c 2,4,-1
 280 612 l 2,5,6
 388 1120 388 1120 936 1120 c 0,7,8
 1190 1120 1190 1120 1190 859 c 0,9,10
 1190 791 1190 791 1173 706 c 1,11,-1
 420 377 l 1,12,-1
 406 310 l 2,13,14
 398 273 398 273 398 242 c 0,15,16
 398 84 398 84 600 84 c 0,17,18
 798 84 798 84 894 337 c 1,19,-1
 1089 359 l 1,20,21
 945 -20 945 -20 476 -20 c 0,0,1
451 521 m 1,22,-1
 995 764 l 1,23,-1
 1001 790 l 2,24,25
 1009 828 1009 828 1009 860 c 0,26,27
 1009 1016 1009 1016 812 1016 c 0,28,29
 556 1016 556 1016 470 612 c 2,30,-1
 451 521 l 1,22,-1
EndSplineSet
Validated: 1
EndChar

StartChar: f
Encoding: 102 102 69
Width: 809
GlyphClass: 2
Flags: W
HStem: 0 21G<200 384.252> 715 108<262.966 352 555 832> 1414 116<790.898 1086.71>
VStem: 200 180<0 180>
DStem2: 200 0 380 0 0.207912 0.978148<37.4241 730.978 878.824 1306.57>
LayerCount: 2
Fore
SplineSet
200 0 m 1,0,-1
 352 715 l 1,1,2
 304 715 304 715 237 676 c 1,3,-1
 261 789 l 1,4,5
 324 823 324 823 375 823 c 1,6,-1
 418 1025 l 2,7,8
 525 1530 525 1530 1079 1530 c 0,9,10
 1103 1530 1103 1530 1124 1528 c 1,11,-1
 1062 1383 l 1,12,13
 1010 1414 1010 1414 921 1414 c 0,14,15
 681 1414 681 1414 598 1025 c 2,16,-1
 555 823 l 1,17,-1
 855 823 l 1,18,-1
 832 715 l 1,19,-1
 532 715 l 1,20,-1
 380 0 l 1,21,-1
 200 0 l 1,0,-1
EndSplineSet
Validated: 1
EndChar

StartChar: g
Encoding: 103 103 70
Width: 1179
GlyphClass: 2
Flags: W
HStem: -430 107<330.784 591.678> -20 130<426.313 650.436> 1004 116<670.037 961.745>
VStem: 209 192<134.404 483.859> 1002 182<642.542 962.73>
DStem2: 59.1431 -430 249.457 -430 0.207912 0.978148<730.534 1321.68> 737.896 -430 917.791 -430 0.207912 0.978148<466.226 741.197 902.791 1304.86>
LayerCount: 2
Fore
SplineSet
529 110 m 0,0,1
 689 110 689 110 820 341.5 c 128,-1,2
 951 573 951 573 993 770 c 16,3,4
 1002 813 1002 813 1002 849 c 0,5,6
 1002 1004 1002 1004 826 1004 c 0,7,8
 554 1004 554 1004 471 612 c 2,9,-1
 411 330 l 2,10,11
 401 281 401 281 401 243 c 0,12,13
 401 110 401 110 529 110 c 0,0,1
451 -20 m 0,14,15
 209 -20 209 -20 209 215 c 0,16,17
 209 277 209 277 226 355 c 2,18,-1
 281 612 l 2,19,20
 390 1120 390 1120 953 1120 c 0,21,22
 1184 1120 1184 1120 1184 887 c 0,23,24
 1184 824 1184 824 1167 744 c 2,25,-1
 1094 399 l 2,26,27
 919 -430 919 -430 364 -430 c 0,28,29
 151 -430 151 -430 118 -294 c 1,30,-1
 313 -243 l 1,31,32
 337 -323 337 -323 437 -323 c 0,33,34
 759 -323 759 -323 892 295 c 1,35,36
 746 -20 746 -20 451 -20 c 0,14,15
EndSplineSet
Validated: 1
EndChar

StartChar: h
Encoding: 104 104 71
Width: 1243
GlyphClass: 2
Flags: W
HStem: 0 21G<200 379.348 906 1107> 990 130<789.801 1011.14> 1490 20G<457 653>
VStem: 477 180<1118 1508.31> 902 185<1.56567 392.961> 1037 182<616.789 966.586>
DStem2: 200 0 375 0 0.207912 0.978148<36.3845 610.45 860.324 1390.95> 863.083 0 1043.3 0 0.207912 0.978148<176.989 873.237>
LayerCount: 2
Fore
SplineSet
200 0 m 1,0,-1
 458 1216 l 2,1,2
 477 1306 477 1306 477 1365 c 0,3,4
 477 1446 477 1446 457 1510 c 1,5,-1
 649 1510 l 1,6,7
 657 1466 657 1466 657 1414 c 0,8,9
 657 1326 657 1326 634 1218 c 2,10,-1
 546 806 l 1,11,12
 692 1120 692 1120 987 1120 c 0,13,14
 1219 1120 1219 1120 1219 888 c 0,15,16
 1219 825 1219 825 1202 745 c 2,17,-1
 1106 295 l 2,18,19
 1087 206 1087 206 1087 131 c 128,-1,20
 1087 56 1087 56 1107 0 c 1,21,-1
 910 0 l 1,22,23
 902 44 902 44 902 95 c 0,24,25
 902 183 902 183 926 296 c 2,26,-1
 1027 771 l 2,27,28
 1037 818 1037 818 1037 857 c 0,29,30
 1037 990 1037 990 908 990 c 0,31,32
 590 990 590 990 390 69 c 2,33,-1
 375 0 l 1,34,-1
 200 0 l 1,0,-1
EndSplineSet
Validated: 1
EndChar

StartChar: i
Encoding: 105 105 72
Width: 580
GlyphClass: 2
Flags: W
HStem: 0 21G<243 444> 1080 20G<370 571> 1280 230<472.201 645.579>
VStem: 239 186<1.67468 390.625> 390 185<709.375 1098.29> 441 236<1311.41 1479.92>
DStem2: 200.296 0 380.296 0 0.207912 0.978148<187.699 969.835>
LayerCount: 2
Fore
SplineSet
583 1510 m 0,0,1
 677 1510 677 1510 677 1433 c 0,2,3
 677 1280 677 1280 534 1280 c 0,4,5
 441 1280 441 1280 441 1358 c 24,6,7
 441 1510 441 1510 583 1510 c 0,0,1
247 0 m 1,8,9
 239 44 239 44 239 95 c 0,10,11
 239 182 239 182 263 295 c 2,12,-1
 371 805 l 2,13,14
 390 895 390 895 390 953 c 0,15,16
 390 1035 390 1035 370 1100 c 1,17,-1
 567 1100 l 1,18,19
 575 1056 575 1056 575 1005 c 0,20,21
 575 918 575 918 551 805 c 2,22,-1
 443 295 l 2,23,24
 425 210 425 210 425 142 c 0,25,26
 425 63 425 63 444 0 c 1,27,-1
 247 0 l 1,8,9
EndSplineSet
Validated: 1
EndChar

StartChar: j
Encoding: 106 106 73
Width: 580
GlyphClass: 2
Flags: W
HStem: -430 21G<-86.7798 110.5> 1080 20G<370 571> 1280 230<472.201 645.579>
VStem: 389 186<706.977 1098.28> 441 236<1311.41 1479.92>
DStem2: 109.008 -430 288.795 -430 0.207912 0.978148<411.992 1411.93>
LayerCount: 2
Fore
SplineSet
583 1510 m 0,0,1
 677 1510 677 1510 677 1433 c 0,2,3
 677 1280 677 1280 534 1280 c 0,4,5
 441 1280 441 1280 441 1358 c 24,6,7
 441 1510 441 1510 583 1510 c 0,0,1
-91 -430 m 1,8,-1
 -68 -321 l 1,9,10
 161 -189 161 -189 268 318 c 2,11,-1
 371 806 l 2,12,13
 389 891 389 891 389 956 c 0,14,15
 389 1033 389 1033 370 1100 c 1,16,-1
 567 1100 l 1,17,18
 575 1057 575 1057 575 1006 c 0,19,20
 575 919 575 919 551 806 c 2,21,-1
 448 319 l 2,22,23
 312 -323 312 -323 -91 -430 c 1,8,-1
EndSplineSet
Validated: 1
EndChar

StartChar: k
Encoding: 107 107 74
Width: 1203
GlyphClass: 2
Flags: W
HStem: 0 21G<200 387.616 824.5 1035> 503 108<698 806.402> 990 130<914.533 1160.5> 1490 20G<457 652>
VStem: 477 178<1120.27 1508.23> 821 194<1.61304 367.014> 852 191<144.883 457.184> 1043 193<835 986.53>
DStem2: 200 0 375.006 0 0.207912 0.978148<36.8004 120.409 377.848 1390> 446 334 644 503 0.465089 0.885264<0 262.365 362.421 795.355>
LayerCount: 2
Fore
SplineSet
200 0 m 1,0,-1
 458 1216 l 2,1,2
 477 1306 477 1306 477 1364 c 0,3,4
 477 1443 477 1443 457 1510 c 1,5,-1
 649 1510 l 1,6,7
 655 1464 655 1464 655 1414 c 0,8,9
 655 1320 655 1320 633 1216 c 2,10,-1
 446 334 l 1,11,12
 561 586 561 586 696 835 c 0,13,14
 852 1120 852 1120 1085 1120 c 0,15,16
 1236 1120 1236 1120 1236 923 c 0,17,18
 1236 883 1236 883 1230 835 c 1,19,-1
 1029 783 l 1,20,21
 1043 851 1043 851 1043 897 c 0,22,23
 1043 990 1043 990 983 990 c 0,24,25
 888 990 888 990 698 611 c 1,26,27
 1043 611 1043 611 1043 378 c 0,28,29
 1043 340 1043 340 1034 295 c 0,30,31
 1015 203 1015 203 1015 143 c 0,32,33
 1015 60 1015 60 1035 0 c 1,34,-1
 828 0 l 1,35,36
 821 43 821 43 821 93 c 0,37,38
 821 186 821 186 846 304 c 0,39,40
 852 333 852 333 852 358 c 0,41,42
 852 503 852 503 644 503 c 1,43,-1
 377 0 l 1,44,-1
 200 0 l 1,0,-1
EndSplineSet
Validated: 1
EndChar

StartChar: l
Encoding: 108 108 75
Width: 580
GlyphClass: 2
Flags: W
HStem: 0 21G<243 444> 1490 20G<457 658>
VStem: 239 185<1.65979 394.844> 476 186<1129.56 1508.33>
DStem2: 199.508 0 379.508 0 0.207912 0.978148<190.468 1391.64>
LayerCount: 2
Fore
SplineSet
247 0 m 1,0,1
 239 44 239 44 239 96 c 0,2,3
 239 186 239 186 262 294 c 2,4,-1
 458 1216 l 2,5,6
 476 1301 476 1301 476 1366 c 0,7,8
 476 1446 476 1446 457 1510 c 1,9,-1
 654 1510 l 1,10,11
 662 1467 662 1467 662 1416 c 0,12,13
 662 1329 662 1329 638 1216 c 2,14,-1
 442 294 l 2,15,16
 424 209 424 209 424 145 c 0,17,18
 424 62 424 62 444 0 c 1,19,-1
 247 0 l 1,0,1
EndSplineSet
Validated: 1
EndChar

StartChar: m
Encoding: 109 109 76
Width: 1906
GlyphClass: 2
Flags: W
HStem: 0 21G<200 379.348 863 1042.35 1569 1770> 990 130<783.434 1014.04 1452.8 1674.14> 1080 20G<370 566>
VStem: 390 180<808.619 1098.25> 1037 181<807.045 964.854> 1565 185<1.58289 392.961> 1700 182<616.789 966.586>
DStem2: 200 0 375 0 0.207912 0.978148<36.3845 610.45 860.324 971.762> 863 0 1038 0 0.207912 0.978148<36.3845 610.45> 1526.08 0 1706.3 0 0.207912 0.978148<191.206 873.237>
LayerCount: 2
Fore
SplineSet
200 0 m 1,0,-1
 371 805 l 2,1,2
 390 894 390 894 390 955 c 0,3,4
 390 1031 390 1031 370 1100 c 1,5,-1
 562 1100 l 1,6,7
 570 1057 570 1057 570 1006 c 0,8,9
 570 917 570 917 546 806 c 1,10,11
 692 1120 692 1120 978 1120 c 0,12,13
 1218 1120 1218 1120 1218 900 c 0,14,15
 1218 857 1218 857 1209 806 c 1,16,17
 1355 1120 1355 1120 1650 1120 c 0,18,19
 1882 1120 1882 1120 1882 888 c 0,20,21
 1882 825 1882 825 1865 745 c 2,22,-1
 1769 295 l 2,23,24
 1750 206 1750 206 1750 146 c 0,25,26
 1750 57 1750 57 1770 0 c 1,27,-1
 1573 0 l 1,28,29
 1565 44 1565 44 1565 95 c 0,30,31
 1565 183 1565 183 1589 296 c 2,32,-1
 1690 771 l 2,33,34
 1700 818 1700 818 1700 857 c 0,35,36
 1700 990 1700 990 1571 990 c 0,37,38
 1253 990 1253 990 1053 69 c 2,39,-1
 1038 0 l 1,40,-1
 863 0 l 1,41,-1
 1027 771 l 2,42,43
 1037 818 1037 818 1037 857 c 0,44,45
 1037 990 1037 990 908 990 c 0,46,47
 590 990 590 990 390 69 c 2,48,-1
 375 0 l 1,49,-1
 200 0 l 1,0,-1
EndSplineSet
Validated: 1
EndChar

StartChar: n
Encoding: 110 110 77
Width: 1243
GlyphClass: 2
Flags: W
HStem: 0 21G<200 379.348 906 1107> 990 130<789.801 1011.14> 1080 20G<370 566>
VStem: 390 180<808.619 1098.36> 902 185<1.70569 393.07> 1037 182<617.148 966.586>
DStem2: 200 0 375 0 0.207912 0.978148<36.3845 610.45 860.324 972.71> 863.083 0 1043.3 0 0.207912 0.978148<189.311 873.237>
LayerCount: 2
Fore
SplineSet
200 0 m 1,0,-1
 371 805 l 2,1,2
 390 894 390 894 390 956 c 0,3,4
 390 1038 390 1038 370 1100 c 1,5,-1
 562 1100 l 1,6,7
 570 1057 570 1057 570 1006 c 0,8,9
 570 917 570 917 546 806 c 1,10,11
 692 1120 692 1120 987 1120 c 0,12,13
 1219 1120 1219 1120 1219 888 c 0,14,15
 1219 826 1219 826 1202 746 c 2,16,-1
 1106 295 l 2,17,18
 1087 206 1087 206 1087 144 c 0,19,20
 1087 65 1087 65 1107 0 c 1,21,-1
 910 0 l 1,22,23
 902 44 902 44 902 95 c 0,24,25
 902 183 902 183 926 296 c 2,26,-1
 1027 771 l 2,27,28
 1037 818 1037 818 1037 857 c 0,29,30
 1037 990 1037 990 908 990 c 0,31,32
 590 990 590 990 390 69 c 2,33,-1
 375 0 l 1,34,-1
 200 0 l 1,0,-1
EndSplineSet
Validated: 1
EndChar

StartChar: o
Encoding: 111 111 78
Width: 1188
GlyphClass: 2
Flags: W
HStem: -20 104<446.136 757.151> 1016 104<664.849 975.864>
VStem: 215 183<131.537 484.414> 1024 183<615.586 968.463>
DStem2: 145.639 -20 335.856 -20 0.207912 0.978148<309.693 906.274> 844.021 -20 1034.02 -20 0.207912 0.978148<298.703 895.284>
LayerCount: 2
Fore
SplineSet
817 1016 m 0,0,1
 556 1016 556 1016 470 612 c 2,2,-1
 406 310 l 2,3,4
 398 273 398 273 398 242 c 0,5,6
 398 84 398 84 605 84 c 0,7,8
 866 84 866 84 952 488 c 2,9,-1
 1016 790 l 2,10,11
 1024 827 1024 827 1024 858 c 0,12,13
 1024 1016 1024 1016 817 1016 c 0,0,1
481 -20 m 0,14,15
 215 -20 215 -20 215 239 c 0,16,17
 215 306 215 306 233 391 c 2,18,-1
 280 612 l 2,19,20
 388 1120 388 1120 941 1120 c 0,21,22
 1207 1120 1207 1120 1207 861 c 0,23,24
 1207 794 1207 794 1189 709 c 2,25,-1
 1142 488 l 2,26,27
 1034 -20 1034 -20 481 -20 c 0,14,15
EndSplineSet
Validated: 1
EndChar

StartChar: p
Encoding: 112 112 79
Width: 1204
GlyphClass: 2
Flags: W
HStem: -410 21G<113 292.256> -20 116<474.516 770.772> 990 130<787.931 1011.6> 1080 20G<370 566>
VStem: 113 175<-410 -235> 390 180<750.247 1098.29> 1037 192<616.141 965.507>
DStem2: 113 -410 288 -410 0.207912 0.978148<36.3845 531.223 713.836 1125.8 1278.48 1390.95> 776.124 -410 966.124 -410 0.207912 0.978148<674.484 1291.44>
LayerCount: 2
Fore
SplineSet
611 96 m 0,0,1
 884 96 884 96 967 488 c 2,2,-1
 1027 770 l 2,3,4
 1037 819 1037 819 1037 856 c 0,5,6
 1037 990 1037 990 908 990 c 0,7,8
 751 990 751 990 619 763 c 0,9,10
 491 543 491 543 445 330 c 16,11,12
 436 286 436 286 436 250 c 0,13,14
 436 96 436 96 611 96 c 0,0,1
587 -20 m 0,15,16
 454 -20 454 -20 391 74 c 1,17,-1
 288 -410 l 1,18,-1
 113 -410 l 9,19,-1
 371 806 l 2,20,21
 390 896 390 896 390 955 c 0,22,23
 390 1034 390 1034 370 1100 c 1,24,-1
 562 1100 l 1,25,26
 570 1057 570 1057 570 1006 c 0,27,28
 570 917 570 917 546 805 c 1,29,30
 692 1120 692 1120 987 1120 c 0,31,32
 1229 1120 1229 1120 1229 885 c 0,33,34
 1229 824 1229 824 1212 745 c 2,35,-1
 1157 488 l 2,36,37
 1048 -20 1048 -20 587 -20 c 0,15,16
EndSplineSet
Validated: 1
EndChar

StartChar: q
Encoding: 113 113 80
Width: 1204
GlyphClass: 2
Flags: W
HStem: -410 21G<785 981> -20 130<426.402 650.069> 1004 116<670.262 961.793>
VStem: 209 192<134.493 483.859> 781 180<-408.248 -18.2344> 1002 178<647.943 963.884>
DStem2: 63.3942 -410 253.708 -410 0.207912 0.978148<711.035 1301.26> 741.933 -410 917.508 -410 0.207912 0.978148<189.22 720.795 867.287 1285.43>
LayerCount: 2
Fore
SplineSet
827 1004 m 0,0,1
 554 1004 554 1004 471 612 c 2,2,-1
 411 330 l 2,3,4
 401 281 401 281 401 244 c 0,5,6
 401 110 401 110 530 110 c 0,7,8
 687 110 687 110 819 337 c 0,9,10
 948 560 948 560 993 770 c 16,11,12
 1002 814 1002 814 1002 850 c 0,13,14
 1002 1004 1002 1004 827 1004 c 0,0,1
451 -20 m 0,15,16
 209 -20 209 -20 209 215 c 0,17,18
 209 276 209 276 226 355 c 2,19,-1
 281 612 l 2,20,21
 390 1120 390 1120 953 1120 c 0,22,23
 1180 1120 1180 1120 1180 890 c 0,24,25
 1180 826 1180 826 1163 746 c 2,26,-1
 980 -116 l 2,27,28
 961 -205 961 -205 961 -265 c 0,29,30
 961 -342 961 -342 981 -410 c 1,31,-1
 789 -410 l 1,32,33
 781 -366 781 -366 781 -314 c 0,34,35
 781 -226 781 -226 804 -118 c 2,36,-1
 892 295 l 1,37,38
 746 -20 746 -20 451 -20 c 0,15,16
EndSplineSet
Validated: 1
EndChar

StartChar: r
Encoding: 114 114 81
Width: 1083
GlyphClass: 2
Flags: W
HStem: 0 21G<200 379.348> 990 130<789.801 1011.78> 1080 20G<370 566>
VStem: 390 180<808.619 1098.25> 1037 196<826 966.586>
DStem2: 200 0 375 0 0.207912 0.978148<36.3845 610.45 860.324 971.762>
LayerCount: 2
Fore
SplineSet
200 0 m 1,0,-1
 371 805 l 2,1,2
 390 894 390 894 390 955 c 0,3,4
 390 1031 390 1031 370 1100 c 1,5,-1
 562 1100 l 1,6,7
 570 1057 570 1057 570 1006 c 0,8,9
 570 917 570 917 546 806 c 1,10,11
 692 1120 692 1120 987 1120 c 0,12,13
 1233 1120 1233 1120 1233 888 c 0,14,15
 1233 859 1233 859 1229 826 c 9,16,-1
 1027 771 l 17,17,18
 1037 819 1037 819 1037 857 c 0,19,20
 1037 990 1037 990 908 990 c 0,21,22
 590 990 590 990 390 69 c 2,23,-1
 375 0 l 1,24,-1
 200 0 l 1,0,-1
EndSplineSet
Validated: 1
EndChar

StartChar: t
Encoding: 116 116 82
Width: 800
GlyphClass: 2
Flags: W
HStem: 0 21G<353 554> 993 107<258.976 521 724 1001> 1490 20G<567 768>
VStem: 349 185<1.70593 394.016> 587 185<1115 1508.19>
DStem2: 310.083 0 490.083 0 0.207912 0.978148<190.289 1015.15 1162.02 1390.93>
LayerCount: 2
Fore
SplineSet
357 0 m 1,0,1
 349 46 349 46 349 96 c 0,2,3
 349 183 349 183 373 296 c 2,4,-1
 521 993 l 1,5,6
 357 993 357 993 207 928 c 1,7,-1
 234 1053 l 1,8,9
 361 1100 361 1100 544 1100 c 1,10,-1
 569 1220 l 2,11,12
 587 1306 587 1306 587 1365 c 0,13,14
 587 1438 587 1438 567 1510 c 1,15,-1
 764 1510 l 1,16,17
 772 1466 772 1466 772 1414 c 0,18,19
 772 1330 772 1330 749 1220 c 2,20,-1
 724 1100 l 1,21,-1
 1024 1100 l 1,22,-1
 1001 993 l 1,23,-1
 701 993 l 1,24,-1
 553 296 l 2,25,26
 534 207 534 207 534 145 c 0,27,28
 534 63 534 63 554 0 c 1,29,-1
 357 0 l 1,0,1
EndSplineSet
Validated: 19457
EndChar

StartChar: u
Encoding: 117 117 83
Width: 1243
GlyphClass: 2
Flags: W
HStem: -20 130<465.859 687.199> 0 21G<911 1107> 1080 20G<370 571 1097.65 1277>
VStem: 258 182<133.414 482.852> 390 185<706.93 1098.29> 907 180<1.64404 291.381>
DStem2: 195.504 -20 375.818 -20 0.207912 0.978148<309.281 993.208> 864.257 -20 1039.04 -20 0.207912 0.978148<208.63 321.015 570.889 1144.95>
LayerCount: 2
Fore
SplineSet
1107 0 m 1,0,-1
 915 0 l 1,1,2
 907 43 907 43 907 94 c 0,3,4
 907 183 907 183 931 294 c 1,5,6
 785 -20 785 -20 490 -20 c 0,7,8
 258 -20 258 -20 258 212 c 0,9,10
 258 274 258 274 275 354 c 2,11,-1
 371 805 l 2,12,13
 390 894 390 894 390 956 c 0,14,15
 390 1035 390 1035 370 1100 c 1,16,-1
 567 1100 l 1,17,18
 575 1056 575 1056 575 1005 c 0,19,20
 575 917 575 917 551 804 c 2,21,-1
 450 329 l 2,22,23
 440 282 440 282 440 243 c 0,24,25
 440 110 440 110 569 110 c 0,26,27
 887 110 887 110 1087 1031 c 2,28,-1
 1102 1100 l 1,29,-1
 1277 1100 l 1,30,-1
 1106 295 l 2,31,32
 1087 206 1087 206 1087 144 c 0,33,34
 1087 62 1087 62 1107 0 c 1,0,-1
EndSplineSet
Validated: 1
EndChar

StartChar: v
Encoding: 118 118 84
Width: 1076
GlyphClass: 2
Flags: W
HStem: 0 21G<341.5 849> 1080 20G<264 475.5 978 1230>
VStem: 246 181<339.048 904.732> 285 195<692.65 1098.53> 1040 190<939.925 1100>
LayerCount: 2
Fore
SplineSet
437 0 m 1,0,1
 246 342 246 342 246 629 c 0,2,3
 246 719 246 719 264 805 c 0,4,5
 285 908 285 908 285 968 c 0,6,7
 285 1043 285 1043 264 1100 c 1,8,-1
 471 1100 l 1,9,10
 480 1063 480 1063 480 1012 c 0,11,12
 480 927 480 927 454 805 c 0,13,14
 427 680 427 680 427 557 c 0,15,16
 427 316 427 316 530 82 c 1,17,18
 916 521 916 521 1040 1100 c 1,19,-1
 1230 1100 l 1,20,21
 1108 430 1108 430 590 0 c 1,22,-1
 437 0 l 1,0,1
EndSplineSet
Validated: 1
EndChar

StartChar: w
Encoding: 119 119 85
Width: 1876
GlyphClass: 2
Flags: W
HStem: -20 130<463.223 692.045> -20 87<1130.41 1373.88> 1080 20G<370 571 1097.65 1282 1706 1917>
VStem: 258 182<133.744 483.211> 390 185<707.039 1098.22> 925 179<91.3213 292.915> 1727 194<730.599 1098.25>
DStem2: 195.291 -20 375.818 -20 0.207912 0.978148<309.325 991.356> 863.603 -20 1043.82 -20 0.207912 0.978148<571.005 1145.09>
LayerCount: 2
Fore
SplineSet
492 -20 m 0,0,1
 258 -20 258 -20 258 213 c 0,2,3
 258 275 258 275 275 355 c 2,4,-1
 371 805 l 2,5,6
 390 894 390 894 390 954 c 0,7,8
 390 1030 390 1030 370 1100 c 1,9,-1
 567 1100 l 1,10,11
 575 1056 575 1056 575 1005 c 0,12,13
 575 917 575 917 551 804 c 2,14,-1
 450 329 l 2,15,16
 440 282 440 282 440 243 c 0,17,18
 440 110 440 110 568 110 c 0,19,20
 887 110 887 110 1087 1031 c 2,21,-1
 1102 1100 l 1,22,-1
 1282 1100 l 1,23,-1
 1118 329 l 2,24,25
 1104 263 1104 263 1104 213 c 0,26,27
 1104 67 1104 67 1227 67 c 0,28,29
 1548 67 1548 67 1696 753 c 2,30,-1
 1707 804 l 2,31,32
 1727 897 1727 897 1727 955 c 0,33,34
 1727 1032 1727 1032 1706 1100 c 1,35,-1
 1913 1100 l 1,36,37
 1921 1056 1921 1056 1921 1005 c 0,38,39
 1921 916 1921 916 1897 805 c 8,40,41
 1722 -20 1722 -20 1158 -20 c 0,42,43
 925 -20 925 -20 925 216 c 0,44,45
 925 252 925 252 930 294 c 1,46,47
 786 -20 786 -20 492 -20 c 0,0,1
EndSplineSet
Validated: 1
EndChar

StartChar: x
Encoding: 120 120 86
Width: 1064
GlyphClass: 2
Flags: W
HStem: 0 21G<93 311.5 762.5 974> 1080 20G<324 536 985 1205>
VStem: 93 190<0 123.867> 321 189<675.502 964.33> 346 195<772.5 1098.02> 758 194<1.90759 349.187> 790 190<135.67 458.094> 1015 190<971.715 1100>
LayerCount: 2
Fore
SplineSet
93 0 m 1,0,1
 170 364 170 364 566 549 c 1,2,3
 321 640 321 640 321 773 c 0,4,5
 321 789 321 789 324 805 c 0,6,7
 346 913 346 913 346 966 c 0,8,9
 346 1027 346 1027 324 1100 c 1,10,-1
 531 1100 l 1,11,12
 541 1046 541 1046 541 980 c 0,13,14
 541 918 541 918 514 804 c 0,15,16
 510 787 510 787 510 771 c 0,17,18
 510 670 510 670 657 615 c 1,19,20
 955 816 955 816 1015 1100 c 1,21,-1
 1205 1100 l 1,22,23
 1129 740 1129 740 758 571 c 1,24,25
 980 507 980 507 980 349 c 0,26,27
 980 323 980 323 974 295 c 0,28,29
 952 187 952 187 952 134 c 0,30,31
 952 60 952 60 974 0 c 1,32,-1
 767 0 l 1,33,34
 758 62 758 62 758 121 c 0,35,36
 758 165 758 165 784 295 c 0,37,38
 790 325 790 325 790 351 c 0,39,40
 790 467 790 467 662 504 c 1,41,42
 340 268 340 268 283 0 c 1,43,-1
 93 0 l 1,0,1
EndSplineSet
Validated: 1
EndChar

StartChar: y
Encoding: 121 121 87
Width: 1248
GlyphClass: 2
Flags: W
HStem: -430 107<370.275 630.667> -20 130<465.771 686.799> 1080 20G<370 571 1097.65 1282>
VStem: 258 182<133.414 483.211> 390 185<707.039 1098.25>
DStem2: 108.143 -430 288.67 -430 0.207912 0.978148<728.485 1411.46> 776.109 -430 956.791 -430 0.207912 0.978148<466.306 740.175 990.236 1564.32>
LayerCount: 2
Fore
SplineSet
490 -20 m 0,0,1
 258 -20 258 -20 258 212 c 0,2,3
 258 275 258 275 275 355 c 2,4,-1
 371 805 l 2,5,6
 390 894 390 894 390 955 c 0,7,8
 390 1032 390 1032 370 1100 c 1,9,-1
 567 1100 l 1,10,11
 575 1056 575 1056 575 1005 c 0,12,13
 575 917 575 917 551 804 c 2,14,-1
 450 329 l 2,15,16
 440 282 440 282 440 243 c 0,17,18
 440 110 440 110 568 110 c 0,19,20
 887 110 887 110 1087 1031 c 2,21,-1
 1102 1100 l 1,22,-1
 1282 1100 l 1,23,-1
 1133 399 l 2,24,25
 957 -430 957 -430 403 -430 c 0,26,27
 199 -430 199 -430 167 -294 c 1,28,-1
 352 -243 l 1,29,30
 375 -323 375 -323 476 -323 c 0,31,32
 799 -323 799 -323 930 294 c 1,33,34
 785 -20 785 -20 490 -20 c 0,0,1
EndSplineSet
Validated: 1
EndChar

StartChar: z
Encoding: 122 122 88
Width: 973
GlyphClass: 2
Flags: W
HStem: 0 107<312 874.793> 993 107<382.836 865>
DStem2: 103 107 312 107 0.652059 0.758168<136.28 1168.61>
LayerCount: 2
Fore
SplineSet
80 0 m 1,0,-1
 103 107 l 1,1,-1
 865 993 l 1,2,-1
 621 993 l 2,3,4
 498 993 498 993 317 927 c 1,5,-1
 344 1053 l 1,6,7
 472 1100 472 1100 643 1100 c 2,8,-1
 1097 1100 l 1,9,-1
 1074 993 l 1,10,-1
 312 107 l 1,11,-1
 625 107 l 2,12,13
 784 107 784 107 930 173 c 1,14,-1
 903 47 l 1,15,16
 775 0 775 0 603 0 c 2,17,-1
 80 0 l 1,0,-1
EndSplineSet
Validated: 19457
EndChar

StartChar: braceleft
Encoding: 123 123 89
Width: 879
GlyphClass: 2
Flags: W
HStem: -288 107<626.625 768> 1711 107<1007.93 1193>
VStem: 352 196<-109.386 286.688> 442 191<289.273 653.635>
DStem2: 274.813 -288 469.813 -288 0.207912 0.978148<370.329 827.273 1238.68 1945.18>
LayerCount: 2
Fore
SplineSet
1215 1818 m 9,0,1
 1193 1711 l 17,2,3
 894 1711 894 1711 826 1389 c 2,4,-1
 756 1058 l 2,5,6
 709 834 709 834 456 765 c 1,7,8
 633 717 633 717 633 527 c 0,9,10
 633 473 633 473 619 409 c 2,11,-1
 561 141 l 2,12,13
 548 80 548 80 548 31 c 0,14,15
 548 -181 548 -181 791 -181 c 9,16,-1
 768 -288 l 17,17,18
 352 -288 352 -288 352 18 c 0,19,20
 352 74 352 74 366 141 c 2,21,-1
 436 472 l 2,22,23
 442 498 442 498 442 523 c 0,24,25
 442 663 442 663 263 765 c 1,26,27
 524 885 524 885 561 1058 c 2,28,-1
 631 1389 l 2,29,30
 722 1818 722 1818 1215 1818 c 9,0,1
EndSplineSet
Validated: 1
EndChar

StartChar: bar
Encoding: 124 124 90
Width: 661
GlyphClass: 2
Flags: W
VStem: 210 160<-186 -26> 610 161<1534 1695>
DStem2: 210 -186 370 -186 0.207912 0.978148<33.2659 1923.06>
LayerCount: 2
Fore
SplineSet
210 -186 m 1,0,-1
 610 1695 l 1,1,-1
 771 1695 l 1,2,-1
 370 -186 l 1,3,-1
 210 -186 l 1,0,-1
EndSplineSet
Validated: 1
EndChar

StartChar: braceright
Encoding: 125 125 91
Width: 879
GlyphClass: 2
Flags: W
HStem: -288 107<11 196.073> 1711 107<436 577.375>
VStem: 571 191<876.365 1240.73> 656 196<1334.89 1638.63>
DStem2: 286.813 -288 481.813 -288 0.207912 0.978148<248.358 954.856 1366.26 1823.21>
LayerCount: 2
Fore
SplineSet
436 1818 m 17,0,1
 852 1818 852 1818 852 1512 c 0,2,3
 852 1456 852 1456 838 1389 c 2,4,-1
 768 1058 l 2,5,6
 762 1032 762 1032 762 1007 c 0,7,8
 762 867 762 867 941 765 c 1,9,10
 680 645 680 645 643 472 c 2,11,-1
 573 141 l 2,12,13
 482 -288 482 -288 -11 -288 c 9,14,-1
 11 -181 l 17,15,16
 310 -181 310 -181 378 141 c 2,17,-1
 448 472 l 2,18,19
 495 696 495 696 748 765 c 1,20,21
 571 813 571 813 571 1003 c 0,22,23
 571 1057 571 1057 585 1121 c 2,24,-1
 643 1389 l 2,25,26
 656 1450 656 1450 656 1499 c 0,27,28
 656 1711 656 1711 413 1711 c 9,29,-1
 436 1818 l 17,0,1
EndSplineSet
Validated: 1
EndChar

StartChar: asciitilde
Encoding: 126 126 92
Width: 1228
GlyphClass: 2
Flags: W
HStem: 578 148<822.342 1004.31> 787 146<544.35 714.417>
VStem: 295 188<629.73 712.181> 1066 188<798.819 881.27>
LayerCount: 2
Fore
SplineSet
295 634 m 1,0,1
 359 933 359 933 556 933 c 0,2,3
 732 933 732 933 807 793 c 0,4,5
 843 726 843 726 934 726 c 0,6,7
 1022 726 1022 726 1066 933 c 1,8,-1
 1254 877 l 1,9,10
 1190 578 1190 578 985 578 c 0,11,12
 787 578 787 578 730 714 c 0,13,14
 700 787 700 787 617 787 c 0,15,16
 527 787 527 787 483 578 c 1,17,-1
 295 634 l 1,0,1
EndSplineSet
Validated: 1
EndChar

StartChar: exclamdown
Encoding: 161 161 94
Width: 742
GlyphClass: 2
Flags: W
HStem: -410 21G<164 407.212> 866 255<489.619 674.381>
VStem: 451 262<903.468 1083.51>
LayerCount: 2
Fore
SplineSet
609 1121 m 0,0,1
 713 1120 713 1120 713 1035 c 0,2,3
 713 866 713 866 555 866 c 0,4,5
 451 866 451 866 451 953 c 0,6,7
 451 1121 451 1121 609 1121 c 0,0,1
404 -410 m 1,8,-1
 164 -410 l 1,9,-1
 470 748 l 1,10,-1
 590 748 l 1,11,-1
 404 -410 l 1,8,-1
EndSplineSet
Validated: 1
EndChar

StartChar: cent
Encoding: 162 162 95
Width: 1166
GlyphClass: 2
Flags: W
HStem: -20 107<436.812 529 652 750.391> 1015 105<662.395 747 870 968.09>
VStem: 215 173<131.386 484.703> 493 100<-188 -88> 805 100<1182 1282> 1019 182<841 969.887>
DStem2: 109.717 -188 290.147 -188 0.207912 0.978148<478.433 1077.47> 493 -188 593 -188 0.207912 0.978148<20.7912 172.792 304.005 1223.65 1355.84 1502.75>
LayerCount: 2
Fore
SplineSet
476 -20 m 0,0,1
 215 -20 215 -20 215 237 c 0,2,3
 215 308 215 308 233 392 c 2,4,-1
 280 612 l 2,5,6
 371 1036 371 1036 768 1106 c 1,7,-1
 805 1282 l 1,8,-1
 905 1282 l 1,9,-1
 870 1118 l 1,10,11
 902 1120 902 1120 936 1120 c 0,12,13
 1201 1120 1201 1120 1201 865 c 0,14,15
 1201 853 1201 853 1200 841 c 1,16,-1
 1011 790 l 1,17,18
 1019 828 1019 828 1019 860 c 0,19,20
 1019 1001 1019 1001 848 1015 c 1,21,-1
 652 89 l 1,22,23
 811 119 811 119 894 337 c 1,24,-1
 1089 359 l 1,25,26
 970 47 970 47 631 -8 c 1,27,-1
 593 -188 l 1,28,-1
 493 -188 l 1,29,-1
 529 -19 l 1,30,31
 503 -20 503 -20 476 -20 c 0,0,1
551 87 m 1,32,-1
 747 1009 l 1,33,34
 534 961 534 961 460 612 c 2,35,-1
 396 310 l 2,36,37
 388 272 388 272 388 241 c 0,38,39
 388 105 388 105 551 87 c 1,32,-1
EndSplineSet
Validated: 1
EndChar

StartChar: sterling
Encoding: 163 163 96
Width: 1280
GlyphClass: 2
Flags: W
HStem: 0 127<435 1104.88> 1406 124<824.923 1231.96>
VStem: 1147 204<1231 1370.7>
DStem2: 220.233 0 420.233 0 0.207912 0.978148<171.327 707.393 878.813 1298.17>
LayerCount: 2
Fore
SplineSet
150 0 m 1,0,1
 245 118 245 118 284 300 c 2,2,-1
 367 692 l 1,3,4
 314 692 314 692 248 637 c 1,5,-1
 280 784 l 1,6,7
 341 819 341 819 394 819 c 1,8,-1
 434 1009 l 2,9,10
 545 1530 545 1530 1109 1530 c 0,11,12
 1351 1530 1351 1530 1351 1269 c 0,13,14
 1351 1251 1351 1251 1350 1231 c 1,15,-1
 1138 1176 l 1,16,17
 1147 1220 1147 1220 1147 1256 c 0,18,19
 1147 1406 1147 1406 981 1406 c 0,20,21
 719 1406 719 1406 638 1026 c 2,22,-1
 594 819 l 1,23,24
 754 819 754 819 909 889 c 9,25,-1
 878 742 l 17,26,27
 746 692 746 692 567 692 c 1,28,-1
 484 300 l 2,29,30
 463 201 463 201 435 127 c 1,31,-1
 857 127 l 2,32,33
 1005 127 1005 127 1172 197 c 1,34,-1
 1141 50 l 1,35,36
 1017 0 1017 0 830 0 c 2,37,-1
 150 0 l 1,0,1
EndSplineSet
Validated: 1
EndChar

StartChar: currency
Encoding: 164 164 97
Width: 1420
GlyphClass: 2
Flags: W
HStem: 237 124<574.934 961.865> 1113 124<772.311 1158.26>
VStem: 303 197<431.121 754.671> 1233 199<718.604 1043.32>
DStem2: 218 318 329 177 0.771461 0.636277<0 160.432 1374.77 1534.56> 567 1297 396 1156 0.618707 -0.785622<4.97373 180.76 1069.07 1246.15>
LayerCount: 2
Fore
SplineSet
954 1113 m 0,0,1
 611 1113 611 1113 508 622 c 16,2,3
 500 584 500 584 500 552 c 0,4,5
 500 361 500 361 780 361 c 0,6,7
 1122 361 1122 361 1225 852 c 16,8,9
 1233 890 1233 890 1233 922 c 0,10,11
 1233 1113 1233 1113 954 1113 c 0,0,1
567 1297 m 1,12,-1
 680 1155 l 1,13,14
 846 1237 846 1237 1082 1237 c 0,15,16
 1192 1237 1192 1237 1276 1191 c 1,17,-1
 1405 1297 l 1,18,-1
 1516 1156 l 1,19,-1
 1406 1064 l 1,20,21
 1432 1003 1432 1003 1432 927 c 0,22,23
 1432 853 1432 853 1407 765 c 0,24,25
 1354 578 1354 578 1233 451 c 1,26,-1
 1338 318 l 1,27,-1
 1167 177 l 1,28,-1
 1055 319 l 1,29,30
 889 237 889 237 651 237 c 0,31,32
 541 237 541 237 458 283 c 1,33,-1
 329 177 l 1,34,-1
 218 318 l 1,35,-1
 328 410 l 1,36,37
 303 474 303 474 303 551 c 0,38,39
 303 624 303 624 326 709 c 0,40,41
 375 890 375 890 500 1023 c 1,42,-1
 396 1156 l 1,43,-1
 567 1297 l 1,12,-1
EndSplineSet
Validated: 1
EndChar

StartChar: yen
Encoding: 165 165 98
Width: 1475
GlyphClass: 2
Flags: W
HStem: 0 21G<638 842.26> 537 120<365 699 1057 1380> 795 120<419 618 846 991 1246 1435> 1490 20G<432 630.286 1481.88 1685>
VStem: 432 192<1318 1510> 638 200<0 200> 1496 189<1321 1510>
DStem2: 624 1510 432 1510 0.298763 -0.954327<0 566.032 748.669 836.449> 638 0 838 0 0.207912 0.978148<41.5823 518.375>
LayerCount: 2
Fore
SplineSet
638 0 m 1,0,-1
 746 507 l 1,1,-1
 736 537 l 1,2,-1
 338 537 l 1,3,-1
 365 657 l 1,4,-1
 699 657 l 1,5,-1
 656 795 l 1,6,-1
 393 795 l 1,7,-1
 419 915 l 1,8,-1
 618 915 l 1,9,-1
 432 1510 l 1,10,-1
 624 1510 l 1,11,-1
 811 915 l 1,12,-1
 1076 915 l 1,13,-1
 1496 1510 l 1,14,-1
 1685 1510 l 1,15,-1
 1246 915 l 1,16,-1
 1460 915 l 1,17,-1
 1435 795 l 1,18,-1
 1158 795 l 1,19,-1
 1057 657 l 1,20,-1
 1406 657 l 1,21,-1
 1380 537 l 1,22,-1
 968 537 l 1,23,-1
 946 507 l 1,24,-1
 838 0 l 1,25,-1
 638 0 l 1,0,-1
846 795 m 1,26,-1
 892 651 l 1,27,-1
 897 651 l 1,28,-1
 991 795 l 1,29,-1
 846 795 l 1,26,-1
EndSplineSet
Validated: 1
EndChar

StartChar: brokenbar
Encoding: 166 166 99
Width: 661
GlyphClass: 2
Flags: W
VStem: 210 161<-186 -25> 393 161<511 672> 428 161<837 998> 610 161<1534 1695>
DStem2: 210 -186 371 -186 0.207912 0.978148<33.4738 877.298 1079.44 1923.06>
LayerCount: 2
Fore
SplineSet
210 -186 m 1,0,-1
 393 672 l 1,1,-1
 554 672 l 1,2,-1
 371 -186 l 1,3,-1
 210 -186 l 1,0,-1
428 837 m 1,4,-1
 610 1695 l 1,5,-1
 771 1695 l 1,6,-1
 589 837 l 1,7,-1
 428 837 l 1,4,-1
EndSplineSet
Validated: 1
EndChar

StartChar: section
Encoding: 167 167 100
Width: 1110
GlyphClass: 2
Flags: W
HStem: -20 116<465.331 751.77> 434 120<526.604 819.26> 956 120<611.74 904.396> 1414 116<679.23 965.669>
VStem: 246 184<132.833 267> 298 184<594.893 844.376> 403 182<1103.68 1313.48> 846 182<196.516 406.322> 949 184<665.624 915.107> 1001 184<1243 1377.17>
LayerCount: 2
Fore
SplineSet
473 -20 m 0,0,1
 246 -20 246 -20 246 224 c 0,2,3
 246 245 246 245 248 267 c 1,4,-1
 439 319 l 1,5,6
 430 278 430 278 430 244 c 0,7,8
 430 96 430 96 599 96 c 0,9,10
 799 96 799 96 843 301 c 16,11,12
 846 316 846 316 846 330 c 0,13,14
 846 434 846 434 658 434 c 0,15,16
 298 434 298 434 298 660 c 0,17,18
 298 696 298 696 307 737 c 8,19,20
 335 865 335 865 413 951 c 1,21,-1
 545 887 l 1,22,23
 508 832 508 832 488 741 c 16,24,25
 482 714 482 714 482 690 c 0,26,27
 482 554 482 554 686 554 c 0,28,29
 1028 554 1028 554 1028 354 c 0,30,31
 1028 313 1028 313 1014 264 c 0,32,33
 969 109 969 109 788 33 c 0,34,35
 662 -20 662 -20 473 -20 c 0,0,1
958 1530 m 0,36,37
 1185 1530 1185 1530 1185 1286 c 0,38,39
 1185 1265 1185 1265 1183 1243 c 1,40,-1
 992 1191 l 1,41,42
 1001 1232 1001 1232 1001 1266 c 0,43,44
 1001 1414 1001 1414 832 1414 c 0,45,46
 632 1414 632 1414 588 1209 c 16,47,48
 585 1194 585 1194 585 1180 c 0,49,50
 585 1076 585 1076 773 1076 c 0,51,52
 1133 1076 1133 1076 1133 850 c 0,53,54
 1133 814 1133 814 1124 773 c 8,55,56
 1096 645 1096 645 1018 559 c 1,57,-1
 886 623 l 1,58,59
 923 678 923 678 943 769 c 16,60,61
 949 796 949 796 949 820 c 0,62,63
 949 956 949 956 745 956 c 0,64,65
 403 956 403 956 403 1156 c 0,66,67
 403 1197 403 1197 417 1246 c 0,68,69
 462 1401 462 1401 643 1477 c 0,70,71
 769 1530 769 1530 958 1530 c 0,36,37
EndSplineSet
Validated: 1
EndChar

StartChar: dieresis
Encoding: 168 168 101
Width: 679
GlyphClass: 2
Flags: W
HStem: 1301 229<381.534 547.094 733.534 899.094>
VStem: 347 235<1336.21 1495.91> 699 235<1336.21 1495.91>
LayerCount: 2
Fore
SplineSet
840 1530 m 0,0,1
 934 1530 934 1530 934 1452 c 0,2,3
 934 1436 934 1436 930 1416 c 0,4,5
 906 1301 906 1301 792 1301 c 0,6,7
 699 1301 699 1301 699 1379 c 0,8,9
 699 1396 699 1396 703 1416 c 0,10,11
 726 1530 726 1530 840 1530 c 0,0,1
488 1530 m 0,12,13
 582 1530 582 1530 582 1452 c 0,14,15
 582 1436 582 1436 578 1416 c 0,16,17
 554 1301 554 1301 440 1301 c 0,18,19
 347 1301 347 1301 347 1379 c 0,20,21
 347 1396 347 1396 351 1416 c 0,22,23
 374 1530 374 1530 488 1530 c 0,12,13
EndSplineSet
Validated: 1
EndChar

StartChar: copyright
Encoding: 169 169 102
Width: 1396
GlyphClass: 2
Flags: W
HStem: 191 74<585.408 978.873> 339 113<680.322 905.192> 1052 112<816.703 1022.96> 1257 74<740.768 1134.47>
VStem: 304 72<485.34 878.297> 528 144<465.871 621.281> 974 158<530.04 633> 1037 154<929 1036.84> 1344 72<643.703 1036.66>
DStem2: 446.987 191 597.204 191 0.207912 0.978148<377.795 866.025>
LayerCount: 2
Fore
SplineSet
763 265 m 0,0,1
 982 265 982 265 1133 389 c 0,2,3
 1305 531 1305 531 1337 761 c 0,4,5
 1344 809 1344 809 1344 853 c 0,6,7
 1344 1013 1344 1013 1257 1122 c 0,8,9
 1151 1257 1151 1257 956 1257 c 0,10,11
 737 1257 737 1257 587 1133 c 0,12,13
 415 991 415 991 383 761 c 0,14,15
 376 713 376 713 376 669 c 0,16,17
 376 509 376 509 463 400 c 0,18,19
 569 265 569 265 763 265 c 0,0,1
749 191 m 0,20,21
 526 191 526 191 404 346 c 0,22,23
 304 471 304 471 304 655 c 0,24,25
 304 706 304 706 312 761 c 0,26,27
 348 1026 348 1026 546 1189 c 0,28,29
 719 1331 719 1331 971 1331 c 0,30,31
 1194 1331 1194 1331 1316 1176 c 0,32,33
 1416 1051 1416 1051 1416 867 c 0,34,35
 1416 816 1416 816 1408 761 c 0,36,37
 1372 496 1372 496 1174 333 c 0,38,39
 1001 191 1001 191 749 191 c 0,20,21
1132 652 m 1,40,41
 1065 339 1065 339 715 339 c 0,42,43
 528 339 528 339 528 524 c 0,44,45
 528 574 528 574 542 638 c 2,46,-1
 584 835 l 2,47,48
 654 1164 654 1164 1000 1164 c 0,49,50
 1191 1164 1191 1164 1191 955 c 0,51,52
 1191 943 1191 943 1190 929 c 1,53,-1
 1030 887 l 1,54,55
 1037 920 1037 920 1037 947 c 0,56,57
 1037 1052 1037 1052 927 1052 c 0,58,59
 780 1052 780 1052 734 835 c 2,60,-1
 675 557 l 2,61,62
 672 542 672 542 672 529 c 0,63,64
 672 452 672 452 785 452 c 0,65,66
 935 452 935 452 974 633 c 1,67,-1
 1132 652 l 1,40,41
EndSplineSet
Validated: 1
EndChar

StartChar: ordfeminine
Encoding: 170 170 103
Width: 735
GlyphClass: 2
Flags: W
HStem: 693 150<229 832> 918 115<455.006 629.053> 1426 104<621.244 824>
VStem: 350 145<1007.5 1146.13> 679 153<919.22 1113.5> 746 150<1286.81 1423.58>
LayerCount: 2
Fore
SplineSet
752 1530 m 0,0,1
 896 1530 896 1530 896 1391 c 0,2,3
 896 1355 896 1355 886 1310 c 2,4,-1
 839 1090 l 2,5,6
 832 1059 832 1059 832 1027 c 0,7,8
 832 973 832 973 852 918 c 1,9,-1
 685 918 l 1,10,11
 679 941 679 941 679 974 c 0,12,13
 679 992 679 992 681 1013 c 1,14,15
 589 908 589 908 493 908 c 0,16,17
 415 908 415 908 377 953 c 0,18,19
 350 985 350 985 350 1030 c 0,20,21
 350 1062 350 1062 363 1100 c 0,22,23
 418 1260 418 1260 731 1285 c 1,24,-1
 740 1326 l 2,25,26
 746 1355 746 1355 746 1376 c 0,27,28
 746 1426 746 1426 709 1426 c 0,29,30
 640 1426 640 1426 576 1323 c 1,31,-1
 465 1373 l 1,32,33
 590 1530 590 1530 752 1530 c 0,0,1
697 1200 m 1,34,35
 527 1193 527 1193 496 1069 c 16,36,37
 495 1065 495 1065 495 1061 c 0,38,39
 495 1033 495 1033 545 1033 c 0,40,41
 611 1033 611 1033 667 1122 c 0,42,43
 685 1150 685 1150 697 1200 c 1,34,35
832 693 m 1,44,-1
 197 693 l 1,45,-1
 229 843 l 1,46,-1
 864 843 l 1,47,-1
 832 693 l 1,44,-1
EndSplineSet
Validated: 1
EndChar

StartChar: guillemotleft
Encoding: 171 171 104
Width: 1410
GlyphClass: 2
Flags: W
DStem2: 465 763 293 672 0.596945 -0.802282<0 479.791> 332 853 465 763 0.759089 0.650987<42.37 644.787> 1002 763 830 672 0.596945 -0.802282<0 479.791> 869 853 1002 763 0.759089 0.650987<42.37 644.787>
LayerCount: 2
Fore
SplineSet
1508 1401 m 1,0,-1
 1456 1159 l 1,1,-1
 1002 763 l 1,2,-1
 1291 380 l 1,3,-1
 1237 125 l 1,4,-1
 830 672 l 1,5,-1
 869 853 l 1,6,-1
 1508 1401 l 1,0,-1
971 1401 m 1,7,-1
 919 1159 l 1,8,-1
 465 763 l 1,9,-1
 754 380 l 1,10,-1
 700 125 l 1,11,-1
 293 672 l 1,12,-1
 332 853 l 1,13,-1
 971 1401 l 1,7,-1
EndSplineSet
Validated: 1
EndChar

StartChar: logicalnot
Encoding: 172 172 105
Width: 1183
GlyphClass: 2
Flags: W
HStem: 693 150<329 1030>
VStem: 976 150<436 586>
DStem2: 976 436 1126 436 0.207912 0.978148<31.1868 262.611>
LayerCount: 2
Fore
SplineSet
1126 436 m 1,0,-1
 976 436 l 1,1,-1
 1030 693 l 1,2,-1
 297 693 l 1,3,-1
 329 843 l 1,4,-1
 1212 843 l 1,5,-1
 1126 436 l 1,0,-1
EndSplineSet
Validated: 1
EndChar

StartChar: uni00AD
Encoding: 173 173 106
Width: 1183
GlyphClass: 2
Flags: W
HStem: 693 150<329 1180>
LayerCount: 2
Fore
SplineSet
1180 693 m 1,0,-1
 297 693 l 1,1,-1
 329 843 l 1,2,-1
 1212 843 l 1,3,-1
 1180 693 l 1,0,-1
EndSplineSet
Validated: 1
EndChar

StartChar: registered
Encoding: 174 174 107
Width: 1396
GlyphClass: 2
Flags: W
HStem: 191 74<585.408 980.444> 599 113<768 931.484> 1036 114<826.84 1035.85> 1257 74<740.768 1134.47>
VStem: 304 72<485.34 878.492> 540 150<345 495> 922 152<359.772 557.03> 935 157<427.247 594.941> 1045 151<814.477 1023.4> 1344 72<643.508 1036.66>
DStem2: 507.266 191 657.266 191 0.207912 0.978148<188.627 448.304 563.824 863.694>
LayerCount: 2
Fore
SplineSet
540 345 m 1,0,-1
 674 975 l 2,1,2
 681 1008 681 1008 681 1038 c 0,3,4
 681 1094 681 1094 659 1150 c 1,5,-1
 1001 1150 l 2,6,7
 1196 1150 1196 1150 1196 995 c 0,8,9
 1196 930 1196 930 1163 841 c 0,10,11
 1120 725 1120 725 996 671 c 1,12,13
 1092 647 1092 647 1092 573 c 0,14,15
 1092 551 1092 551 1084 524 c 0,16,17
 1074 494 1074 494 1074 439 c 0,18,19
 1074 394 1074 394 1093 359 c 1,20,21
 1114 373 1114 373 1133 389 c 0,22,23
 1303 530 1303 530 1337 761 c 0,24,25
 1344 809 1344 809 1344 853 c 0,26,27
 1344 1013 1344 1013 1257 1122 c 0,28,29
 1151 1257 1151 1257 956 1257 c 0,30,31
 737 1257 737 1257 587 1133 c 0,32,33
 417 992 417 992 383 761 c 0,34,35
 376 713 376 713 376 669 c 0,36,37
 376 509 376 509 463 400 c 0,38,39
 569 265 569 265 763 265 c 0,40,41
 939 265 939 265 1071 345 c 1,42,-1
 928 345 l 1,43,44
 922 375 922 375 922 412 c 0,45,46
 922 469 922 469 933 524 c 0,47,48
 935 534 935 534 935 542 c 0,49,50
 935 599 935 599 854 599 c 2,51,-1
 744 599 l 1,52,-1
 690 345 l 1,53,-1
 540 345 l 1,0,-1
768 712 m 1,54,-1
 850 712 l 2,55,56
 996 712 996 712 1042 932 c 0,57,58
 1045 946 1045 946 1045 958 c 0,59,60
 1045 1036 1045 1036 925 1036 c 2,61,-1
 834 1036 l 1,62,63
 828 997 828 997 824 976 c 2,64,-1
 768 712 l 1,54,-1
971 1331 m 0,65,66
 1194 1331 1194 1331 1316 1176 c 0,67,68
 1416 1051 1416 1051 1416 867 c 0,69,70
 1416 816 1416 816 1408 761 c 0,71,72
 1372 496 1372 496 1174 333 c 0,73,74
 1001 191 1001 191 749 191 c 0,75,76
 526 191 526 191 404 346 c 0,77,78
 304 471 304 471 304 655 c 0,79,80
 304 706 304 706 312 761 c 0,81,82
 348 1026 348 1026 546 1189 c 0,83,84
 719 1331 719 1331 971 1331 c 0,65,66
EndSplineSet
Validated: 1
EndChar

StartChar: macron
Encoding: 175 175 108
Width: 672
GlyphClass: 2
Flags: W
HStem: 1292 127<352 897>
VStem: 325 599
LayerCount: 2
Fore
SplineSet
352 1419 m 17,0,-1
 924 1419 l 1,1,-1
 897 1292 l 1,2,-1
 325 1292 l 9,3,-1
 352 1419 l 17,0,-1
EndSplineSet
Validated: 1
EndChar

StartChar: degree
Encoding: 176 176 109
Width: 682
GlyphClass: 2
Flags: W
HStem: 983 96<447.632 679.182> 1434 96<535.584 768.329>
VStem: 300 136<1093.22 1314.77> 780 136<1198.64 1419.7>
LayerCount: 2
Fore
SplineSet
562 1079 m 0,0,1
 723 1079 723 1079 776 1317 c 0,2,3
 780 1335 780 1335 780 1348 c 0,4,5
 780 1434 780 1434 653 1434 c 0,6,7
 493 1434 493 1434 440 1196 c 0,8,9
 436 1178 436 1178 436 1164 c 0,10,11
 436 1079 436 1079 562 1079 c 0,0,1
721 1530 m 0,12,13
 916 1530 916 1530 916 1369 c 0,14,15
 916 1323 916 1323 900 1263 c 0,16,17
 860 1112 860 1112 736 1038 c 0,18,19
 644 983 644 983 495 983 c 0,20,21
 300 983 300 983 300 1144 c 0,22,23
 300 1190 300 1190 316 1250 c 0,24,25
 357 1403 357 1403 483 1478 c 0,26,27
 571 1530 571 1530 721 1530 c 0,12,13
EndSplineSet
Validated: 1
EndChar

StartChar: plusminus
Encoding: 177 177 110
Width: 1183
GlyphClass: 2
Flags: W
HStem: 215 150<228 1079> 782 150<348 682 864 1199>
VStem: 604 150<415 565> 792 150<1148 1298>
DStem2: 561.489 215 711.489 215 0.207912 0.978148<235.655 579.665 764.227 1107.26>
LayerCount: 2
Fore
SplineSet
1079 215 m 1,0,-1
 196 215 l 1,1,-1
 228 365 l 1,2,-1
 1111 365 l 1,3,-1
 1079 215 l 1,0,-1
604 415 m 1,4,-1
 682 782 l 1,5,-1
 316 782 l 1,6,-1
 348 932 l 1,7,-1
 714 932 l 1,8,-1
 792 1298 l 1,9,-1
 942 1298 l 1,10,-1
 864 932 l 1,11,-1
 1231 932 l 1,12,-1
 1199 782 l 1,13,-1
 832 782 l 1,14,-1
 754 415 l 1,15,-1
 604 415 l 1,4,-1
EndSplineSet
Validated: 1
EndChar

StartChar: uni00B2
Encoding: 178 178 111
Width: 645
GlyphClass: 2
Flags: W
HStem: 823 113<403 765.279> 1148 114<478.471 687.318> 1525 113<458.447 739.027>
VStem: 749 151<1326.84 1509.38>
LayerCount: 2
Fore
SplineSet
652 1638 m 2,0,-1
 704 1638 l 2,1,2
 900 1638 900 1638 900 1470 c 0,3,4
 900 1425 900 1425 886 1367 c 0,5,6
 859 1258 859 1258 762 1197 c 0,7,8
 683 1148 683 1148 561 1148 c 0,9,10
 452 1148 452 1148 403 936 c 1,11,-1
 609 936 l 2,12,13
 735 936 735 936 796 986 c 1,14,-1
 768 856 l 1,15,16
 681 823 681 823 585 823 c 2,17,-1
 225 823 l 1,18,19
 318 1262 318 1262 556 1262 c 0,20,21
 712 1262 712 1262 746 1420 c 16,22,23
 749 1434 749 1434 749 1447 c 0,24,25
 749 1525 749 1525 630 1525 c 2,26,-1
 613 1525 l 2,27,28
 530 1525 530 1525 428 1476 c 1,29,-1
 456 1607 l 1,30,31
 534 1638 534 1638 652 1638 c 2,0,-1
EndSplineSet
Validated: 1
EndChar

StartChar: uni00B3
Encoding: 179 179 112
Width: 682
GlyphClass: 2
Flags: W
HStem: 824 118<440.577 651.823> 1081 20G<356.439 430.5> 1216 114<469 686.512> 1525 113<498.878 751.703>
VStem: 272 155<956.442 1060> 726 150<1021.15 1203.22> 753 148<1390.31 1521.52>
LayerCount: 2
Fore
SplineSet
692 1638 m 2,0,-1
 706 1638 l 2,1,2
 901 1638 901 1638 901 1510 c 0,3,4
 901 1486 901 1486 894 1457 c 8,5,6
 870 1359 870 1359 734 1308 c 1,7,8
 876 1290 876 1290 876 1166 c 0,9,10
 876 1126 876 1126 861 1075 c 0,11,12
 826 951 826 951 713 883 c 0,13,14
 616 824 616 824 465 824 c 0,15,16
 272 824 272 824 272 1012 c 0,17,18
 272 1035 272 1035 275 1060 c 1,19,-1
 434 1101 l 1,20,21
 427 1069 427 1069 427 1043 c 0,22,23
 427 942 427 942 533 942 c 0,24,25
 678 942 678 942 723 1120 c 0,26,27
 726 1132 726 1132 726 1145 c 0,28,29
 726 1216 726 1216 604 1216 c 2,30,-1
 444 1216 l 1,31,-1
 469 1330 l 1,32,33
 729 1331 729 1331 752 1469 c 16,34,35
 753 1475 753 1475 753 1481 c 0,36,37
 753 1525 753 1525 668 1525 c 2,38,-1
 653 1525 l 2,39,40
 565 1525 565 1525 468 1476 c 1,41,-1
 496 1607 l 1,42,43
 588 1638 588 1638 692 1638 c 2,0,-1
EndSplineSet
Validated: 1
EndChar

StartChar: acute
Encoding: 180 180 113
Width: 469
GlyphClass: 2
Flags: W
HStem: 1170 360
VStem: 319 396
LayerCount: 2
Fore
SplineSet
603 1530 m 1,0,-1
 715 1392 l 1,1,-1
 399 1170 l 1,2,-1
 319 1267 l 1,3,-1
 603 1530 l 1,0,-1
EndSplineSet
Validated: 1
EndChar

StartChar: uni00B5
Encoding: 181 181 114
Width: 1238
GlyphClass: 2
Flags: W
HStem: -410 21G<113 292.265> -20 130<458.423 681.564> 0 21G<906 1102> 1080 20G<370 566 1092.65 1272>
VStem: 113 175<-410 -235> 390 180<709.195 1098.26> 902 179<1.69043 291.32>
DStem2: 113 -410 288 -410 0.207912 0.978148<36.3845 467.875 706.872 1390.89> 775.36 -410 951.148 -410 0.207912 0.978148<607.192 719.728 969.789 1543.88>
LayerCount: 2
Fore
SplineSet
1102 0 m 1,0,1
 910 0 l 1,2,3
 902 44 902 44 902 96 c 0,4,5
 902 184 902 184 925 294 c 1,6,7
 779 -20 779 -20 485 -20 c 0,8,9
 405 -20 405 -20 378 12 c 1,10,-1
 288 -410 l 1,11,-1
 113 -410 l 1,12,-1
 371 805 l 2,13,14
 390 894 390 894 390 955 c 0,15,16
 390 1034 390 1034 370 1100 c 1,17,-1
 562 1100 l 1,18,19
 570 1055 570 1055 570 1004 c 0,20,21
 570 918 570 918 546 805 c 2,22,-1
 445 329 l 2,23,24
 435 282 435 282 435 243 c 0,25,26
 435 110 435 110 563 110 c 0,27,28
 882 110 882 110 1082 1031 c 2,29,-1
 1097 1100 l 1,30,-1
 1272 1100 l 1,31,-1
 1101 295 l 2,32,33
 1081 201 1081 201 1081 144 c 0,34,35
 1081 64 1081 64 1102 0 c 1,0,1
EndSplineSet
Validated: 1
EndChar

StartChar: paragraph
Encoding: 182 182 115
Width: 1183
GlyphClass: 2
Flags: W
HStem: 0 21G<726 814.248 897 987.248> 1490 20G<663.5 1374>
VStem: 726 84<0 84> 897 86<0 86>
DStem2: 726 0 810 0 0.207912 0.978148<17.4646 519.353> 897 0 983 0 0.207912 0.978148<17.8804 1302.33>
LayerCount: 2
Fore
SplineSet
983 0 m 1,0,-1
 897 0 l 1,1,-1
 1168 1276 l 1,2,-1
 1081 1276 l 1,3,-1
 810 0 l 1,4,-1
 726 0 l 1,5,-1
 834 508 l 1,6,-1
 823 508 l 2,7,8
 345 508 345 508 345 920 c 0,9,10
 345 1012 345 1012 369 1125 c 8,11,12
 451 1510 451 1510 876 1510 c 2,13,-1
 1374 1510 l 1,14,15
 1271 1357 1271 1357 1240 1210 c 2,16,-1
 983 0 l 1,0,-1
EndSplineSet
Validated: 1
EndChar

StartChar: periodcentered
Encoding: 183 183 116
Width: 345
GlyphClass: 2
Flags: W
HStem: 636 255<242.619 427.381>
VStem: 204 262<673.488 853.532>
LayerCount: 2
Fore
SplineSet
362 891 m 0,0,1
 466 891 466 891 466 804 c 0,2,3
 466 636 466 636 308 636 c 0,4,5
 204 637 204 637 204 722 c 0,6,7
 204 891 204 891 362 891 c 0,0,1
EndSplineSet
Validated: 1
EndChar

StartChar: cedilla
Encoding: 184 184 117
Width: 383
GlyphClass: 2
Flags: W
HStem: -430 126<-5 150.578> -20 20G<85 189>
VStem: 82 104<-97.8965 0> 164 120<-280.586 -148.508>
LayerCount: 2
Fore
SplineSet
88 0 m 1,0,-1
 189 0 l 1,1,2
 186 -13 186 -13 186 -25 c 0,3,4
 186 -68 186 -68 223 -93 c 0,5,6
 284 -134 284 -134 284 -210 c 0,7,8
 284 -233 284 -233 278 -260 c 0,9,10
 242 -430 242 -430 -5 -430 c 1,11,-1
 -15 -304 l 1,12,13
 148 -304 148 -304 163 -236 c 0,14,15
 164 -229 164 -229 164 -222 c 0,16,17
 164 -186 164 -186 125 -153 c 0,18,19
 82 -118 82 -118 82 -53 c 0,20,21
 82 -29 82 -29 88 0 c 1,0,-1
EndSplineSet
Validated: 1
EndChar

StartChar: uni00B9
Encoding: 185 185 118
Width: 368
GlyphClass: 2
Flags: W
HStem: 1524 114<398 485>
VStem: 345 150<833 983> 485 157<1315.34 1524>
DStem2: 345 833 495 833 0.207912 0.978148<31.1868 703.912>
LayerCount: 2
Fore
SplineSet
398 1638 m 1,0,-1
 631 1638 l 1,1,2
 642 1611 642 1611 642 1570 c 0,3,4
 642 1525 642 1525 629 1463 c 2,5,-1
 495 833 l 1,6,-1
 345 833 l 1,7,-1
 479 1463 l 2,8,9
 485 1494 485 1494 485 1524 c 1,10,-1
 374 1524 l 1,11,-1
 398 1638 l 1,0,-1
EndSplineSet
Validated: 1
EndChar

StartChar: ordmasculine
Encoding: 186 186 119
Width: 724
GlyphClass: 2
Flags: W
HStem: 693 150<229 821> 911 112<424.609 660.424> 1418 112<583.418 820.5>
VStem: 351 146<1027.35 1292.32> 746 148<1149.48 1413.74>
DStem2: 263.011 693 412.639 693 0.207912 0.978148<427.529 759.116> 606.359 693 756.359 693 0.207912 0.978148<356.617 682.129>
LayerCount: 2
Fore
SplineSet
821 693 m 1,0,-1
 197 693 l 1,1,-1
 229 843 l 1,2,-1
 853 843 l 1,3,-1
 821 693 l 1,0,-1
670 1418 m 8,4,5
 566 1418 566 1418 531 1252 c 2,6,-1
 500 1104 l 2,7,8
 497 1091 497 1091 497 1080 c 0,9,10
 497 1023 497 1023 575 1023 c 8,11,12
 676 1023 676 1023 712 1190 c 2,13,-1
 743 1338 l 2,14,15
 746 1351 746 1351 746 1361 c 0,16,17
 746 1418 746 1418 670 1418 c 8,4,5
747 1530 m 0,18,19
 894 1530 894 1530 894 1382 c 0,20,21
 894 1341 894 1341 883 1288 c 2,22,-1
 862 1190 l 2,23,24
 802 911 802 911 502 911 c 0,25,26
 351 911 351 911 351 1064 c 0,27,28
 351 1104 351 1104 361 1154 c 2,29,-1
 381 1252 l 2,30,31
 438 1530 438 1530 747 1530 c 0,18,19
EndSplineSet
Validated: 1
EndChar

StartChar: guillemotright
Encoding: 187 187 120
Width: 1410
GlyphClass: 2
Flags: W
DStem2: 279 367 227 125 0.759089 0.650987<0 602.417> 498 1401 444 1146 0.596945 -0.802282<172.347 652.138> 815 367 763 125 0.759089 0.650987<0 602.417> 1034 1401 980 1146 0.596945 -0.802282<172.347 652.138>
LayerCount: 2
Fore
SplineSet
498 1401 m 1,0,-1
 905 854 l 1,1,-1
 866 673 l 1,2,-1
 227 125 l 1,3,-1
 279 367 l 1,4,-1
 733 763 l 1,5,-1
 444 1146 l 1,6,-1
 498 1401 l 1,0,-1
1034 1401 m 1,7,-1
 1441 854 l 1,8,-1
 1402 673 l 1,9,-1
 763 125 l 1,10,-1
 815 367 l 1,11,-1
 1269 763 l 1,12,-1
 980 1146 l 1,13,-1
 1034 1401 l 1,7,-1
EndSplineSet
Validated: 1
EndChar

StartChar: questiondown
Encoding: 191 191 121
Width: 1389
GlyphClass: 2
Flags: W
HStem: -430 124<419.987 803.431> 398 128<554.039 736.637> 865 255<867.619 1052.38>
VStem: 141 203<-234.283 93.582> 806 214<668.514 755> 829 262<902.134 1082.87> 1046 221<36.2656 124>
LayerCount: 2
Fore
SplineSet
495 -430 m 0,0,1
 141 -430 141 -430 141 -144 c 0,2,3
 141 -68 141 -68 166 28 c 0,4,5
 226 259 226 259 342 386 c 0,6,7
 469 526 469 526 663 526 c 0,8,9
 757 526 757 526 806 755 c 9,10,-1
 1020 824 l 17,11,12
 929 398 929 398 694 398 c 0,13,14
 446 398 446 398 352 -42 c 16,15,16
 344 -81 344 -81 344 -114 c 0,17,18
 344 -306 344 -306 623 -306 c 0,19,20
 954 -306 954 -306 1046 124 c 9,21,-1
 1267 179 l 17,22,23
 1138 -430 1138 -430 495 -430 c 0,0,1
987 1120 m 0,24,25
 1091 1120 1091 1120 1091 1034 c 24,26,27
 1091 865 1091 865 933 865 c 0,28,29
 829 865 829 865 829 951 c 24,30,31
 829 1120 829 1120 987 1120 c 0,24,25
EndSplineSet
Validated: 1
EndChar

StartChar: multiply
Encoding: 215 215 122
Width: 1031
GlyphClass: 2
Flags: W
DStem2: 258 509 342 403 0.771136 0.636671<0 404.323 574.635 978.321> 497 1134 368 1027 0.618543 -0.785751<4.28329 329.692 469.223 795.418>
LayerCount: 2
Fore
SplineSet
860 403 m 1,0,-1
 656 662 l 1,1,-1
 342 403 l 1,2,-1
 258 509 l 1,3,-1
 572 768 l 1,4,-1
 368 1027 l 1,5,-1
 497 1134 l 1,6,-1
 701 875 l 1,7,-1
 1015 1134 l 1,8,-1
 1099 1027 l 1,9,-1
 785 768 l 1,10,-1
 989 509 l 1,11,-1
 860 403 l 1,0,-1
EndSplineSet
Validated: 1
EndChar

StartChar: divide
Encoding: 247 247 123
Width: 1183
GlyphClass: 2
Flags: W
HStem: 312 255<592.619 777.381> 693 150<329 1180> 968 255<731.619 916.381>
VStem: 554 262<349.488 529.532> 693 262<1005.49 1185.53>
LayerCount: 2
Fore
SplineSet
851 1223 m 0,0,1
 955 1223 955 1223 955 1136 c 0,2,3
 955 968 955 968 797 968 c 0,4,5
 693 969 693 969 693 1054 c 0,6,7
 693 1223 693 1223 851 1223 c 0,0,1
658 312 m 0,8,9
 554 313 554 313 554 398 c 0,10,11
 554 567 554 567 712 567 c 0,12,13
 816 567 816 567 816 480 c 0,14,15
 816 312 816 312 658 312 c 0,8,9
329 843 m 1,16,-1
 1212 843 l 1,17,-1
 1180 693 l 1,18,-1
 297 693 l 1,19,-1
 329 843 l 1,16,-1
EndSplineSet
Validated: 1
EndChar

StartChar: Lslash
Encoding: 321 321 124
Width: 1041
GlyphClass: 2
Flags: W
HStem: 0 127<427 1016.84> 1100 20G<968.09 1008.35> 1490 20G<451 675>
VStem: 478 201<1105.45 1508.26>
DStem2: 157 392 229 309 0.75336 0.657609<0 59.2083 532.26 1106.7> 200 0 400.005 0 0.207912 0.978148<171.421 355.781 538.77 617.229 800.218 1392.2>
LayerCount: 2
Fore
SplineSet
200 0 m 1,0,-1
 274 348 l 1,1,-1
 229 309 l 1,2,-1
 157 392 l 1,3,-1
 312 527 l 1,4,-1
 457 1210 l 2,5,6
 478 1309 478 1309 478 1366 c 0,7,8
 478 1449 478 1449 451 1510 c 1,9,-1
 671 1510 l 1,10,11
 679 1460 679 1460 679 1405 c 0,12,13
 679 1314 679 1314 657 1210 c 2,14,-1
 558 742 l 1,15,-1
 991 1120 l 1,16,-1
 1063 1037 l 1,17,-1
 520 563 l 1,18,-1
 427 127 l 1,19,-1
 758 127 l 2,20,21
 940 127 940 127 1073 197 c 1,22,-1
 1042 50 l 1,23,24
 910 0 910 0 731 0 c 2,25,-1
 200 0 l 1,0,-1
EndSplineSet
Validated: 1
EndChar

StartChar: lslash
Encoding: 322 322 125
Width: 701
GlyphClass: 2
Flags: W
HStem: 0 21G<298 499> 1490 20G<512 713>
VStem: 294 185<1.65979 395.109> 531 186<1119.92 1508.33>
DStem2: 115 449 187 366 0.753174 0.657822<0 236.314 676.849 932.26> 254.508 0 434.508 0 0.207912 0.978148<190.468 533.566 716.763 769.483 951.493 1391.64>
LayerCount: 2
Fore
SplineSet
302 0 m 1,0,1
 294 44 294 44 294 96 c 0,2,3
 294 186 294 186 317 294 c 2,4,-1
 365 522 l 1,5,-1
 187 366 l 1,6,-1
 115 449 l 1,7,-1
 404 701 l 1,8,-1
 513 1216 l 2,9,10
 531 1301 531 1301 531 1366 c 0,11,12
 531 1446 531 1446 512 1510 c 1,13,-1
 709 1510 l 1,14,15
 717 1467 717 1467 717 1416 c 0,16,17
 717 1329 717 1329 693 1216 c 2,18,-1
 625 894 l 1,19,-1
 818 1063 l 1,20,-1
 889 980 l 1,21,-1
 587 716 l 1,22,-1
 497 294 l 2,23,24
 479 209 479 209 479 145 c 0,25,26
 479 62 479 62 499 0 c 1,27,-1
 302 0 l 1,0,1
EndSplineSet
Validated: 1
EndChar

StartChar: endash
Encoding: 8211 8211 126
Width: 1183
GlyphClass: 2
Flags: W
HStem: 693 150<329 1180>
LayerCount: 2
Fore
SplineSet
1180 693 m 1,0,-1
 297 693 l 1,1,-1
 329 843 l 1,2,-1
 1212 843 l 1,3,-1
 1180 693 l 1,0,-1
EndSplineSet
Validated: 1
EndChar

StartChar: emdash
Encoding: 8212 8212 127
Width: 1283
GlyphClass: 2
Flags: W
HStem: 696 150<280 1331>
LayerCount: 2
Fore
SplineSet
1331 696 m 1,0,-1
 248 696 l 1,1,-1
 280 846 l 1,2,-1
 1363 846 l 1,3,-1
 1331 696 l 1,0,-1
EndSplineSet
Validated: 19457
EndChar

StartChar: afii00208
Encoding: 8213 8213 128
Width: 1283
GlyphClass: 2
Flags: W
HStem: 696 150<280 1331>
LayerCount: 2
Fore
SplineSet
1331 696 m 1,0,-1
 248 696 l 1,1,-1
 280 846 l 1,2,-1
 1363 846 l 1,3,-1
 1331 696 l 1,0,-1
EndSplineSet
Validated: 19457
EndChar

StartChar: quoteleft
Encoding: 8216 8216 129
Width: 380
GlyphClass: 2
Flags: W
HStem: 974 556
VStem: 306 165<1085.74 1329.11>
LayerCount: 2
Fore
SplineSet
592 1530 m 9,0,1
 634 1429 l 17,2,3
 493 1354 493 1354 474 1265 c 0,4,5
 471 1251 471 1251 471 1237 c 0,6,7
 471 1163 471 1163 558 1108 c 1,8,-1
 403 974 l 17,9,10
 306 1055 306 1055 306 1172 c 0,11,12
 306 1204 306 1204 314 1240 c 0,13,14
 348 1402 348 1402 592 1530 c 9,0,1
EndSplineSet
Validated: 1
EndChar

StartChar: quoteright
Encoding: 8217 8217 130
Width: 380
GlyphClass: 2
Flags: W
HStem: 974 556
VStem: 441 165<1175.56 1363.16>
LayerCount: 2
Fore
SplineSet
509 1530 m 17,0,1
 606 1449 606 1449 606 1332 c 0,2,3
 606 1300 606 1300 598 1264 c 0,4,5
 564 1102 564 1102 320 974 c 9,6,-1
 278 1075 l 17,7,8
 419 1150 419 1150 438 1239 c 0,9,10
 441 1253 441 1253 441 1267 c 0,11,12
 441 1340 441 1340 355 1396 c 1,13,-1
 509 1530 l 17,0,1
EndSplineSet
Validated: 1
EndChar

StartChar: quotesinglbase
Encoding: 8218 8218 131
Width: 380
GlyphClass: 2
Flags: W
HStem: -266 556
VStem: 178 165<-64.4355 123.56>
LayerCount: 2
Fore
SplineSet
246 290 m 17,0,1
 343 209 343 209 343 92 c 0,2,3
 343 58 343 58 336 24 c 0,4,5
 302 -138 302 -138 56 -266 c 9,6,-1
 15 -165 l 17,7,8
 156 -90 156 -90 175 -1 c 0,9,10
 178 13 178 13 178 27 c 0,11,12
 178 101 178 101 91 156 c 1,13,-1
 246 290 l 17,0,1
EndSplineSet
Validated: 1
EndChar

StartChar: quotereversed
Encoding: 8219 8219 132
Width: 380
GlyphClass: 2
Flags: W
HStem: 974 556
VStem: 313 152<1115.87 1314.77>
LayerCount: 2
Fore
SplineSet
521 1530 m 9,0,1
 619 1396 l 1,2,3
 488 1330 488 1330 468 1239 c 0,4,5
 465 1226 465 1226 465 1213 c 0,6,7
 465 1139 465 1139 558 1075 c 9,8,-1
 474 974 l 17,9,10
 313 1083 313 1083 313 1216 c 0,11,12
 313 1242 313 1242 318 1264 c 0,13,14
 352 1426 352 1426 521 1530 c 9,0,1
EndSplineSet
Validated: 1
EndChar

StartChar: quotedblleft
Encoding: 8220 8220 133
Width: 681
GlyphClass: 2
Flags: W
HStem: 974 556
VStem: 306 165<1085.74 1329.11> 607 165<1085.74 1329.11>
LayerCount: 2
Fore
SplineSet
592 1530 m 9,0,-1
 634 1429 l 17,1,2
 493 1354 493 1354 474 1265 c 0,3,4
 471 1251 471 1251 471 1237 c 0,5,6
 471 1163 471 1163 558 1108 c 1,7,-1
 403 974 l 17,8,9
 306 1055 306 1055 306 1172 c 0,10,11
 306 1204 306 1204 314 1240 c 0,12,13
 348 1402 348 1402 592 1530 c 9,0,-1
893 1530 m 9,14,-1
 935 1429 l 17,15,16
 794 1354 794 1354 775 1265 c 0,17,18
 772 1251 772 1251 772 1237 c 0,19,20
 772 1163 772 1163 859 1108 c 1,21,-1
 704 974 l 17,22,23
 607 1055 607 1055 607 1172 c 0,24,25
 607 1207 607 1207 614 1240 c 0,26,27
 648 1402 648 1402 893 1530 c 9,14,-1
EndSplineSet
Validated: 1
EndChar

StartChar: quotedblright
Encoding: 8221 8221 134
Width: 681
GlyphClass: 2
Flags: W
HStem: 974 556
VStem: 441 165<1175.56 1363.16> 742 165<1175.56 1363.16>
LayerCount: 2
Fore
SplineSet
810 1530 m 17,0,1
 907 1449 907 1449 907 1332 c 0,2,3
 907 1298 907 1298 900 1264 c 0,4,5
 866 1102 866 1102 621 974 c 9,6,-1
 579 1075 l 17,7,8
 720 1150 720 1150 739 1239 c 0,9,10
 742 1253 742 1253 742 1267 c 0,11,12
 742 1340 742 1340 656 1396 c 1,13,-1
 810 1530 l 17,0,1
509 1530 m 17,14,15
 606 1449 606 1449 606 1332 c 0,16,17
 606 1300 606 1300 598 1264 c 0,18,19
 564 1102 564 1102 320 974 c 9,20,-1
 278 1075 l 17,21,22
 419 1150 419 1150 438 1239 c 0,23,24
 441 1253 441 1253 441 1267 c 0,25,26
 441 1340 441 1340 355 1396 c 1,27,-1
 509 1530 l 17,14,15
EndSplineSet
Validated: 1
EndChar

StartChar: quotedblbase
Encoding: 8222 8222 135
Width: 681
GlyphClass: 2
Flags: W
HStem: -266 556
VStem: 178 165<-64.4355 123.56> 479 165<-64.4355 123.56>
LayerCount: 2
Fore
SplineSet
547 290 m 17,0,1
 644 209 644 209 644 92 c 0,2,3
 644 60 644 60 636 24 c 0,4,5
 602 -138 602 -138 357 -266 c 9,6,-1
 316 -165 l 17,7,8
 457 -90 457 -90 476 -1 c 0,9,10
 479 13 479 13 479 27 c 0,11,12
 479 101 479 101 392 156 c 1,13,-1
 547 290 l 17,0,1
246 290 m 17,14,15
 343 209 343 209 343 92 c 0,16,17
 343 57 343 57 336 24 c 0,18,19
 302 -138 302 -138 56 -266 c 9,20,-1
 15 -165 l 17,21,22
 156 -90 156 -90 175 -1 c 0,23,24
 178 13 178 13 178 27 c 0,25,26
 178 101 178 101 91 156 c 1,27,-1
 246 290 l 17,14,15
EndSplineSet
Validated: 1
EndChar

StartChar: dagger
Encoding: 8224 8224 136
Width: 1183
GlyphClass: 2
Flags: W
HStem: 0 21G<492 696.259> 1019 150<398 709 940 1250> 1490 20G<808.718 1013>
VStem: 492 200<0 200> 813 200<1310 1510>
DStem2: 492 0 692 0 0.207912 0.978148<41.5823 1041.85 1236.6 1543.74>
LayerCount: 2
Fore
SplineSet
492 0 m 1,0,-1
 709 1019 l 1,1,-1
 367 1019 l 1,2,-1
 398 1169 l 1,3,-1
 740 1169 l 1,4,-1
 813 1510 l 1,5,-1
 1013 1510 l 1,6,-1
 940 1169 l 1,7,-1
 1281 1169 l 1,8,-1
 1250 1019 l 1,9,-1
 909 1019 l 1,10,-1
 692 0 l 1,11,-1
 492 0 l 1,0,-1
EndSplineSet
Validated: 1
EndChar

StartChar: daggerdbl
Encoding: 8225 8225 137
Width: 1183
GlyphClass: 2
Flags: W
HStem: 0 21G<492 696.269> 342 150<255 565 797 1106> 1019 150<398 709 940 1250> 1490 20G<808.718 1013>
VStem: 492 200<0 200> 813 200<1310 1510>
DStem2: 492 0 692 0 0.207912 0.978148<41.5823 349.704 544.662 1041.85 1236.6 1543.74>
LayerCount: 2
Fore
SplineSet
492 0 m 1,0,-1
 565 342 l 1,1,-1
 223 342 l 1,2,-1
 255 492 l 1,3,-1
 597 492 l 1,4,-1
 709 1019 l 1,5,-1
 367 1019 l 1,6,-1
 398 1169 l 1,7,-1
 740 1169 l 1,8,-1
 813 1510 l 1,9,-1
 1013 1510 l 1,10,-1
 940 1169 l 1,11,-1
 1281 1169 l 1,12,-1
 1250 1019 l 1,13,-1
 909 1019 l 1,14,-1
 797 492 l 1,15,-1
 1138 492 l 1,16,-1
 1106 342 l 1,17,-1
 765 342 l 1,18,-1
 692 0 l 1,19,-1
 492 0 l 1,0,-1
EndSplineSet
Validated: 1
EndChar

StartChar: bullet
Encoding: 8226 8226 138
Width: 956
GlyphClass: 2
Flags: W
HStem: 444 624<496.234 777.383>
VStem: 300 679<657.967 858.697>
LayerCount: 2
Fore
SplineSet
706 1068 m 0,0,1
 979 1068 979 1068 979 852 c 0,2,3
 979 808 979 808 967 756 c 0,4,5
 901 444 901 444 573 444 c 0,6,7
 300 444 300 444 300 660 c 0,8,9
 300 706 300 706 311 756 c 0,10,11
 377 1068 377 1068 706 1068 c 0,0,1
EndSplineSet
Validated: 1
EndChar

StartChar: ellipsis
Encoding: 8230 8230 139
Width: 1071
GlyphClass: 2
Flags: W
HStem: -20 255<102.619 287.381 465.619 650.381 828.619 1013.38>
VStem: 64 262<17.4883 197.532> 427 262<17.4883 197.532> 790 262<17.4883 197.532>
CounterMasks: 1 70
LayerCount: 2
Fore
SplineSet
894 -20 m 0,0,1
 790 -19 790 -19 790 66 c 0,2,3
 790 235 790 235 948 235 c 0,4,5
 1052 235 1052 235 1052 148 c 0,6,7
 1052 -20 1052 -20 894 -20 c 0,0,1
531 -20 m 0,8,9
 427 -19 427 -19 427 66 c 0,10,11
 427 235 427 235 585 235 c 0,12,13
 689 235 689 235 689 148 c 0,14,15
 689 -20 689 -20 531 -20 c 0,8,9
168 -20 m 0,16,17
 64 -19 64 -19 64 66 c 0,18,19
 64 235 64 235 222 235 c 0,20,21
 326 235 326 235 326 148 c 0,22,23
 326 -20 326 -20 168 -20 c 0,16,17
EndSplineSet
Validated: 1
EndChar

StartChar: perthousand
Encoding: 8240 8240 140
Width: 2373
GlyphClass: 2
Flags: W
HStem: -20 110<1047.85 1299.98 1772.85 2024.98> 0 21G<372 581.523> 499 110<1150.4 1404.09 1875.4 2129.09> 901 110<564.848 816.982> 1420 110<667.399 921.093> 1490 20G<1377.5 1589>
VStem: 372 196<0 196> 389 157<1032.26 1271.69> 872 157<111.263 350.685> 940 157<1159.82 1398.74> 1391 198<1312 1510> 1423 157<238.824 477.737> 1597 157<111.263 350.685> 2148 157<238.824 477.737>
DStem2: 372 0 568 0 0.560132 0.828403<109.786 1821.66>
LayerCount: 2
Fore
SplineSet
1898 90 m 0,0,1
 2085 90 2085 90 2144 364 c 0,2,3
 2148 383 2148 383 2148 400 c 0,4,5
 2148 498 2148 498 2003 499 c 0,6,7
 1817 499 1817 499 1758 225 c 0,8,9
 1754 206 1754 206 1754 189 c 0,10,11
 1754 91 1754 91 1898 90 c 0,0,1
1821 -20 m 0,12,13
 1597 -20 1597 -20 1597 165 c 0,14,15
 1597 218 1597 218 1615 287 c 0,16,17
 1662 464 1662 464 1807 549 c 0,18,19
 1909 609 1909 609 2081 609 c 0,20,21
 2305 609 2305 609 2305 424 c 0,22,23
 2305 371 2305 371 2287 302 c 0,24,25
 2240 128 2240 128 2098 43 c 0,26,27
 1992 -20 1992 -20 1821 -20 c 0,12,13
1173 90 m 0,28,29
 1360 90 1360 90 1419 364 c 0,30,31
 1423 383 1423 383 1423 400 c 0,32,33
 1423 498 1423 498 1278 499 c 0,34,35
 1092 499 1092 499 1033 225 c 0,36,37
 1029 206 1029 206 1029 189 c 0,38,39
 1029 91 1029 91 1173 90 c 0,28,29
1096 -20 m 0,40,41
 872 -20 872 -20 872 165 c 0,42,43
 872 218 872 218 890 287 c 0,44,45
 937 464 937 464 1082 549 c 0,46,47
 1184 609 1184 609 1356 609 c 0,48,49
 1580 609 1580 609 1580 424 c 0,50,51
 1580 371 1580 371 1562 302 c 0,52,53
 1515 128 1515 128 1373 43 c 0,54,55
 1267 -20 1267 -20 1096 -20 c 0,40,41
690 1011 m 0,56,57
 877 1011 877 1011 936 1285 c 0,58,59
 940 1304 940 1304 940 1321 c 0,60,61
 940 1419 940 1419 795 1420 c 0,62,63
 609 1420 609 1420 550 1146 c 0,64,65
 546 1127 546 1127 546 1110 c 0,66,67
 546 1012 546 1012 690 1011 c 0,56,57
873 1530 m 0,68,69
 1097 1530 1097 1530 1097 1345 c 0,70,71
 1097 1292 1097 1292 1079 1223 c 0,72,73
 1032 1049 1032 1049 890 964 c 0,74,75
 784 901 784 901 613 901 c 0,76,77
 389 901 389 901 389 1086 c 0,78,79
 389 1139 389 1139 407 1208 c 0,80,81
 454 1385 454 1385 599 1470 c 0,82,83
 701 1530 701 1530 873 1530 c 0,68,69
372 0 m 1,84,-1
 1391 1510 l 1,85,-1
 1589 1510 l 1,86,-1
 568 0 l 1,87,-1
 372 0 l 1,84,-1
EndSplineSet
Validated: 1
EndChar

StartChar: minute
Encoding: 8242 8242 141
Width: 496
GlyphClass: 2
Flags: W
HStem: 1120 410
VStem: 288 483
LayerCount: 2
Fore
SplineSet
771 1530 m 1,0,-1
 445 1120 l 1,1,-1
 288 1120 l 1,2,-1
 565 1530 l 1,3,-1
 771 1530 l 1,0,-1
EndSplineSet
Validated: 1
EndChar

StartChar: second
Encoding: 8243 8243 142
Width: 829
GlyphClass: 2
Flags: W
HStem: 1120 410
LayerCount: 2
Fore
SplineSet
1104 1530 m 1,0,-1
 778 1120 l 1,1,-1
 621 1120 l 1,2,-1
 898 1530 l 1,3,-1
 1104 1530 l 1,0,-1
771 1530 m 1,4,-1
 445 1120 l 1,5,-1
 288 1120 l 1,6,-1
 565 1530 l 1,7,-1
 771 1530 l 1,4,-1
EndSplineSet
Validated: 1
EndChar

StartChar: guilsinglleft
Encoding: 8249 8249 143
Width: 873
GlyphClass: 2
Flags: W
VStem: 292 678
DStem2: 464 763 292 672 0.596945 -0.802282<0 479.791> 331 853 464 763 0.759089 0.650987<42.37 644.787>
LayerCount: 2
Fore
SplineSet
970 1401 m 1,0,-1
 918 1159 l 1,1,-1
 464 763 l 1,2,-1
 753 380 l 1,3,-1
 699 125 l 1,4,-1
 292 672 l 1,5,-1
 331 853 l 1,6,-1
 970 1401 l 1,0,-1
EndSplineSet
Validated: 1
EndChar

StartChar: guilsinglright
Encoding: 8250 8250 144
Width: 873
GlyphClass: 2
Flags: W
VStem: 227 678
DStem2: 279 367 227 125 0.759089 0.650987<0 602.417> 498 1401 444 1146 0.596945 -0.802282<172.347 652.138>
LayerCount: 2
Fore
SplineSet
498 1401 m 1,0,-1
 905 854 l 1,1,-1
 866 673 l 1,2,-1
 227 125 l 1,3,-1
 279 367 l 1,4,-1
 733 763 l 1,5,-1
 444 1146 l 1,6,-1
 498 1401 l 1,0,-1
EndSplineSet
Validated: 1
EndChar

StartChar: fraction
Encoding: 8260 8260 145
Width: 1023
GlyphClass: 2
Flags: W
DStem2: -18 -132 118 -203 0.5601 0.828425<17.3554 2216.34>
LayerCount: 2
Fore
SplineSet
1222 1705 m 1,0,-1
 1360 1634 l 1,1,-1
 118 -203 l 1,2,-1
 -18 -132 l 1,3,-1
 1222 1705 l 1,0,-1
EndSplineSet
Validated: 1
EndChar

StartChar: Euro
Encoding: 8364 8364 146
Width: 1528
GlyphClass: 2
Flags: W
HStem: -20 124<607.021 985.695> 560 120<245 379 605 1080> 818 120<299 434 660 1135> 1406 124<929.736 1289.8>
VStem: 337 193<174.937 539.539> 1222 208<390.091 472> 1371 202<1145 1328.87>
DStem2: 255.949 -20 456.166 -20 0.207912 0.978148<366.075 592.909 757.275 856.707 1021.07 1236.19>
LayerCount: 2
Fore
SplineSet
681 -20 m 0,0,1
 337 -20 337 -20 337 287 c 0,2,3
 337 358 337 358 355 446 c 2,4,-1
 379 560 l 1,5,-1
 219 560 l 1,6,-1
 245 680 l 1,7,-1
 405 680 l 1,8,-1
 434 818 l 1,9,-1
 274 818 l 1,10,-1
 299 938 l 1,11,-1
 460 938 l 1,12,13
 611 1530 611 1530 1228 1530 c 0,14,15
 1573 1530 1573 1530 1573 1200 c 0,16,17
 1573 1173 1573 1173 1571 1145 c 1,18,-1
 1360 1090 l 1,19,20
 1371 1144 1371 1144 1371 1188 c 0,21,22
 1371 1406 1371 1406 1100 1406 c 0,23,24
 777 1406 777 1406 660 938 c 1,25,-1
 1160 938 l 1,26,-1
 1135 818 l 1,27,-1
 634 818 l 1,28,-1
 605 680 l 1,29,-1
 1106 680 l 1,30,-1
 1080 560 l 1,31,-1
 579 560 l 1,32,-1
 538 365 l 2,33,34
 530 327 530 327 530 295 c 0,35,36
 530 104 530 104 809 104 c 0,37,38
 1106 104 1106 104 1222 472 c 1,39,-1
 1430 497 l 1,40,41
 1273 -20 1273 -20 681 -20 c 0,0,1
EndSplineSet
Validated: 1
EndChar

StartChar: afii61248
Encoding: 8453 8453 147
Width: 1723
GlyphClass: 2
Flags: W
HStem: -20 112<1188.36 1406.45> 0 21G<421 630.523> 705 113<501.232 725.811 1341.89 1536.32> 1418 112<637.554 840.64> 1490 20G<1426.5 1638>
VStem: 348 145<829.321 1119.3> 421 196<0 196> 794 158<896.04 999> 857 155<1295 1400.46> 1035 145<104.814 262.281> 1440 198<1312 1510> 1551 145<522.719 680.186>
DStem2: 145.468 -20 295.559 -20 0.207912 0.978148<967.659 1455.89> 421 0 617 0 0.560132 0.828403<109.786 1821.66> 986.571 -20 1136.66 -20 0.207912 0.978148<227.41 714.692> 1419.07 -20 1569.07 -20 0.207912 0.978148<159.926 648.156>
LayerCount: 2
Fore
SplineSet
421 0 m 1,0,-1
 1440 1510 l 1,1,-1
 1638 1510 l 1,2,-1
 617 0 l 1,3,-1
 421 0 l 1,0,-1
1223 -20 m 0,4,5
 1035 -20 1035 -20 1035 162 c 0,6,7
 1035 209 1035 209 1048 269 c 2,8,-1
 1092 476 l 2,9,10
 1162 805 1162 805 1508 805 c 0,11,12
 1696 805 1696 805 1696 623 c 0,13,14
 1696 576 1696 576 1683 516 c 2,15,-1
 1639 309 l 2,16,17
 1569 -20 1569 -20 1223 -20 c 0,4,5
1297 92 m 0,18,19
 1443 92 1443 92 1489 309 c 2,20,-1
 1548 587 l 2,21,22
 1551 602 1551 602 1551 615 c 0,23,24
 1551 692 1551 692 1438 692 c 0,25,26
 1288 692 1288 692 1242 476 c 2,27,-1
 1183 198 l 2,28,29
 1180 183 1180 183 1180 171 c 0,30,31
 1180 93 1180 93 1297 92 c 0,18,19
821 1530 m 0,32,33
 1012 1530 1012 1530 1012 1326 c 0,34,35
 1012 1311 1012 1311 1011 1295 c 1,36,-1
 850 1253 l 1,37,38
 857 1286 857 1286 857 1313 c 0,39,40
 857 1418 857 1418 747 1418 c 0,41,42
 601 1418 601 1418 555 1201 c 2,43,-1
 496 923 l 2,44,45
 493 908 493 908 493 895 c 0,46,47
 493 818 493 818 606 818 c 0,48,49
 756 818 756 818 794 999 c 1,50,-1
 952 1018 l 1,51,52
 885 705 885 705 536 705 c 0,53,54
 348 705 348 705 348 887 c 0,55,56
 348 934 348 934 361 994 c 2,57,-1
 405 1201 l 2,58,59
 475 1530 475 1530 821 1530 c 0,32,33
EndSplineSet
Validated: 1
EndChar

StartChar: afii61289
Encoding: 8467 8467 148
Width: 958
GlyphClass: 2
Flags: W
HStem: -20 136<493.285 605.003> 0 21G<50 267.222> 1500 20G<950 1017>
LayerCount: 2
Fore
SplineSet
486 466 m 1,0,1
 648 708 648 708 737 860 c 0,2,3
 896 1134 896 1134 944 1359 c 1,4,5
 856 1266 856 1266 707 1004 c 0,6,7
 537 704 537 704 486 466 c 1,0,1
498 -20 m 0,8,9
 378 -20 378 -20 324 90 c 1,10,-1
 251 0 l 1,11,-1
 50 0 l 1,12,13
 192 144 192 144 304 292 c 1,14,15
 304 343 304 343 326 443 c 0,16,17
 360 596 360 596 417 732 c 0,18,19
 634 1246 634 1246 822 1434 c 0,20,21
 908 1520 908 1520 992 1520 c 0,22,23
 1042 1520 1042 1520 1075 1488 c 0,24,25
 1099 1465 1099 1465 1099 1409 c 0,26,27
 1099 1371 1099 1371 1088 1318 c 0,28,29
 1066 1219 1066 1219 1006 1072 c 0,30,31
 862 722 862 722 480 271 c 1,32,33
 480 116 480 116 536 116 c 0,34,35
 555 116 555 116 583 140 c 0,36,37
 621 172 621 172 664 228 c 1,38,-1
 840 228 l 1,39,40
 736 100 736 100 659 40 c 128,-1,41
 582 -20 582 -20 498 -20 c 0,8,9
EndSplineSet
Validated: 1
EndChar

StartChar: trademark
Encoding: 8482 8482 149
Width: 1756
GlyphClass: 2
Flags: W
HStem: 1396 114<464.86 652 802 1007>
VStem: 515 150<755 905> 965 150<755 905> 1309 150<1086 1243.84> 1536 155<756.221 1075.43>
DStem2: 515 755 665 755 0.207912 0.978148<31.1868 655.477> 965 755 1115 755 0.207912 0.978148<31.1868 676.577> 1512.8 755 1662.14 755 0.207912 0.978148<144.523 677.661>
LayerCount: 2
Fore
SplineSet
463 1473 m 1,0,1
 522 1510 522 1510 646 1510 c 2,2,-1
 1031 1510 l 1,3,-1
 1007 1396 l 1,4,-1
 802 1396 l 1,5,-1
 665 755 l 1,6,-1
 515 755 l 1,7,-1
 652 1396 l 1,8,-1
 619 1397 l 2,9,10
 509 1397 509 1397 434 1337 c 1,11,-1
 463 1473 l 1,0,1
1072 1510 m 1,12,-1
 1226 1510 l 2,13,14
 1401 1510 1401 1510 1422 1289 c 1,15,16
 1511 1510 1511 1510 1698 1510 c 2,17,-1
 1823 1510 l 1,18,-1
 1697 919 l 2,19,20
 1691 892 1691 892 1691 864 c 0,21,22
 1691 808 1691 808 1716 755 c 1,23,-1
 1547 755 l 1,24,25
 1536 780 1536 780 1536 820 c 0,26,27
 1536 865 1536 865 1550 930 c 2,28,-1
 1653 1418 l 1,29,30
 1524 1394 1524 1394 1459 1086 c 1,31,-1
 1309 1086 l 1,32,33
 1329 1181 1329 1181 1329 1249 c 0,34,35
 1329 1382 1329 1382 1254 1417 c 1,36,37
 1253 1404 1253 1404 1249 1385 c 2,38,-1
 1115 755 l 1,39,-1
 965 755 l 1,40,-1
 1091 1346 l 2,41,42
 1100 1387 1100 1387 1100 1419 c 0,43,44
 1100 1478 1100 1478 1072 1510 c 1,12,-1
EndSplineSet
Validated: 1
EndChar

StartChar: uni2126
Encoding: 8486 8486 150
Width: 1448
GlyphClass: 2
Flags: W
HStem: 0 127<253.242 474 1028 1269.72> 50 147<198.977 301.109 1217.63 1299> 1406 124<853.717 1223.48>
VStem: 316 205<414.158 777.328> 1299 203<971.18 1336.89>
DStem2: 189.698 0 399.915 0 0.207912 0.978148<594.21 1222.55> 874 0 1001.01 0 0.207912 0.978148<156.243 345.231> 1048.47 0 1258.47 0 0.207912 0.978148<580.394 1241.48>
LayerCount: 2
Fore
SplineSet
574 0 m 1,0,-1
 447 0 l 2,1,2
 281 0 281 0 171 50 c 1,3,-1
 202 197 l 1,4,5
 323 127 323 127 474 127 c 1,6,-1
 499 245 l 1,7,8
 316 289 316 289 316 517 c 0,9,10
 316 595 316 595 337 693 c 2,11,-1
 386 921 l 2,12,13
 517 1530 517 1530 1158 1530 c 0,14,15
 1502 1530 1502 1530 1502 1222 c 0,16,17
 1502 1151 1502 1151 1484 1064 c 2,18,-1
 1430 807 l 2,19,20
 1352 436 1352 436 1060 278 c 1,21,-1
 1028 127 l 1,22,23
 1190 127 1190 127 1330 197 c 1,24,-1
 1299 50 l 1,25,26
 1167 0 1167 0 1001 0 c 2,27,-1
 874 0 l 1,28,-1
 949 354 l 1,29,30
 1143 443 1143 443 1220 807 c 2,31,-1
 1291 1145 l 2,32,33
 1299 1184 1299 1184 1299 1217 c 0,34,35
 1299 1406 1299 1406 1030 1406 c 0,36,37
 700 1406 700 1406 596 921 c 2,38,-1
 530 612 l 2,39,40
 521 570 521 570 521 536 c 0,41,42
 521 402 521 402 652 366 c 1,43,-1
 574 0 l 1,0,-1
EndSplineSet
Validated: 1
EndChar

StartChar: estimated
Encoding: 8494 8494 151
Width: 1258
GlyphClass: 2
Flags: W
HStem: 0 73<474.72 827.898> 565 74<467 1063> 1057 73<671.387 1017.88>
VStem: 204 1088<418 715>
LayerCount: 2
Fore
SplineSet
1155 276 m 1,0,1
 998 103 998 103 875 51.5 c 128,-1,2
 752 0 752 0 629 0 c 0,3,4
 392 0 392 0 280 160 c 0,5,6
 204 269 204 269 204 418 c 0,7,8
 204 487 204 487 220 565 c 0,9,10
 273 812 273 812 453.5 971 c 128,-1,11
 634 1130 634 1130 869 1130 c 0,12,13
 1083 1130 1083 1130 1205 988 c 0,14,15
 1292 887 1292 887 1292 715 c 0,16,17
 1292 646 1292 646 1278 565 c 1,18,-1
 451 565 l 1,19,-1
 372 194 l 1,20,21
 466 73 466 73 645 73 c 0,22,23
 899 73 899 73 1092 319 c 1,24,-1
 1155 276 l 1,0,1
1063 639 m 1,25,-1
 1126 936 l 1,26,27
 1024 1057 1024 1057 852 1057 c 0,28,29
 677 1057 677 1057 530 935 c 1,30,-1
 467 639 l 1,31,-1
 1063 639 l 1,25,-1
EndSplineSet
Validated: 1
EndChar

StartChar: partialdiff
Encoding: 8706 8706 152
Width: 1285
GlyphClass: 2
Flags: W
HStem: -20 153<422.495 663.286> 870 140<720.166 998.914> 1325 152<777.431 1136.65>
VStem: 214 189<150.651 474.232> 1181 177<870.413 1281.76>
LayerCount: 2
Fore
SplineSet
508 -20 m 4,0,1
 214 -20 214 -20 214 240 c 4,2,3
 214 300 214 300 230 375 c 4,4,5
 283 624 283 624 462 817 c 132,-1,6
 641 1010 641 1010 885 1010 c 4,7,8
 1069 1010 1069 1010 1136 862 c 5,9,10
 1181 1021 1181 1021 1181 1132 c 4,11,12
 1181 1172 1181 1172 1175 1206 c 4,13,14
 1153 1325 1153 1325 1017 1325 c 4,15,16
 853 1325 853 1325 684 1241 c 5,17,-1
 721 1415 l 5,18,19
 868 1477 868 1477 1017 1477 c 4,20,21
 1358 1477 1358 1477 1358 1138 c 4,22,23
 1358 1048 1358 1048 1334 934 c 4,24,25
 1251 545 1251 545 1022.5 262.5 c 132,-1,26
 794 -20 794 -20 508 -20 c 4,0,1
1065 680 m 5,27,28
 1061 765 1061 765 1008.5 817.5 c 132,-1,29
 956 870 956 870 880 870 c 4,30,31
 720 870 720 870 587.5 710 c 132,-1,32
 455 550 455 550 416 369 c 4,33,34
 403 308 403 308 403 262 c 4,35,36
 403 133 403 133 508 133 c 4,37,38
 646 133 646 133 811 286 c 132,-1,39
 976 439 976 439 1065 680 c 5,27,28
EndSplineSet
Validated: 1
EndChar

StartChar: uni2206
Encoding: 8710 8710 153
Width: 1237
GlyphClass: 2
Flags: W
HStem: 0 117<231 1023> 1490 20G<830.98 1039.52>
DStem2: 10 0 231 117 0.482587 0.875848<209.126 1583.07> 1037 1510 882 1327 0.124843 -0.992176<162.218 1380.35>
LayerCount: 2
Fore
SplineSet
10 0 m 1,0,-1
 842 1510 l 1,1,-1
 1037 1510 l 1,2,-1
 1227 0 l 1,3,-1
 10 0 l 1,0,-1
882 1327 m 1,4,-1
 231 117 l 1,5,-1
 1023 117 l 1,6,-1
 882 1327 l 1,4,-1
EndSplineSet
Validated: 1
EndChar

StartChar: product
Encoding: 8719 8719 154
Width: 1406
GlyphClass: 2
Flags: W
HStem: -410 20G<113 317.25 919 1123.25> 1383 127<694 1300>
VStem: 113 200<-410 -210> 521 1006<504 1510> 919 200<-411 -211>
DStem2: 112.787 -411 312.787 -411 0.207912 0.978148<42.6047 1875.64> 919 -411 1119 -411 0.207912 0.978148<41.5823 1834.01>
LayerCount: 2
Fore
SplineSet
521 1510 m 1,0,-1
 1527 1510 l 1,1,-1
 1119 -411 l 1,2,-1
 919 -411 l 1,3,-1
 1300 1383 l 1,4,-1
 694 1383 l 1,5,-1
 313 -410 l 1,6,-1
 113 -410 l 1,7,-1
 521 1510 l 1,0,-1
EndSplineSet
Validated: 1
EndChar

StartChar: summation
Encoding: 8721 8721 155
Width: 1407
GlyphClass: 2
Flags: W
HStem: -410 127<425 1159.09> 1383 127<741 1463>
DStem2: 63 -410 425 -283 0.624598 0.780946<325.285 1260.01> 741 1383 471 1510 0.375314 -0.926898<0 790.769>
LayerCount: 2
Fore
SplineSet
471 1510 m 1,0,-1
 1490 1510 l 17,1,-1
 1463 1383 l 1,2,-1
 741 1383 l 1,3,-1
 1090 556 l 1,4,-1
 425 -283 l 1,5,-1
 897 -283 l 2,6,7
 1090 -283 1090 -283 1212 -213 c 1,8,-1
 1180 -360 l 1,9,10
 1048 -410 1048 -410 870 -410 c 2,11,-1
 63 -410 l 1,12,-1
 850 574 l 1,13,-1
 471 1510 l 1,0,-1
EndSplineSet
Validated: 1
EndChar

StartChar: minus
Encoding: 8722 8722 156
Width: 1183
GlyphClass: 2
Flags: W
HStem: 693 150<329 1180>
LayerCount: 2
Fore
SplineSet
1180 693 m 1,0,-1
 297 693 l 1,1,-1
 329 843 l 1,2,-1
 1212 843 l 1,3,-1
 1180 693 l 1,0,-1
EndSplineSet
Validated: 1
EndChar

StartChar: uni2215
Encoding: 8725 8725 157
Width: 1023
GlyphClass: 2
Flags: W
DStem2: -18 -132 118 -203 0.5601 0.828425<17.3554 2216.34>
LayerCount: 2
Fore
SplineSet
1222 1705 m 1,0,-1
 1360 1634 l 1,1,-1
 118 -203 l 1,2,-1
 -18 -132 l 1,3,-1
 1222 1705 l 1,0,-1
EndSplineSet
Validated: 1
EndChar

StartChar: uni2219
Encoding: 8729 8729 158
Width: 345
GlyphClass: 2
Flags: W
HStem: 636 255<242.619 427.381>
VStem: 204 262<673.488 853.532>
LayerCount: 2
Fore
SplineSet
362 891 m 0,0,1
 466 891 466 891 466 804 c 0,2,3
 466 636 466 636 308 636 c 0,4,5
 204 637 204 637 204 722 c 0,6,7
 204 891 204 891 362 891 c 0,0,1
EndSplineSet
Validated: 1
EndChar

StartChar: radical
Encoding: 8730 8730 159
Width: 1271
GlyphClass: 2
Flags: W
HStem: 0 21G<470.274 677.597> 675 105<266 381> 1413 97<1346 1471>
DStem2: 553 780 381 675 0.135048 -0.990839<80.8099 555.451> 616 228 668 0 0.432607 0.901583<0 1384.18>
LayerCount: 2
Fore
SplineSet
473 0 m 1,0,-1
 381 675 l 1,1,-1
 243 675 l 1,2,-1
 266 780 l 1,3,-1
 553 780 l 1,4,-1
 616 228 l 1,5,-1
 1237 1510 l 1,6,-1
 1492 1510 l 1,7,-1
 1471 1413 l 1,8,-1
 1346 1413 l 1,9,-1
 668 0 l 1,10,-1
 473 0 l 1,0,-1
EndSplineSet
Validated: 1
EndChar

StartChar: infinity
Encoding: 8734 8734 160
Width: 1453
GlyphClass: 2
Flags: W
HStem: 444 135<475.8 738.218 971.75 1239> 937 131<532.668 801.767 1034.27 1298.45>
VStem: 302 150<604.77 853.923> 826 122<666.565 853.812> 1322 151<665.496 910.413>
LayerCount: 2
Fore
SplineSet
599 579 m 0,0,1
 781 579 781 579 820 762 c 0,2,3
 826 792 826 792 826 816 c 0,4,5
 826 937 826 937 675 937 c 0,6,7
 496 937 496 937 459 761 c 0,8,9
 452 728 452 728 452 702 c 0,10,11
 452 579 452 579 599 579 c 0,0,1
561 444 m 0,12,13
 418 444 418 444 351 525 c 0,14,15
 302 584 302 584 302 672 c 0,16,17
 302 712 302 712 311 756 c 0,18,19
 377 1068 377 1068 706 1068 c 0,20,21
 858 1068 858 1068 926 938 c 1,22,23
 1047 1068 1047 1068 1202 1068 c 0,24,25
 1356 1068 1356 1068 1426 978 c 0,26,27
 1473 918 1473 918 1473 834 c 0,28,29
 1473 801 1473 801 1463 755 c 0,30,31
 1396 444 1396 444 1069 444 c 0,32,33
 901 444 901 444 849 574 c 1,34,35
 727 444 727 444 561 444 c 0,12,13
1095 579 m 0,36,37
 1277 579 1277 579 1316 762 c 0,38,39
 1322 792 1322 792 1322 816 c 0,40,41
 1322 937 1322 937 1171 937 c 0,42,43
 992 937 992 937 955 761 c 0,44,45
 948 728 948 728 948 702 c 0,46,47
 948 579 948 579 1095 579 c 0,36,37
EndSplineSet
Validated: 1
EndChar

StartChar: approxequal
Encoding: 8776 8776 161
Width: 1208
GlyphClass: 2
Flags: W
HStem: 410 148<776.359 958.858> 619 146<499.216 666.884> 831 148<865.859 1048.31> 1040 146<588.35 758.276>
LayerCount: 2
Fore
SplineSet
249 466 m 1,0,1
 313 765 313 765 511 765 c 0,2,3
 687 765 687 765 761 625 c 0,4,5
 797 558 797 558 889 558 c 0,6,7
 977 558 977 558 1021 765 c 1,8,-1
 1209 709 l 1,9,10
 1145 410 1145 410 939 410 c 0,11,12
 741 410 741 410 684 546 c 0,13,14
 654 619 654 619 572 619 c 0,15,16
 482 619 482 619 437 410 c 1,17,-1
 249 466 l 1,0,1
339 887 m 1,18,19
 403 1186 403 1186 600 1186 c 0,20,21
 776 1186 776 1186 850 1046 c 0,22,23
 886 979 886 979 978 979 c 0,24,25
 1066 979 1066 979 1110 1186 c 1,26,-1
 1298 1130 l 1,27,28
 1234 831 1234 831 1029 831 c 0,29,30
 831 831 831 831 774 967 c 0,31,32
 744 1040 744 1040 661 1040 c 0,33,34
 571 1040 571 1040 527 831 c 1,35,-1
 339 887 l 1,18,19
EndSplineSet
Validated: 1
EndChar

StartChar: notequal
Encoding: 8800 8800 162
Width: 1183
GlyphClass: 2
Flags: W
HStem: 0 21G<154 343.503> 551 150<299 526 804 1150> 839 150<360 720 998 1211> 1490 20G<1159.49 1351>
VStem: 154 176<0 176> 1173 178<1332 1510>
DStem2: 154 0 330 0 0.560132 0.828403<98.5833 664.819 944.797 1012.07 1292.04 1821.66>
LayerCount: 2
Fore
SplineSet
154 0 m 1,0,-1
 526 551 l 1,1,-1
 267 551 l 1,2,-1
 299 701 l 1,3,-1
 627 701 l 1,4,-1
 720 839 l 1,5,-1
 328 839 l 1,6,-1
 360 989 l 1,7,-1
 821 989 l 1,8,-1
 1173 1510 l 1,9,-1
 1351 1510 l 1,10,-1
 998 989 l 1,11,-1
 1243 989 l 1,12,-1
 1211 839 l 1,13,-1
 897 839 l 1,14,-1
 804 701 l 1,15,-1
 1182 701 l 1,16,-1
 1150 551 l 1,17,-1
 702 551 l 1,18,-1
 330 0 l 1,19,-1
 154 0 l 1,0,-1
EndSplineSet
Validated: 1
EndChar

StartChar: lessequal
Encoding: 8804 8804 163
Width: 1256
GlyphClass: 2
Flags: W
HStem: 88 150<251 1075> 1491 20G<1340.19 1372.68>
DStem2: 552 898 369 796 0.816024 -0.578017<0 739.454> 409 985 552 898 0.878658 0.477452<84.1097 974.94>
LayerCount: 2
Fore
SplineSet
369 796 m 1,0,-1
 409 985 l 1,1,-1
 1377 1511 l 1,2,-1
 1336 1321 l 1,3,-1
 552 898 l 1,4,-1
 1155 470 l 1,5,-1
 1113 269 l 1,6,-1
 369 796 l 1,0,-1
1075 88 m 1,7,-1
 219 88 l 1,8,-1
 251 238 l 1,9,-1
 1107 238 l 1,10,-1
 1075 88 l 1,7,-1
EndSplineSet
Validated: 1
EndChar

StartChar: greaterequal
Encoding: 8805 8805 164
Width: 1256
GlyphClass: 2
Flags: W
HStem: 88 150<251 1075> 1491 20G<516.721 549.235>
DStem2: 297 459 257 269 0.878658 0.477452<0 887.239> 521 1511 478 1310 0.816024 -0.578017<81.0924 819.255>
LayerCount: 2
Fore
SplineSet
1265 984 m 1,0,-1
 1225 795 l 1,1,-1
 257 269 l 1,2,-1
 297 459 l 1,3,-1
 1078 880 l 1,4,-1
 478 1310 l 1,5,-1
 521 1511 l 1,6,-1
 1265 984 l 1,0,-1
1075 88 m 1,7,-1
 219 88 l 1,8,-1
 251 238 l 1,9,-1
 1107 238 l 1,10,-1
 1075 88 l 1,7,-1
EndSplineSet
Validated: 1
EndChar

StartChar: lozenge
Encoding: 9674 9674 165
Width: 1233
GlyphClass: 2
Flags: W
HStem: 0 21G<606.813 633.679> 1491 20G<920.898 946.649>
DStem2: 485 764 277 738 0.417418 -0.908715<0 516.988> 277 738 485 764 0.6499 0.76002<154.94 729.691> 696 292 616 0 0.66229 0.749247<0 568.287> 938 1511 863 1197 0.396938 -0.917845<258.433 779.726>
LayerCount: 2
Fore
SplineSet
863 1197 m 1,0,-1
 485 764 l 1,1,-1
 696 292 l 1,2,-1
 1071 719 l 1,3,-1
 863 1197 l 1,0,-1
938 1511 m 1,4,-1
 1271 741 l 1,5,-1
 616 0 l 1,6,-1
 277 738 l 1,7,-1
 938 1511 l 1,4,-1
EndSplineSet
Validated: 1
EndChar

StartChar: s
Encoding: 115 115 167
Width: 1158
Flags: W
HStem: -20 116<443.392 764.006> 546 120<568.74 853.363> 1004 116<643.05 1033.06>
VStem: 205 194<143.059 265> 360 186<693.279 901.479> 899 194<242.67 504.776> 953 194<833 967.602>
LayerCount: 2
Fore
SplineSet
485 -20 m 0,0,1
 205 -20 205 -20 205 227 c 0,2,3
 205 245 205 245 206 265 c 1,4,-1
 407 316 l 1,5,6
 399 280 399 280 399 250 c 0,7,8
 399 96 399 96 603 96 c 0,9,10
 838 96 838 96 893 354 c 16,11,12
 899 383 899 383 899 407 c 0,13,14
 899 546 899 546 702 546 c 0,15,16
 360 546 360 546 360 746 c 0,17,18
 360 793 360 793 379 851 c 0,19,20
 425 993 425 993 593 1065 c 0,21,22
 721 1120 721 1120 915 1120 c 0,23,24
 1147 1120 1147 1120 1147 877 c 0,25,26
 1147 856 1147 856 1145 833 c 1,27,-1
 944 781 l 1,28,29
 953 823 953 823 953 857 c 0,30,31
 953 1004 953 1004 788 1004 c 0,32,33
 594 1004 594 1004 549 796 c 16,34,35
 546 781 546 781 546 767 c 0,36,37
 546 666 546 666 730 666 c 0,38,39
 1093 666 1093 666 1093 428 c 0,40,41
 1093 370 1093 370 1072 299 c 0,42,43
 1027 147 1027 147 863 58 c 0,44,45
 718 -20 718 -20 485 -20 c 0,0,1
EndSplineSet
Validated: 1
EndChar

StartChar: M
Encoding: 77 77 168
Width: 1694
Flags: W
HStem: 0 21G<200 404.248 1338.5 1564> 1330 180<672 816.339 1416.31 1577>
VStem: 200 200<0 200> 478 194<1115.47 1330> 888 200<662 836.665> 928 116<911.188 1209.2> 1333 205<1.62891 378.047>
DStem2: 200 0 400 0 0.207912 0.978148<41.5823 1392.2> 1294.23 0 1494.23 0 0.207912 0.978148<191.543 1359.73>
LayerCount: 2
Fore
SplineSet
200 0 m 1,0,-1
 457 1210 l 2,1,2
 478 1309 478 1309 478 1366 c 0,3,4
 478 1454 478 1454 451 1510 c 1,5,-1
 671 1510 l 2,6,7
 1044 1510 1044 1510 1044 1054 c 0,8,9
 1044 986 1044 986 1036 908 c 1,10,-1
 1042 908 l 1,11,12
 1203 1510 1203 1510 1615 1510 c 2,13,-1
 1815 1510 l 1,14,-1
 1558 300 l 2,15,16
 1538 206 1538 206 1538 142 c 0,17,18
 1538 62 1538 62 1564 0 c 1,19,-1
 1344 0 l 1,20,21
 1333 42 1333 42 1333 98 c 0,22,23
 1333 182 1333 182 1358 300 c 2,24,-1
 1577 1330 l 1,25,26
 1230 1330 1230 1330 1088 662 c 1,27,-1
 888 662 l 1,28,29
 928 852 928 852 928 988 c 0,30,31
 928 1330 928 1330 672 1330 c 1,32,33
 672 1281 672 1281 657 1210 c 2,34,-1
 400 0 l 1,35,-1
 200 0 l 1,0,-1
EndSplineSet
Validated: 1
EndChar

StartChar: N
Encoding: 78 78 169
Width: 1406
Flags: W
HStem: 0 21G<200 404.248 1015 1209.26> 1330 180<673 863.715>
VStem: 200 200<0 200> 478 195<1115.47 1330> 1102 97<900 1026.14> 1336 191<1319 1510>
DStem2: 200 0 400 0 0.207912 0.978148<41.5823 1392.2> 1015 0 1205 0 0.207912 0.978148<39.5032 522.685 920.044 1543.74>
LayerCount: 2
Fore
SplineSet
200 0 m 1,0,-1
 457 1210 l 2,1,2
 478 1309 478 1309 478 1366 c 0,3,4
 478 1449 478 1449 451 1510 c 1,5,-1
 671 1510 l 2,6,7
 1199 1510 1199 1510 1199 900 c 1,8,-1
 1206 900 l 1,9,-1
 1336 1510 l 1,10,-1
 1527 1510 l 1,11,-1
 1205 0 l 1,12,-1
 1015 0 l 1,13,14
 1102 413 1102 413 1102 698 c 0,15,16
 1102 1330 1102 1330 673 1330 c 1,17,18
 673 1285 673 1285 657 1210 c 2,19,-1
 400 0 l 1,20,-1
 200 0 l 1,0,-1
EndSplineSet
Validated: 1
EndChar

StartChar: W
Encoding: 87 87 170
Width: 1896
Flags: W
HStem: -20 150<483.154 689.691> -20 107<1150.1 1399.07> 1080 20G<1097.64 1302> 1490 20G<451 676 1832.75 2037>
VStem: 259 202<152.83 482.461> 475 206<1115.66 1508.18> 924 201<108.997 299.058> 1837 200<1310 1510>
DStem2: 195.229 -20 395.542 -20 0.207912 0.978148<325.26 1398.44> 863.516 -20 1063.54 -20 0.207912 0.978148<537.998 1145.11> 1512.06 -20 1711.55 -20 0.207912 0.978148<354.131 1564.13>
LayerCount: 2
Fore
SplineSet
932 300 m 1,0,1
 784 -20 784 -20 500 -20 c 0,2,3
 259 -20 259 -20 259 217 c 0,4,5
 259 280 259 280 276 360 c 2,6,-1
 457 1210 l 2,7,8
 475 1295 475 1295 475 1352 c 0,9,10
 475 1440 475 1440 451 1510 c 1,11,-1
 671 1510 l 17,12,13
 681 1464 681 1464 681 1409 c 0,14,15
 681 1323 681 1323 657 1210 c 2,16,-1
 471 335 l 2,17,18
 461 288 461 288 461 255 c 0,19,20
 461 130 461 130 583 130 c 0,21,22
 891 130 891 130 1085 1022 c 2,23,-1
 1102 1100 l 1,24,-1
 1302 1100 l 1,25,-1
 1139 335 l 2,26,27
 1125 269 1125 269 1125 225 c 0,28,29
 1125 87 1125 87 1241 87 c 0,30,31
 1535 87 1535 87 1633 549 c 2,32,-1
 1837 1510 l 25,33,-1
 2037 1510 l 25,34,-1
 1841 589 l 18,35,36
 1711 -20 1711 -20 1168 -20 c 0,37,38
 924 -20 924 -20 924 211 c 0,39,40
 924 252 924 252 932 300 c 1,0,1
EndSplineSet
Validated: 1
EndChar

StartChar: A
Encoding: 65 65 171
Width: 1386
Flags: W
HStem: 0 21G<180 384.256 1030 1256> 719 127<560 1139> 1407 123<821.923 1168.4>
VStem: 180 200<0 200> 1024 206<1.65955 384.336> 1238 193<978.625 1341.85>
DStem2: 180 0 380 0 0.207912 0.978148<41.5823 776.681 906.519 1237.02> 986.233 0 1186.23 0 0.207912 0.978148<192.491 735.05 864.889 1244.64>
LayerCount: 2
Fore
SplineSet
1166 846 m 1,0,-1
 1229 1145 l 2,1,2
 1238 1186 1238 1186 1238 1220 c 0,3,4
 1238 1407 1238 1407 982 1407 c 0,5,6
 679 1407 679 1407 576 921 c 2,7,-1
 560 846 l 1,8,-1
 1166 846 l 1,0,-1
180 0 m 1,9,-1
 376 921 l 2,10,11
 506 1530 506 1530 1086 1530 c 0,12,13
 1431 1530 1431 1530 1431 1223 c 0,14,15
 1431 1154 1431 1154 1412 1064 c 2,16,-1
 1250 300 l 2,17,18
 1230 206 1230 206 1230 143 c 0,19,20
 1230 67 1230 67 1256 0 c 1,21,-1
 1036 0 l 1,22,23
 1024 39 1024 39 1024 96 c 0,24,25
 1024 178 1024 178 1050 300 c 2,26,-1
 1139 719 l 1,27,-1
 533 719 l 1,28,-1
 380 0 l 1,29,-1
 180 0 l 1,9,-1
EndSplineSet
Validated: 1
EndChar

StartChar: onequarter
Encoding: 188 188 172
Width: 1530
Flags: W
HStem: 0 21G<176 385.523 1180 1334.24> 222 113<1041 1227> 1396 114<471 558>
VStem: 176 196<0 196> 418 150<705 855> 558 157<1187.34 1396> 991 150<655 805> 1180 150<0 150> 1195 198<1312 1510> 1319 150<505 655>
DStem2: 176 0 372 0 0.560132 0.828403<109.786 1821.66> 268.148 0 418.148 0 0.207912 0.978148<751.937 1424.66> 819.812 0 969.794 0 0.207912 0.978148<373.667 823.001> 1180 0 1330 0 0.207912 0.978148<31.1868 226.921 342.441 669.586>
LayerCount: 2
Fore
SplineSet
176 0 m 1,0,-1
 1195 1510 l 1,1,-1
 1393 1510 l 1,2,-1
 372 0 l 1,3,-1
 176 0 l 1,0,-1
471 1510 m 1,4,-1
 704 1510 l 1,5,6
 715 1483 715 1483 715 1442 c 0,7,8
 715 1397 715 1397 702 1335 c 2,9,-1
 568 705 l 1,10,-1
 418 705 l 1,11,-1
 552 1335 l 2,12,13
 558 1366 558 1366 558 1396 c 1,14,-1
 447 1396 l 1,15,-1
 471 1510 l 1,4,-1
1330 0 m 1,16,-1
 1180 0 l 1,17,-1
 1227 222 l 1,18,-1
 867 222 l 1,19,-1
 991 805 l 17,20,-1
 1141 805 l 9,21,-1
 1041 335 l 1,22,-1
 1251 335 l 1,23,-1
 1319 655 l 1,24,-1
 1469 655 l 1,25,-1
 1330 0 l 1,16,-1
EndSplineSet
Validated: 1
EndChar

StartChar: onehalf
Encoding: 189 189 173
Width: 1542
Flags: W
HStem: 0 113<975 1337.28> 325 114<1050.47 1259.32> 702 113<1030.45 1311.03> 1396 114<471 558>
VStem: 176 196<0 196> 418 150<705 855> 558 157<1187.34 1396> 1195 198<1312 1510> 1321 151<503.843 686.375>
DStem2: 176 0 372 0 0.560132 0.828403<109.786 1821.66> 268.148 0 418.148 0 0.207912 0.978148<751.937 1424.66>
LayerCount: 2
Fore
SplineSet
1224 815 m 2,0,-1
 1276 815 l 2,1,2
 1472 815 1472 815 1472 647 c 0,3,4
 1472 602 1472 602 1458 544 c 0,5,6
 1431 435 1431 435 1334 374 c 0,7,8
 1255 325 1255 325 1133 325 c 0,9,10
 1024 325 1024 325 975 113 c 1,11,-1
 1181 113 l 2,12,13
 1307 113 1307 113 1368 163 c 1,14,-1
 1340 33 l 1,15,16
 1253 0 1253 0 1157 0 c 2,17,-1
 797 0 l 1,18,19
 890 439 890 439 1128 439 c 0,20,21
 1284 439 1284 439 1318 597 c 16,22,23
 1321 611 1321 611 1321 624 c 0,24,25
 1321 702 1321 702 1202 702 c 2,26,-1
 1185 702 l 2,27,28
 1102 702 1102 702 1000 653 c 1,29,-1
 1028 784 l 1,30,31
 1106 815 1106 815 1224 815 c 2,0,-1
176 0 m 1,32,-1
 1195 1510 l 1,33,-1
 1393 1510 l 1,34,-1
 372 0 l 1,35,-1
 176 0 l 1,32,-1
471 1510 m 1,36,-1
 704 1510 l 1,37,38
 715 1483 715 1483 715 1442 c 0,39,40
 715 1397 715 1397 702 1335 c 2,41,-1
 568 705 l 1,42,-1
 418 705 l 1,43,-1
 552 1335 l 2,44,45
 558 1366 558 1366 558 1396 c 1,46,-1
 447 1396 l 1,47,-1
 471 1510 l 1,36,-1
EndSplineSet
Validated: 1
EndChar

StartChar: threequarters
Encoding: 190 190 174
Width: 1745
Flags: W
HStem: 0 21G<383 592.523 1395 1549.24> 222 113<1256 1442> 716 118<517.577 730.585> 1108 114<546 759.99> 1417 113<575.878 828.703> 1490 20G<1388.5 1600>
VStem: 349 155<848.442 952> 383 196<0 196> 803 150<911.951 1095.22> 830 148<1287.18 1413.52> 1206 150<655 805> 1395 150<0 150> 1402 198<1312 1510> 1534 150<505 655>
DStem2: 383 0 579 0 0.560132 0.828403<109.786 1821.66> 1034.81 0 1184.79 0 0.207912 0.978148<373.667 823.001> 1395 0 1545 0 0.207912 0.978148<31.1868 226.921 342.441 669.586>
LayerCount: 2
Fore
SplineSet
769 1530 m 2,0,-1
 783 1530 l 2,1,2
 978 1530 978 1530 978 1402 c 0,3,4
 978 1378 978 1378 971 1349 c 8,5,6
 947 1251 947 1251 811 1200 c 1,7,8
 953 1182 953 1182 953 1058 c 0,9,10
 953 1018 953 1018 938 967 c 0,11,12
 903 843 903 843 790 775 c 0,13,14
 693 716 693 716 542 716 c 0,15,16
 349 716 349 716 349 904 c 0,17,18
 349 927 349 927 352 952 c 1,19,-1
 511 993 l 1,20,21
 504 961 504 961 504 935 c 0,22,23
 504 834 504 834 610 834 c 0,24,25
 761 834 761 834 800 1015 c 0,26,27
 803 1027 803 1027 803 1037 c 0,28,29
 803 1108 803 1108 681 1108 c 2,30,-1
 521 1108 l 1,31,-1
 546 1222 l 1,32,33
 799 1223 799 1223 829 1361 c 16,34,35
 830 1367 830 1367 830 1373 c 0,36,37
 830 1417 830 1417 745 1417 c 2,38,-1
 730 1417 l 2,39,40
 642 1417 642 1417 545 1368 c 1,41,-1
 573 1499 l 1,42,43
 665 1530 665 1530 769 1530 c 2,0,-1
383 0 m 1,44,-1
 1402 1510 l 1,45,-1
 1600 1510 l 1,46,-1
 579 0 l 1,47,-1
 383 0 l 1,44,-1
1545 0 m 1,48,-1
 1395 0 l 1,49,-1
 1442 222 l 1,50,-1
 1082 222 l 1,51,-1
 1206 805 l 17,52,-1
 1356 805 l 9,53,-1
 1256 335 l 1,54,-1
 1466 335 l 1,55,-1
 1534 655 l 1,56,-1
 1684 655 l 1,57,-1
 1545 0 l 1,48,-1
EndSplineSet
Validated: 1
EndChar

StartChar: AE
Encoding: 198 198 175
Width: 1897
Flags: W
HStem: 0 127<1213 1802.84> 698 130<556 1134 1362 1816> 1383 127<1398 1962> 1410 120<822.379 1171.2>
VStem: 180 200<0 200> 1239 194<1088.42 1344.08>
DStem2: 180 0 380 0 0.207912 0.978148<41.5823 755.1 888.081 1237.02> 986 0 1186.01 0 0.207912 0.978148<171.421 713.518 888.081 1247.83>
LayerCount: 2
Fore
SplineSet
180 0 m 1,0,-1
 376 921 l 2,1,2
 506 1530 506 1530 1086 1530 c 0,3,4
 1173 1530 1173 1530 1244 1510 c 1,5,-1
 1989 1510 l 1,6,-1
 1962 1383 l 1,7,-1
 1398 1383 l 1,8,9
 1433 1311 1433 1311 1433 1220 c 0,10,11
 1433 1165 1433 1165 1420 1104 c 2,12,-1
 1362 828 l 1,13,-1
 1844 828 l 1,14,-1
 1816 698 l 1,15,-1
 1334 698 l 1,16,-1
 1213 127 l 1,17,-1
 1544 127 l 2,18,19
 1726 127 1726 127 1859 197 c 1,20,-1
 1828 50 l 1,21,22
 1696 0 1696 0 1517 0 c 2,23,-1
 986 0 l 1,24,-1
 1134 698 l 1,25,-1
 528 698 l 1,26,-1
 380 0 l 1,27,-1
 180 0 l 1,0,-1
1162 828 m 1,28,-1
 1230 1148 l 2,29,30
 1239 1189 1239 1189 1239 1223 c 0,31,32
 1239 1410 1239 1410 983 1410 c 0,33,34
 680 1410 680 1410 576 924 c 2,35,-1
 556 828 l 1,36,-1
 1162 828 l 1,28,-1
EndSplineSet
Validated: 1
EndChar

StartChar: germandbls
Encoding: 223 223 176
Width: 1256
Flags: W
HStem: 0 107<592 793.164> 775 115<758 892.534> 1426 104<805.728 1069.67>
VStem: 200 180<0 180> 1032 189<384.163 691.172> 1097 181<1125.93 1398.54>
DStem2: 200 0 380 0 0.207912 0.978148<37.4241 1280.39>
LayerCount: 2
Fore
SplineSet
200 0 m 1,0,-1
 396 923 l 2,1,2
 525 1530 525 1530 996 1530 c 0,3,4
 1151 1530 1151 1530 1226 1451 c 0,5,6
 1278 1396 1278 1396 1278 1307 c 0,7,8
 1278 1266 1278 1266 1267 1219 c 0,9,10
 1209 970 1209 970 912 876 c 1,11,12
 1221 837 1221 837 1221 589 c 0,13,14
 1221 539 1221 539 1208 480 c 0,15,16
 1162 265 1162 265 1015 140 c 0,17,18
 851 0 851 0 569 0 c 1,19,-1
 592 107 l 1,20,21
 948 107 948 107 1027 523 c 16,22,23
 1032 551 1032 551 1032 576 c 0,24,25
 1032 762 1032 762 734 775 c 1,26,-1
 758 890 l 1,27,28
 1026 932 1026 932 1089 1228 c 16,29,30
 1097 1265 1097 1265 1097 1296 c 0,31,32
 1097 1426 1097 1426 950 1426 c 0,33,34
 682 1426 682 1426 576 924 c 2,35,-1
 380 0 l 1,36,-1
 200 0 l 1,0,-1
EndSplineSet
Validated: 1
EndChar

StartChar: Eth
Encoding: 208 208 177
Width: 1388
Flags: W
HStem: 0 127<427 890.477> 696 107<261 348 571 797> 1383 127<680 1185.66>
VStem: 476 204<1108.25 1382.24> 1265 204<955.664 1316.2>
DStem2: 200 0 400.005 0 0.207912 0.978148<171.421 711.562 862.588 1380.11> 1017.55 0 1227.55 0 0.207912 0.978148<379.02 1219.35>
LayerCount: 2
Fore
SplineSet
200 0 m 1,0,-1
 348 696 l 1,1,-1
 238 696 l 1,2,-1
 261 803 l 1,3,-1
 371 803 l 1,4,-1
 457 1210 l 2,5,6
 476 1299 476 1299 476 1354 c 0,7,8
 476 1437 476 1437 451 1510 c 1,9,-1
 1124 1510 l 2,10,11
 1469 1510 1469 1510 1469 1204 c 0,12,13
 1469 1133 1469 1133 1450 1044 c 2,14,-1
 1357 609 l 2,15,16
 1227 0 1227 0 586 0 c 2,17,-1
 200 0 l 1,0,-1
680 1383 m 1,18,19
 678 1309 678 1309 657 1210 c 2,20,-1
 571 803 l 1,21,-1
 820 803 l 1,22,-1
 797 696 l 1,23,-1
 548 696 l 1,24,-1
 427 127 l 1,25,-1
 715 127 l 2,26,27
 1045 127 1045 127 1147 609 c 2,28,-1
 1257 1125 l 2,29,30
 1265 1163 1265 1163 1265 1195 c 0,31,32
 1265 1383 1265 1383 994 1383 c 2,33,-1
 680 1383 l 1,18,19
EndSplineSet
Validated: 1
EndChar

StartChar: Dcroat
Encoding: 272 272 178
Width: 1388
Flags: W
HStem: 0 127<427 890.477> 696 107<261 348 571 797> 1383 127<680 1185.66>
VStem: 476 204<1108.25 1382.24> 1265 204<955.664 1316.2>
DStem2: 200 0 400.005 0 0.207912 0.978148<171.421 711.562 862.588 1380.11> 1017.55 0 1227.55 0 0.207912 0.978148<379.02 1219.35>
LayerCount: 2
Fore
SplineSet
200 0 m 1,0,-1
 348 696 l 1,1,-1
 238 696 l 1,2,-1
 261 803 l 1,3,-1
 371 803 l 1,4,-1
 457 1210 l 2,5,6
 476 1299 476 1299 476 1354 c 0,7,8
 476 1437 476 1437 451 1510 c 1,9,-1
 1124 1510 l 2,10,11
 1469 1510 1469 1510 1469 1204 c 0,12,13
 1469 1133 1469 1133 1450 1044 c 2,14,-1
 1357 609 l 2,15,16
 1227 0 1227 0 586 0 c 2,17,-1
 200 0 l 1,0,-1
680 1383 m 1,18,19
 678 1309 678 1309 657 1210 c 2,20,-1
 571 803 l 1,21,-1
 820 803 l 1,22,-1
 797 696 l 1,23,-1
 548 696 l 1,24,-1
 427 127 l 1,25,-1
 715 127 l 2,26,27
 1045 127 1045 127 1147 609 c 2,28,-1
 1257 1125 l 2,29,30
 1265 1163 1265 1163 1265 1195 c 0,31,32
 1265 1383 1265 1383 994 1383 c 2,33,-1
 680 1383 l 1,18,19
EndSplineSet
Validated: 1
EndChar

StartChar: Hbar
Encoding: 294 294 179
Width: 1406
Flags: W
HStem: 0 21G<200 404.253 1052 1276> 696 127<575 1154> 1231 106<374 461 677 1268 1490 1574> 1490 20G<451 675.5 1322.72 1527>
VStem: 200 200<0 200> 478 202<1337 1508.32> 1048 201<1.73767 403.562>
DStem2: 200 0 400 0 0.207912 0.978148<41.5823 753.144 882.982 1257.39> 1006.23 0 1206.23 0 0.207912 0.978148<193.081 711.513 841.352 1258.52 1408.36 1543.69>
LayerCount: 2
Fore
SplineSet
200 0 m 1,0,-1
 461 1230 l 17,1,-1
 351 1230 l 1,2,-1
 374 1337 l 1,3,-1
 477 1337 l 1,4,5
 478 1353 478 1353 478 1366 c 0,6,7
 478 1451 478 1451 451 1510 c 1,8,-1
 671 1510 l 1,9,10
 680 1462 680 1462 680 1407 c 0,11,12
 680 1374 680 1374 677 1337 c 1,13,-1
 1290 1337 l 1,14,-1
 1327 1510 l 1,15,-1
 1527 1510 l 1,16,-1
 1490 1337 l 1,17,-1
 1600 1337 l 1,18,-1
 1574 1232 l 1,19,-1
 1468 1232 l 1,20,-1
 1270 300 l 2,21,22
 1249 201 1249 201 1249 144 c 0,23,24
 1249 61 1249 61 1276 0 c 1,25,-1
 1056 0 l 1,26,27
 1048 50 1048 50 1048 105 c 0,28,29
 1048 196 1048 196 1070 300 c 2,30,-1
 1154 696 l 1,31,-1
 548 696 l 1,32,-1
 400 0 l 1,33,-1
 200 0 l 1,0,-1
661 1231 m 9,34,-1
 575 823 l 1,35,-1
 1181 823 l 1,36,-1
 1268 1231 l 1,37,-1
 661 1231 l 9,34,-1
EndSplineSet
Validated: 1
EndChar

StartChar: Eng
Encoding: 330 330 180
Width: 1406
Flags: W
HStem: -430 21G<718.219 925> 0 21G<200 404.248> 1330 180<673 889.496>
VStem: 200 200<0 200> 478 195<1115.47 1330> 1138 61<900 1009.01> 1336 191<1319 1510>
DStem2: 108.601 -430 308.601 -430 0.207912 0.978148<481.189 1830.85> 923.795 -430 1114.8 -430 0.207912 0.978148<421.044 1212.43 1359.61 1983.31>
LayerCount: 2
Fore
SplineSet
200 0 m 1,0,-1
 457 1210 l 2,1,2
 478 1309 478 1309 478 1365 c 0,3,4
 478 1446 478 1446 451 1510 c 1,5,-1
 671 1510 l 2,6,7
 1199 1510 1199 1510 1199 900 c 1,8,-1
 1206 900 l 1,9,-1
 1336 1510 l 1,10,-1
 1527 1510 l 1,11,-1
 1274 319 l 2,12,13
 1136 -331 1136 -331 714 -430 c 1,14,-1
 741 -302 l 1,15,16
 978 -175 978 -175 1083 319 c 0,17,18
 1138 578 1138 578 1138 770 c 0,19,20
 1138 1329 1138 1329 673 1330 c 1,21,22
 671 1276 671 1276 657 1210 c 2,23,-1
 400 0 l 1,24,-1
 200 0 l 1,0,-1
EndSplineSet
Validated: 1
EndChar

StartChar: OE
Encoding: 338 338 181
Width: 1939
Flags: W
HStem: -20 124<515.432 884.216> 0 127<1255 1844.84> 698 127<1403 1858> 1383 127<1440 2004> 1406 124<823.118 1196.76>
VStem: 236 204<172.471 536.906> 1269 205<971.156 1338.67>
DStem2: 155.949 -20 366.166 -20 0.207912 0.978148<366.228 1250.81> 1013.55 -20 1223.75 -20 0.207912 0.978148<321.384 777.667 907.505 1262.07>
LayerCount: 2
Fore
SplineSet
581 -20 m 0,0,1
 236 -20 236 -20 236 286 c 0,2,3
 236 357 236 357 255 446 c 2,4,-1
 356 921 l 2,5,6
 485 1530 485 1530 1128 1530 c 0,7,8
 1215 1530 1215 1530 1286 1510 c 1,9,-1
 2031 1510 l 1,10,-1
 2004 1383 l 1,11,-1
 1440 1383 l 1,12,13
 1474 1315 1474 1315 1474 1221 c 0,14,15
 1474 1153 1474 1153 1456 1071 c 2,16,-1
 1403 825 l 1,17,-1
 1885 825 l 1,18,-1
 1858 698 l 1,19,-1
 1376 698 l 1,20,-1
 1255 127 l 1,21,-1
 1586 127 l 2,22,23
 1768 127 1768 127 1901 197 c 1,24,-1
 1870 50 l 1,25,26
 1738 0 1738 0 1559 0 c 2,27,-1
 1028 0 l 1,28,-1
 1049 99 l 1,29,30
 865 -20 865 -20 581 -20 c 0,0,1
709 104 m 0,31,32
 1040 104 1040 104 1143 589 c 2,33,-1
 1261 1145 l 2,34,35
 1269 1184 1269 1184 1269 1217 c 0,36,37
 1269 1406 1269 1406 1000 1406 c 0,38,39
 669 1406 669 1406 566 921 c 2,40,-1
 448 365 l 2,41,42
 440 326 440 326 440 293 c 0,43,44
 440 104 440 104 709 104 c 0,31,32
EndSplineSet
Validated: 1
EndChar

StartChar: Oslash
Encoding: 216 216 182
Width: 1388
Flags: W
HStem: -20 124<505.831 888.41> 1406 124<820.59 1202.88>
VStem: 236 194<295 535.062> 1279 194<974.938 1215>
DStem2: 140.645 -92 340.862 -92 0.207912 0.978148<439.858 1331.86> 173 -35 259 -92 0.615307 0.788287<7.98406 173.525 418.269 1665.89 1910.63 2074.77> 1008.25 -92 1208.25 -92 0.207912 0.978148<441.576 1333.58>
LayerCount: 2
Fore
SplineSet
709 104 m 0,0,1
 1050 104 1050 104 1153 589 c 2,2,-1
 1271 1145 l 2,3,4
 1279 1182 1279 1182 1279 1215 c 1,5,-1
 469 178 l 1,6,7
 535 104 535 104 709 104 c 0,0,1
581 -20 m 0,8,9
 439 -20 439 -20 356 32 c 1,10,-1
 259 -92 l 1,11,-1
 173 -35 l 1,12,-1
 281 104 l 1,13,14
 236 175 236 175 236 286 c 0,15,16
 236 357 236 357 255 446 c 2,17,-1
 356 921 l 2,18,19
 485 1530 485 1530 1128 1530 c 0,20,21
 1270 1530 1270 1530 1353 1478 c 1,22,-1
 1449 1601 l 1,23,-1
 1536 1544 l 1,24,-1
 1428 1405 l 1,25,26
 1473 1334 1473 1334 1473 1224 c 0,27,28
 1473 1153 1473 1153 1454 1064 c 2,29,-1
 1353 589 l 2,30,31
 1224 -20 1224 -20 581 -20 c 0,8,9
1239 1332 m 1,32,33
 1174 1406 1174 1406 1000 1406 c 0,34,35
 659 1406 659 1406 556 921 c 2,36,-1
 438 365 l 2,37,38
 430 328 430 328 430 295 c 1,39,-1
 1239 1332 l 1,32,33
EndSplineSet
Validated: 1
EndChar

StartChar: Tbar
Encoding: 358 358 183
Width: 1040
Flags: W
HStem: 0 21G<420 624.242> 693 107<387 567 790 970> 1383 127<346.672 714 914 1324>
VStem: 420 200<0 200>
DStem2: 420 0 620 0 0.207912 0.978148<41.5823 708.419 859.445 1413.9>
LayerCount: 2
Fore
SplineSet
420 0 m 1,0,-1
 567 693 l 1,1,-1
 364 693 l 1,2,-1
 387 800 l 1,3,-1
 590 800 l 1,4,-1
 714 1383 l 1,5,-1
 604 1383 l 2,6,7
 427 1383 427 1383 289 1313 c 1,8,-1
 320 1460 l 1,9,10
 433 1510 433 1510 631 1510 c 2,11,-1
 1351 1510 l 1,12,-1
 1324 1383 l 1,13,-1
 914 1383 l 1,14,-1
 790 800 l 1,15,-1
 993 800 l 1,16,-1
 970 693 l 1,17,-1
 767 693 l 1,18,-1
 620 0 l 1,19,-1
 420 0 l 1,0,-1
EndSplineSet
Validated: 1
EndChar

StartChar: ae
Encoding: 230 230 184
Width: 1762
Flags: W
HStem: -20 130<327.717 576.453> -20 104<1032.39 1337.85> 576 101<573.672 861> 1016 104<651.28 889.031 1252.24 1555.24>
VStem: 119 194<129.965 344.675> 804 183<130.649 270.83> 1598 181<758.437 972.58>
DStem2: 1040 521 1009 377 0.916353 0.400372<0 595.786>
LayerCount: 2
Fore
SplineSet
375 -20 m 0,0,1
 119 -20 119 -20 119 165 c 0,2,3
 119 220 119 220 142 292 c 0,4,5
 203 482 203 482 424 588 c 0,6,7
 605 675 605 675 885 677 c 1,8,-1
 902 758 l 2,9,10
 915 819 915 819 915 870 c 0,11,12
 915 1016 915 1016 792 1016 c 0,13,14
 642 1016 642 1016 523 839 c 1,15,-1
 385 904 l 1,16,17
 563 1120 563 1120 878 1120 c 0,18,19
 1045 1120 1045 1120 1089 995 c 1,20,21
 1253 1120 1253 1120 1525 1120 c 0,22,23
 1779 1120 1779 1120 1779 859 c 0,24,25
 1779 791 1779 791 1762 706 c 1,26,-1
 1009 377 l 1,27,-1
 995 310 l 2,28,29
 987 272 987 272 987 242 c 0,30,31
 987 84 987 84 1189 84 c 0,32,33
 1387 84 1387 84 1483 337 c 1,34,-1
 1678 359 l 1,35,36
 1534 -20 1534 -20 1065 -20 c 0,37,38
 804 -20 804 -20 804 237 c 0,39,40
 804 254 804 254 805 271 c 1,41,42
 659 -20 659 -20 375 -20 c 0,0,1
1040 521 m 1,43,-1
 1584 764 l 1,44,-1
 1590 790 l 2,45,46
 1598 828 1598 828 1598 860 c 0,47,48
 1598 1016 1598 1016 1401 1016 c 0,49,50
 1145 1016 1145 1016 1059 612 c 2,51,-1
 1040 521 l 1,43,-1
448 110 m 0,52,53
 605 110 605 110 743 336 c 0,54,55
 816 455 816 455 861 576 c 1,56,57
 389 576 389 576 317 240 c 0,58,59
 313 221 313 221 313 204 c 0,60,61
 313 110 313 110 448 110 c 0,52,53
EndSplineSet
Validated: 1
EndChar

StartChar: dcroat
Encoding: 273 273 185
Width: 1204
Flags: W
HStem: -20 130<426.313 650.436> 0 21G<872 1068> 1004 116<667.003 963.125> 1230 107<864 1090 1282 1400> 1490 20G<1086 1282>
VStem: 209 192<134.404 483.859> 868 179<1.70593 351.253> 1107 179<1337 1508.03>
DStem2: 146.291 -20 336.605 -20 0.207912 0.978148<311.374 929.251> 825.045 -20 999.257 -20 0.207912 0.978148<211.279 322.037 483.631 885.699 1069.29 1277.77>
LayerCount: 2
Fore
SplineSet
1068 0 m 1,0,1
 876 0 l 1,2,3
 868 43 868 43 868 94 c 0,4,5
 868 183 868 183 892 295 c 1,6,7
 746 -20 746 -20 451 -20 c 0,8,9
 209 -20 209 -20 209 215 c 0,10,11
 209 276 209 276 226 355 c 2,12,-1
 281 612 l 2,13,14
 390 1120 390 1120 851 1120 c 0,15,16
 983 1120 983 1120 1047 1026 c 1,17,-1
 1090 1230 l 17,18,-1
 841 1230 l 1,19,-1
 864 1337 l 1,20,-1
 1106 1337 l 1,21,22
 1107 1353 1107 1353 1107 1367 c 0,23,24
 1107 1447 1107 1447 1086 1510 c 1,25,-1
 1278 1510 l 1,26,27
 1286 1467 1286 1467 1286 1416 c 0,28,29
 1286 1379 1286 1379 1282 1337 c 1,30,-1
 1423 1337 l 1,31,-1
 1400 1230 l 1,32,-1
 1265 1230 l 9,33,-1
 1066 294 l 2,34,35
 1047 205 1047 205 1047 147 c 0,36,37
 1047 66 1047 66 1068 0 c 1,0,1
529 110 m 0,38,39
 689 110 689 110 820 341.5 c 128,-1,40
 951 573 951 573 993 770 c 0,41,42
 1002 813 1002 813 1002 849 c 0,43,44
 1002 1004 1002 1004 826 1004 c 0,45,46
 554 1004 554 1004 471 612 c 2,47,-1
 411 330 l 2,48,49
 401 281 401 281 401 243 c 0,50,51
 401 110 401 110 529 110 c 0,38,39
EndSplineSet
Validated: 1
EndChar

StartChar: longs
Encoding: 383 383 186
Width: 809
Flags: W
HStem: 0 21G<200 384.254> 715 108<177.694 352> 1414 116<790.898 1086.71>
VStem: 200 180<0 180>
DStem2: 200 0 380 0 0.207912 0.978148<37.4241 730.978 830.195 1306.57>
LayerCount: 2
Fore
SplineSet
200 0 m 1,0,-1
 352 715 l 1,1,2
 241 715 241 715 151 665 c 1,3,-1
 175 778 l 1,4,5
 261 823 261 823 375 823 c 1,6,-1
 418 1025 l 2,7,8
 525 1530 525 1530 1079 1530 c 0,9,10
 1103 1530 1103 1530 1124 1528 c 1,11,-1
 1062 1383 l 1,12,13
 1010 1414 1010 1414 921 1414 c 0,14,15
 681 1414 681 1414 598 1025 c 2,16,-1
 380 0 l 1,17,-1
 200 0 l 1,0,-1
EndSplineSet
Validated: 1
EndChar

StartChar: hbar
Encoding: 295 295 187
Width: 1243
Flags: W
HStem: 0 21G<200 379.348 906 1107> 990 130<789.801 1011.14> 1230 107<349 461 653 885> 1490 20G<457 653>
VStem: 477 180<1337 1508.31> 902 185<1.56567 392.961> 1037 182<616.789 966.586>
DStem2: 200 0 375 0 0.207912 0.978148<36.3845 610.45 860.324 1257.39> 863.083 0 1043.3 0 0.207912 0.978148<176.989 873.237>
LayerCount: 2
Fore
SplineSet
200 0 m 1,0,-1
 461 1230 l 17,1,-1
 326 1230 l 1,2,-1
 349 1337 l 1,3,-1
 476 1337 l 1,4,5
 477 1352 477 1352 477 1365 c 0,6,7
 477 1446 477 1446 457 1510 c 1,8,-1
 649 1510 l 1,9,10
 657 1466 657 1466 657 1414 c 0,11,12
 657 1377 657 1377 653 1337 c 1,13,-1
 908 1337 l 1,14,-1
 885 1230 l 1,15,-1
 636 1230 l 9,16,-1
 546 806 l 1,17,18
 692 1120 692 1120 987 1120 c 0,19,20
 1219 1120 1219 1120 1219 888 c 0,21,22
 1219 825 1219 825 1202 745 c 2,23,-1
 1106 295 l 2,24,25
 1087 206 1087 206 1087 131 c 128,-1,26
 1087 56 1087 56 1107 0 c 1,27,-1
 910 0 l 1,28,29
 902 44 902 44 902 95 c 0,30,31
 902 183 902 183 926 296 c 2,32,-1
 1027 771 l 2,33,34
 1037 818 1037 818 1037 857 c 0,35,36
 1037 990 1037 990 908 990 c 0,37,38
 590 990 590 990 390 69 c 2,39,-1
 375 0 l 1,40,-1
 200 0 l 1,0,-1
EndSplineSet
Validated: 1
EndChar

StartChar: eng
Encoding: 331 331 188
Width: 1243
Flags: W
HStem: -430 21G<575.22 772> 0 21G<199 378.348> 990 130<788.801 1010.14> 1080 20G<369 565>
VStem: 389 180<808.619 1098.36> 1036 182<617.25 966.586>
DStem2: 107.601 -430 282.601 -430 0.207912 0.978148<475.991 1050.06 1299.93 1411.37> 770.583 -430 950.795 -430 0.207912 0.978148<412.143 1312.86>
LayerCount: 2
Fore
SplineSet
199 0 m 1,0,-1
 370 805 l 2,1,2
 389 894 389 894 389 955 c 0,3,4
 389 1038 389 1038 369 1100 c 1,5,-1
 561 1100 l 1,6,7
 569 1057 569 1057 569 1006 c 0,8,9
 569 917 569 917 545 806 c 1,10,11
 691 1120 691 1120 986 1120 c 0,12,13
 1218 1120 1218 1120 1218 888 c 0,14,15
 1218 825 1218 825 1201 745 c 2,16,-1
 1110 319 l 2,17,18
 973 -321 973 -321 571 -430 c 1,19,-1
 594 -321 l 1,20,21
 821 -190 821 -190 930 320 c 2,22,-1
 1026 771 l 2,23,24
 1036 818 1036 818 1036 857 c 0,25,26
 1036 990 1036 990 907 990 c 0,27,28
 589 990 589 990 389 69 c 2,29,-1
 374 0 l 1,30,-1
 199 0 l 1,0,-1
EndSplineSet
Validated: 1
EndChar

StartChar: eth
Encoding: 240 240 189
Width: 1189
Flags: W
HStem: -20 104<446.136 756.949> 1004 116<666.003 979.696> 1510 20G<826.889 914.5 1195.21 1241.1>
VStem: 215 183<131.537 484.703> 1023 190<611.219 1067.06>
DStem2: 145.427 -20 335.856 -20 0.207912 0.978148<309.737 929.223> 691 1250 724 1158 0.888793 0.458309<0 222.298 380.739 597.648> 844.021 -20 1034.02 -20 0.207912 0.978148<298.619 890.247>
LayerCount: 2
Fore
SplineSet
825 1004 m 0,0,1
 553 1004 553 1004 470 612 c 2,2,-1
 406 310 l 2,3,4
 398 273 398 273 398 242 c 0,5,6
 398 84 398 84 605 84 c 0,7,8
 866 84 866 84 952 488 c 2,9,-1
 1016 790 l 2,10,11
 1023 824 1023 824 1023 853 c 0,12,13
 1023 1004 1023 1004 825 1004 c 0,0,1
481 -20 m 0,14,15
 215 -20 215 -20 215 239 c 0,16,17
 215 307 215 307 233 392 c 2,18,-1
 280 612 l 2,19,20
 389 1120 389 1120 850 1120 c 0,21,22
 982 1120 982 1120 1046 1026 c 1,23,24
 1024 1151 1024 1151 943 1271 c 1,25,-1
 724 1158 l 1,26,-1
 691 1250 l 1,27,-1
 888 1353 l 1,28,29
 848 1404 848 1404 763 1485 c 1,30,-1
 878 1530 l 1,31,32
 951 1473 951 1473 1009 1414 c 1,33,-1
 1234 1530 l 1,34,-1
 1267 1437 l 1,35,-1
 1074 1338 l 1,36,37
 1213 1164 1213 1164 1213 922 c 0,38,39
 1213 821 1213 821 1189 708 c 2,40,-1
 1142 488 l 2,41,42
 1033 -20 1033 -20 481 -20 c 0,14,15
EndSplineSet
Validated: 1
EndChar

StartChar: oslash
Encoding: 248 248 190
Width: 1188
Flags: W
HStem: -20 104<439.682 759.894> 1016 104<662.106 970.922>
VStem: 215 173<232.232 484.234> 1034 173<615.586 887.468>
DStem2: 124.171 -121 304.388 -121 0.207912 0.978148<398.522 1009.53> 159 -65 246 -121 0.613727 0.789518<9.18123 183.128 373.451 1288.98 1470.65 1621.24> 832.553 -121 1012.55 -121 0.207912 0.978148<399.88 998.57>
LayerCount: 2
Fore
SplineSet
817 1016 m 0,0,1
 546 1016 546 1016 460 612 c 2,2,-1
 396 310 l 2,3,4
 388 272 388 272 388 242 c 0,5,6
 388 236 388 236 388 230 c 2,7,-1
 972 981 l 1,8,9
 918 1016 918 1016 817 1016 c 0,0,1
481 -20 m 0,10,11
 400 -20 400 -20 343 4 c 1,12,-1
 246 -121 l 1,13,-1
 159 -65 l 1,14,-1
 262 67 l 1,15,16
 215 130 215 130 215 239 c 0,17,18
 215 306 215 306 233 391 c 2,19,-1
 280 612 l 2,20,21
 388 1120 388 1120 941 1120 c 0,22,23
 1013 1120 1013 1120 1065 1101 c 1,24,-1
 1154 1215 l 1,25,-1
 1241 1159 l 1,26,-1
 1152 1044 l 1,27,28
 1207 980 1207 980 1207 861 c 0,29,30
 1207 794 1207 794 1189 709 c 2,31,-1
 1142 488 l 2,32,33
 1034 -20 1034 -20 481 -20 c 0,10,11
438 126 m 1,34,35
 492 84 492 84 605 84 c 0,36,37
 876 84 876 84 962 488 c 2,38,-1
 1026 790 l 2,39,40
 1034 828 1034 828 1034 858 c 0,41,42
 1034 875 1034 875 1032 889 c 1,43,-1
 438 126 l 1,34,35
EndSplineSet
Validated: 1
EndChar

StartChar: oe
Encoding: 339 339 191
Width: 1871
Flags: W
HStem: -20 104<446.136 757.434 1142.84 1446.85> 1016 104<664.849 977.147 1357.81 1664.24>
VStem: 215 183<131.537 484.414> 1707 181<758.437 972.58>
DStem2: 145.639 -20 335.856 -20 0.207912 0.978148<309.693 906.274> 844.021 -20 1033.86 -20 0.207912 0.978148<309.613 445.288 592.586 895.284> 1149 521 1118 377 0.916353 0.400372<0 595.786>
LayerCount: 2
Fore
SplineSet
817 1016 m 0,0,1
 556 1016 556 1016 470 612 c 2,2,-1
 406 310 l 2,3,4
 398 273 398 273 398 242 c 0,5,6
 398 84 398 84 605 84 c 0,7,8
 866 84 866 84 952 488 c 2,9,-1
 1016 790 l 2,10,11
 1024 827 1024 827 1024 858 c 0,12,13
 1024 1016 1024 1016 817 1016 c 0,0,1
481 -20 m 0,14,15
 215 -20 215 -20 215 239 c 0,16,17
 215 306 215 306 233 391 c 2,18,-1
 280 612 l 2,19,20
 388 1120 388 1120 941 1120 c 0,21,22
 1133 1120 1133 1120 1186 985 c 1,23,24
 1352 1120 1352 1120 1634 1120 c 0,25,26
 1888 1120 1888 1120 1888 859 c 0,27,28
 1888 791 1888 791 1871 706 c 1,29,-1
 1118 377 l 1,30,-1
 1104 310 l 2,31,32
 1096 273 1096 273 1096 242 c 0,33,34
 1096 84 1096 84 1298 84 c 0,35,36
 1496 84 1496 84 1592 337 c 1,37,-1
 1787 359 l 1,38,39
 1643 -20 1643 -20 1174 -20 c 0,40,41
 985 -20 985 -20 933 115 c 1,42,43
 766 -20 766 -20 481 -20 c 0,14,15
1149 521 m 1,44,-1
 1693 764 l 1,45,-1
 1699 790 l 2,46,47
 1707 828 1707 828 1707 860 c 0,48,49
 1707 1016 1707 1016 1510 1016 c 0,50,51
 1255 1016 1255 1016 1175 642 c 2,52,-1
 1149 521 l 1,44,-1
EndSplineSet
Validated: 1
EndChar

StartChar: tbar
Encoding: 359 359 192
Width: 800
Flags: W
HStem: 0 21G<353 554> 693 107<256 457 660 839> 993 107<258.976 521 724 1001> 1490 20G<567 768>
VStem: 349 185<1.70593 395.25> 587 185<1115 1508.19>
DStem2: 310.083 0 490.083 0 0.207912 0.978148<190.289 708.402 855.27 1015.15 1162.02 1390.93>
LayerCount: 2
Fore
SplineSet
357 0 m 1,0,1
 349 46 349 46 349 96 c 0,2,3
 349 183 349 183 373 296 c 2,4,-1
 457 693 l 1,5,-1
 233 693 l 1,6,-1
 256 800 l 1,7,-1
 480 800 l 1,8,-1
 521 993 l 1,9,10
 357 993 357 993 207 928 c 1,11,-1
 234 1053 l 1,12,13
 361 1100 361 1100 544 1100 c 1,14,-1
 569 1220 l 2,15,16
 587 1306 587 1306 587 1365 c 0,17,18
 587 1438 587 1438 567 1510 c 1,19,-1
 764 1510 l 1,20,21
 772 1466 772 1466 772 1414 c 0,22,23
 772 1330 772 1330 749 1220 c 2,24,-1
 724 1100 l 1,25,-1
 1024 1100 l 1,26,-1
 1001 993 l 1,27,-1
 701 993 l 1,28,-1
 660 800 l 1,29,-1
 862 800 l 1,30,-1
 839 693 l 1,31,-1
 637 693 l 1,32,-1
 553 296 l 2,33,34
 534 207 534 207 534 145 c 0,35,36
 534 63 534 63 554 0 c 1,37,-1
 357 0 l 1,0,1
EndSplineSet
Validated: 19457
EndChar

StartChar: Thorn
Encoding: 222 222 193
Width: 1291
Flags: W
HStem: 0 21G<200 404.259> 263 127<483 873.919> 1138 127<668 1065.52> 1490 20G<451 675.5>
VStem: 200 200<0 200> 478 202<1266.24 1508.26> 1139 204<733.414 1070.27>
DStem2: 200 0 400 0 0.207912 0.978148<41.5823 310.478 440.317 1205.03>
LayerCount: 2
Fore
SplineSet
200 0 m 1,0,-1
 457 1210 l 2,1,2
 478 1309 478 1309 478 1367 c 0,3,4
 478 1448 478 1448 451 1510 c 1,5,-1
 671 1510 l 1,6,7
 680 1461 680 1461 680 1404 c 0,8,9
 680 1339 680 1339 668 1265 c 1,10,-1
 998 1265 l 2,11,12
 1251 1265 1251 1265 1320 1098 c 0,13,14
 1343 1042 1343 1042 1343 959 c 0,15,16
 1343 905 1343 905 1333 855 c 0,17,18
 1214 263 1214 263 568 263 c 2,19,-1
 456 263 l 1,20,-1
 400 0 l 1,21,-1
 200 0 l 1,0,-1
642 1138 m 1,22,-1
 483 390 l 1,23,-1
 697 390 l 2,24,25
 1030 390 1030 390 1127 855 c 24,26,27
 1139 913 1139 913 1139 950 c 0,28,29
 1139 1138 1139 1138 868 1138 c 2,30,-1
 642 1138 l 1,22,-1
EndSplineSet
Validated: 1
EndChar

StartChar: thorn
Encoding: 254 254 194
Width: 1194
Flags: W
HStem: -410 21G<113 292.256> -20 116<474.516 768.823> 990 130<785.875 1011.14> 1490 20G<457 653>
VStem: 113 175<-410 -235> 477 180<1127.39 1508.43> 1037 182<616.141 966.497>
DStem2: 113 -410 288 -410 0.207912 0.978148<36.3845 531.223 713.836 1134.26 1279.45 1810.08> 776.124 -410 956.124 -410 0.207912 0.978148<674.484 1291.44>
LayerCount: 2
Fore
SplineSet
611 96 m 0,0,1
 884 96 884 96 967 488 c 2,2,-1
 1027 770 l 2,3,4
 1037 819 1037 819 1037 856 c 0,5,6
 1037 990 1037 990 908 990 c 0,7,8
 752 990 752 990 619 763 c 0,9,10
 491 546 491 546 445 330 c 16,11,12
 436 286 436 286 436 250 c 0,13,14
 436 96 436 96 611 96 c 0,0,1
587 -20 m 0,15,16
 454 -20 454 -20 391 74 c 1,17,-1
 288 -410 l 1,18,-1
 113 -410 l 9,19,-1
 458 1216 l 2,20,21
 477 1306 477 1306 477 1365 c 0,22,23
 477 1454 477 1454 457 1510 c 1,24,-1
 649 1510 l 1,25,26
 657 1466 657 1466 657 1414 c 0,27,28
 657 1326 657 1326 634 1218 c 2,29,-1
 546 806 l 1,30,31
 692 1120 692 1120 987 1120 c 0,32,33
 1219 1120 1219 1120 1219 888 c 0,34,35
 1219 824 1219 824 1202 745 c 2,36,-1
 1147 488 l 2,37,38
 1038 -20 1038 -20 587 -20 c 0,15,16
EndSplineSet
Validated: 1
EndChar

StartChar: florin
Encoding: 402 402 195
Width: 809
Flags: W
HStem: -430 21G<-86.7798 110.5> 715 108<262.966 352 555 832> 1414 116<790.898 1086.71>
DStem2: 108.795 -430 288.795 -430 0.207912 0.978148<411.835 1170.54 1318.39 1746.14>
LayerCount: 2
Fore
SplineSet
-91 -430 m 1,0,-1
 -68 -321 l 1,1,2
 160 -190 160 -190 268 319 c 2,3,-1
 352 715 l 1,4,5
 304 715 304 715 237 676 c 1,6,-1
 261 789 l 1,7,8
 324 823 324 823 375 823 c 1,9,-1
 418 1025 l 2,10,11
 525 1530 525 1530 1079 1530 c 0,12,13
 1103 1530 1103 1530 1124 1528 c 1,14,-1
 1062 1383 l 1,15,16
 1010 1414 1010 1414 921 1414 c 0,17,18
 681 1414 681 1414 598 1025 c 2,19,-1
 555 823 l 1,20,-1
 855 823 l 1,21,-1
 832 715 l 1,22,-1
 532 715 l 1,23,-1
 448 319 l 2,24,25
 312 -323 312 -323 -91 -430 c 1,0,-1
EndSplineSet
Validated: 1
EndChar

StartChar: circumflex
Encoding: 710 710 196
Width: 672
Flags: W
HStem: 1170 360
VStem: 325 572
LayerCount: 2
Fore
SplineSet
423 1170 m 1,0,-1
 325 1292 l 1,1,-1
 661 1530 l 1,2,-1
 897 1292 l 1,3,-1
 747 1170 l 1,4,-1
 624 1356 l 1,5,-1
 423 1170 l 1,0,-1
EndSplineSet
Validated: 1
EndChar

StartChar: caron
Encoding: 711 711 197
Width: 672
Flags: W
HStem: 1170 360
VStem: 349 572
LayerCount: 2
Fore
SplineSet
499 1530 m 1,0,-1
 622 1344 l 1,1,-1
 823 1530 l 1,2,-1
 921 1408 l 1,3,-1
 585 1170 l 1,4,-1
 349 1408 l 1,5,-1
 499 1530 l 1,0,-1
EndSplineSet
Validated: 1
EndChar

StartChar: uni02C9
Encoding: 713 713 198
Width: 672
Flags: W
HStem: 1292 127<352 897>
VStem: 325 599
LayerCount: 2
Fore
SplineSet
352 1419 m 17,0,-1
 924 1419 l 1,1,-1
 897 1292 l 1,2,-1
 325 1292 l 9,3,-1
 352 1419 l 17,0,-1
EndSplineSet
Validated: 1
EndChar

StartChar: breve
Encoding: 728 728 199
Width: 672
Flags: W
HStem: 1272 93<485.562 781.763>
VStem: 351 134<1365.31 1460> 814 118<1391.38 1464.25>
LayerCount: 2
Fore
SplineSet
494 1495 m 1,0,1
 485 1451 485 1451 485 1422 c 0,2,3
 485 1365 485 1365 521 1365 c 2,4,-1
 721 1365 l 2,5,6
 786 1365 786 1365 814 1495 c 1,7,-1
 932 1460 l 1,8,9
 892 1272 892 1272 762 1272 c 2,10,-1
 460 1272 l 2,11,12
 351 1272 351 1272 351 1386 c 0,13,14
 351 1418 351 1418 360 1460 c 1,15,-1
 494 1495 l 1,0,1
EndSplineSet
Validated: 1
EndChar

StartChar: dotaccent
Encoding: 729 729 200
Width: 344
Flags: W
HStem: 1275 255<377.619 562.381>
VStem: 339 262<1312.49 1492.53>
LayerCount: 2
Fore
SplineSet
497 1530 m 0,0,1
 601 1530 601 1530 601 1443 c 0,2,3
 601 1275 601 1275 443 1275 c 0,4,5
 339 1276 339 1276 339 1361 c 0,6,7
 339 1530 339 1530 497 1530 c 0,0,1
EndSplineSet
Validated: 1
EndChar

StartChar: ring
Encoding: 730 730 201
Width: 429
Flags: W
HStem: 1204 91<433.508 561.234> 1438 92<445.18 574.514>
VStem: 335 98<1296.18 1428.55> 575 101<1305.11 1436.97>
LayerCount: 2
Fore
SplineSet
488 1295 m 8,0,1
 556 1295 556 1295 572 1367 c 0,2,3
 575 1380 575 1380 575 1390 c 0,4,5
 575 1438 575 1438 519 1438 c 0,6,7
 452 1438 452 1438 436 1366 c 0,8,9
 433 1353 433 1353 433 1342 c 0,10,11
 433 1295 433 1295 488 1295 c 8,0,1
469 1204 m 0,12,13
 335 1204 335 1204 335 1317 c 0,14,15
 335 1341 335 1341 341 1370 c 0,16,17
 375 1530 375 1530 538 1530 c 0,18,19
 676 1530 676 1530 676 1420 c 0,20,21
 676 1398 676 1398 670 1371 c 0,22,23
 635 1204 635 1204 469 1204 c 0,12,13
EndSplineSet
Validated: 1
EndChar

StartChar: ogonek
Encoding: 731 731 202
Width: 380
Flags: W
HStem: -430 556
VStem: 8 163<-321.681 -75.9653>
LayerCount: 2
Fore
SplineSet
294 126 m 9,0,-1
 335 25 l 17,1,2
 200 -20 200 -20 176 -136 c 0,3,4
 171 -157 171 -157 171 -176 c 0,5,6
 171 -260 171 -260 259 -296 c 1,7,-1
 105 -430 l 17,8,9
 8 -349 8 -349 8 -232 c 0,10,11
 8 -200 8 -200 16 -164 c 0,12,13
 50 -2 50 -2 294 126 c 9,0,-1
EndSplineSet
Validated: 1
EndChar

StartChar: tilde
Encoding: 732 732 203
Width: 672
Flags: W
HStem: 1272 108<656.547 790.953> 1388 107<471.594 586.869>
VStem: 328 118<1302.75 1370.89> 814 118<1396.11 1464.25>
LayerCount: 2
Fore
SplineSet
328 1307 m 1,0,1
 368 1495 368 1495 496 1495 c 0,2,3
 615 1495 615 1495 667 1409 c 0,4,5
 685 1380 685 1380 740 1380 c 0,6,7
 789 1380 789 1380 814 1495 c 1,8,-1
 932 1460 l 1,9,10
 892 1272 892 1272 758 1272 c 0,11,12
 614 1272 614 1272 582 1355 c 0,13,14
 569 1388 569 1388 528 1388 c 0,15,16
 471 1388 471 1388 446 1272 c 1,17,-1
 328 1307 l 1,0,1
EndSplineSet
Validated: 1
EndChar

StartChar: hungarumlaut
Encoding: 733 733 204
Width: 792
Flags: W
HStem: 1170 360
LayerCount: 2
Fore
SplineSet
926 1530 m 1,0,-1
 1038 1392 l 1,1,-1
 722 1170 l 1,2,-1
 642 1267 l 1,3,-1
 926 1530 l 1,0,-1
603 1530 m 1,4,-1
 715 1392 l 1,5,-1
 399 1170 l 1,6,-1
 319 1267 l 1,7,-1
 603 1530 l 1,4,-1
EndSplineSet
Validated: 1
EndChar

StartChar: uni203D
Encoding: 8253 8253 205
Width: 1389
Flags: W
HStem: -20 255<570.619 755.381> 574 128<908.154 1068.96> 1401 129<1080.35 1210.25>
VStem: 356 221<976 1063.73> 532 262<17.1338 197.866> 1279 203<1006.42 1334.57>
LayerCount: 2
Fore
SplineSet
636 -20 m 0,0,1
 532 -20 532 -20 532 66 c 0,2,3
 532 235 532 235 690 235 c 0,4,5
 794 235 794 235 794 149 c 0,6,7
 794 -20 794 -20 636 -20 c 0,0,1
1128 1530 m 0,8,9
 1482 1530 1482 1530 1482 1244 c 0,10,11
 1482 1168 1482 1168 1457 1072 c 0,12,13
 1397 841 1397 841 1281 714 c 0,14,15
 1154 574 1154 574 960 574 c 0,16,17
 866 574 866 574 817 345 c 1,18,-1
 603 276 l 1,19,20
 657 528 657 528 761 631 c 1,21,-1
 891 1393 l 1,22,23
 652 1331 652 1331 577 976 c 1,24,-1
 356 921 l 1,25,26
 485 1530 485 1530 1128 1530 c 0,8,9
1084 1401 m 1,27,-1
 906 701 l 1,28,29
 918 702 918 702 929 702 c 0,30,31
 1177 702 1177 702 1271 1142 c 0,32,33
 1279 1181 1279 1181 1279 1214 c 0,34,35
 1279 1375 1279 1375 1084 1401 c 1,27,-1
EndSplineSet
Validated: 1
EndChar

StartChar: afii61352
Encoding: 8470 8470 206
Width: 2008
Flags: W
HStem: 0 150<1316 1908> 218 112<1511.61 1747.42> 725 112<1670.42 1907.5> 1330 180<673 863.715>
VStem: 200 200<0 200> 478 195<1115.47 1330> 1102 97<900 1026.14> 1336 191<1319 1510> 1438 146<334.352 599.323> 1833 148<456.484 720.737>
DStem2: 200 0 400 0 0.207912 0.978148<41.5823 1392.2> 1015 0 1205 0 0.207912 0.978148<39.5032 522.685 920.044 1543.74> 1350.01 0 1499.64 0 0.207912 0.978148<427.529 759.116> 1693.36 0 1843.36 0 0.207912 0.978148<356.617 682.129>
LayerCount: 2
Fore
SplineSet
1908 0 m 1,0,-1
 1284 0 l 1,1,-1
 1316 150 l 1,2,-1
 1940 150 l 1,3,-1
 1908 0 l 1,0,-1
1757 725 m 8,4,5
 1653 725 1653 725 1618 559 c 2,6,-1
 1587 411 l 2,7,8
 1584 398 1584 398 1584 387 c 0,9,10
 1584 330 1584 330 1662 330 c 8,11,12
 1763 330 1763 330 1799 497 c 2,13,-1
 1830 645 l 2,14,15
 1833 658 1833 658 1833 668 c 0,16,17
 1833 725 1833 725 1757 725 c 8,4,5
1834 837 m 0,18,19
 1981 837 1981 837 1981 689 c 0,20,21
 1981 648 1981 648 1970 595 c 2,22,-1
 1949 497 l 2,23,24
 1889 218 1889 218 1589 218 c 0,25,26
 1438 218 1438 218 1438 371 c 0,27,28
 1438 411 1438 411 1448 461 c 2,29,-1
 1468 559 l 2,30,31
 1525 837 1525 837 1834 837 c 0,18,19
200 0 m 1,32,-1
 457 1210 l 2,33,34
 478 1309 478 1309 478 1366 c 0,35,36
 478 1449 478 1449 451 1510 c 1,37,-1
 671 1510 l 2,38,39
 1199 1510 1199 1510 1199 900 c 1,40,-1
 1206 900 l 1,41,-1
 1336 1510 l 1,42,-1
 1527 1510 l 1,43,-1
 1205 0 l 1,44,-1
 1015 0 l 1,45,46
 1102 413 1102 413 1102 698 c 0,47,48
 1102 1330 1102 1330 673 1330 c 1,49,50
 673 1285 673 1285 657 1210 c 2,51,-1
 400 0 l 1,52,-1
 200 0 l 1,32,-1
EndSplineSet
Validated: 1
EndChar

StartChar: uni2117
Encoding: 8471 8471 207
Width: 1396
Flags: W
HStem: 191 74<585.408 978.873> 599 113<768 958.511> 1036 114<826.84 1035.85> 1257 74<740.768 1134.47>
VStem: 304 72<485.34 878.297> 540 150<345 495> 1045 151<817.414 1023.4> 1344 72<643.703 1036.66>
DStem2: 507.266 191 657.266 191 0.207912 0.978148<188.627 448.304 563.824 863.694>
LayerCount: 2
Fore
SplineSet
763 265 m 0,0,1
 982 265 982 265 1133 389 c 0,2,3
 1305 531 1305 531 1337 761 c 0,4,5
 1344 809 1344 809 1344 853 c 0,6,7
 1344 1013 1344 1013 1257 1122 c 0,8,9
 1151 1257 1151 1257 956 1257 c 0,10,11
 737 1257 737 1257 587 1133 c 0,12,13
 415 991 415 991 383 761 c 0,14,15
 376 713 376 713 376 669 c 0,16,17
 376 509 376 509 463 400 c 0,18,19
 569 265 569 265 763 265 c 0,0,1
749 191 m 0,20,21
 526 191 526 191 404 346 c 0,22,23
 304 471 304 471 304 655 c 0,24,25
 304 706 304 706 312 761 c 0,26,27
 348 1026 348 1026 546 1189 c 0,28,29
 719 1331 719 1331 971 1331 c 0,30,31
 1194 1331 1194 1331 1316 1176 c 0,32,33
 1416 1051 1416 1051 1416 867 c 0,34,35
 1416 816 1416 816 1408 761 c 0,36,37
 1372 496 1372 496 1174 333 c 0,38,39
 1001 191 1001 191 749 191 c 0,20,21
768 712 m 1,40,-1
 850 712 l 2,41,42
 996 712 996 712 1042 932 c 16,43,44
 1045 946 1045 946 1045 958 c 0,45,46
 1045 1036 1045 1036 925 1036 c 2,47,-1
 834 1036 l 1,48,49
 828 997 828 997 824 976 c 2,50,-1
 768 712 l 1,40,-1
540 345 m 1,51,-1
 674 975 l 2,52,53
 681 1008 681 1008 681 1038 c 0,54,55
 681 1094 681 1094 659 1150 c 1,56,-1
 1001 1150 l 2,57,58
 1196 1150 1196 1150 1196 995 c 0,59,60
 1192 915 1192 915 1163 841 c 0,61,62
 1066 599 1066 599 854 599 c 2,63,-1
 744 599 l 1,64,-1
 690 345 l 1,65,-1
 540 345 l 1,51,-1
EndSplineSet
Validated: 1
EndChar

StartChar: integral
Encoding: 8747 8747 208
Width: 1062
Flags: W
HStem: -432 136<-34.1797 268.345> 1394 136<1026.66 1329.68>
DStem2: 338.809 -432 538.809 -432 0.207912 0.978148<301.151 1741.42>
LayerCount: 2
Fore
SplineSet
-81 -429 m 9,0,-1
 -9 -260 l 17,1,2
 40 -296 40 -296 138 -296 c 8,3,4
 368 -296 368 -296 447 77 c 2,5,-1
 648 1021 l 2,6,7
 756 1530 756 1530 1320 1530 c 0,8,9
 1350 1530 1350 1530 1377 1527 c 9,10,-1
 1305 1358 l 17,11,12
 1256 1394 1256 1394 1157 1394 c 8,13,14
 927 1394 927 1394 848 1021 c 2,15,-1
 647 77 l 18,16,17
 539 -432 539 -432 -25 -432 c 0,18,19
 -55 -432 -55 -432 -81 -429 c 9,0,-1
EndSplineSet
Validated: 1
EndChar

StartChar: uni1E9E
Encoding: 7838 7838 209
Width: 1374
Flags: W
HStem: 0 127<715 912.426> 772 138<1020.11 1131.29> 1406 124<845.28 1171.52>
VStem: 200 200<0 200> 823 194<913.628 1074> 1159 206<432.166 748.331> 1202 203<1267.64 1369.85>
DStem2: 200 0 400 0 0.207912 0.978148<41.5823 1237.49>
LayerCount: 2
Fore
SplineSet
200 0 m 1,0,-1
 396 921 l 2,1,2
 526 1530 526 1530 1138 1530 c 0,3,4
 1405 1530 1405 1530 1405 1220 c 0,5,6
 1405 1210 1405 1210 1405 1199 c 1,7,8
 1051 1147 1051 1147 1021 1004 c 16,9,10
 1017 987 1017 987 1017 973 c 0,11,12
 1017 910 1017 910 1090 910 c 0,13,14
 1365 910 1365 910 1365 665 c 0,15,16
 1365 585 1365 585 1336 480 c 0,17,18
 1288 308 1288 308 1176 186 c 0,19,20
 1003 0 1003 0 688 0 c 1,21,-1
 715 127 l 1,22,23
 1063 127 1063 127 1147 525 c 16,24,25
 1159 584 1159 584 1159 629 c 0,26,27
 1159 772 1159 772 1034 772 c 0,28,29
 921 772 921 772 869 826 c 0,30,31
 823 873 823 873 823 941 c 0,32,33
 823 967 823 967 830 997 c 0,34,35
 875 1184 875 1184 1202 1280 c 1,36,37
 1202 1285 1202 1285 1202 1290 c 0,38,39
 1202 1406 1202 1406 1010 1406 c 0,40,41
 699 1406 699 1406 596 921 c 2,42,-1
 400 0 l 1,43,-1
 200 0 l 1,0,-1
EndSplineSet
Validated: 1
EndChar

StartChar: ntilde
Encoding: 241 241 210
Width: 1243
Flags: W
HStem: 0 21G<200 379.348 906 1107> 990 130<789.801 1011.14> 1080 20G<370 566> 1253 108<959.547 1093.95> 1369 107<774.594 889.869>
VStem: 390 180<808.619 1098.36> 631 118<1283.75 1351.89> 902 185<1.70569 393.07> 1037 182<617.148 966.586> 1117 118<1377.11 1445.25>
DStem2: 200 0 375 0 0.207912 0.978148<36.3845 610.45 860.324 972.71> 863.083 0 1043.3 0 0.207912 0.978148<189.311 873.237>
LayerCount: 2
Fore
SplineSet
200 0 m 1,0,-1
 371 805 l 2,1,2
 390 894 390 894 390 956 c 0,3,4
 390 1038 390 1038 370 1100 c 1,5,-1
 562 1100 l 1,6,7
 570 1057 570 1057 570 1006 c 0,8,9
 570 917 570 917 546 806 c 1,10,11
 692 1120 692 1120 987 1120 c 0,12,13
 1219 1120 1219 1120 1219 888 c 0,14,15
 1219 826 1219 826 1202 746 c 2,16,-1
 1106 295 l 2,17,18
 1087 206 1087 206 1087 144 c 0,19,20
 1087 65 1087 65 1107 0 c 1,21,-1
 910 0 l 1,22,23
 902 44 902 44 902 95 c 0,24,25
 902 183 902 183 926 296 c 2,26,-1
 1027 771 l 2,27,28
 1037 818 1037 818 1037 857 c 0,29,30
 1037 990 1037 990 908 990 c 0,31,32
 590 990 590 990 390 69 c 2,33,-1
 375 0 l 1,34,-1
 200 0 l 1,0,-1
631 1288 m 1,35,36
 671 1476 671 1476 799 1476 c 0,37,38
 918 1476 918 1476 970 1390 c 0,39,40
 988 1361 988 1361 1043 1361 c 0,41,42
 1092 1361 1092 1361 1117 1476 c 1,43,-1
 1235 1441 l 1,44,45
 1195 1253 1195 1253 1061 1253 c 0,46,47
 917 1253 917 1253 885 1336 c 0,48,49
 872 1369 872 1369 831 1369 c 0,50,51
 774 1369 774 1369 749 1253 c 1,52,-1
 631 1288 l 1,35,36
EndSplineSet
Validated: 1
EndChar

StartChar: ograve
Encoding: 242 242 211
Width: 1188
Flags: W
HStem: -20 104<446.136 757.151> 1016 104<664.849 975.864> 1510 20G<782.207 820.286>
VStem: 215 183<131.537 484.414> 1024 183<615.586 968.463>
DStem2: 145.639 -20 335.856 -20 0.207912 0.978148<309.693 906.274> 844.021 -20 1034.02 -20 0.207912 0.978148<298.703 895.284>
LayerCount: 2
Fore
SplineSet
817 1016 m 0,0,1
 556 1016 556 1016 470 612 c 2,2,-1
 406 310 l 2,3,4
 398 273 398 273 398 242 c 0,5,6
 398 84 398 84 605 84 c 0,7,8
 866 84 866 84 952 488 c 2,9,-1
 1016 790 l 2,10,11
 1024 827 1024 827 1024 858 c 0,12,13
 1024 1016 1024 1016 817 1016 c 0,0,1
481 -20 m 0,14,15
 215 -20 215 -20 215 239 c 0,16,17
 215 306 215 306 233 391 c 2,18,-1
 280 612 l 2,19,20
 388 1120 388 1120 941 1120 c 0,21,22
 1207 1120 1207 1120 1207 861 c 0,23,24
 1207 794 1207 794 1189 709 c 2,25,-1
 1142 488 l 2,26,27
 1034 -20 1034 -20 481 -20 c 0,14,15
807 1530 m 1,28,-1
 993 1250 l 1,29,-1
 893 1170 l 1,30,-1
 657 1409 l 1,31,-1
 807 1530 l 1,28,-1
EndSplineSet
Validated: 1
EndChar

StartChar: Agrave
Encoding: 192 192 212
Width: 1386
Flags: W
HStem: 0 21G<180 384.256 1030 1256> 719 127<560 1139> 1407 123<821.923 1168.4>
VStem: 180 200<0 200> 1024 206<1.65955 384.336> 1238 193<978.625 1341.85>
DStem2: 180 0 380 0 0.207912 0.978148<41.5823 776.681 906.519 1237.02> 986.233 0 1186.23 0 0.207912 0.978148<192.491 735.05 864.889 1244.64>
LayerCount: 2
Fore
SplineSet
1166 846 m 1,0,-1
 1229 1145 l 2,1,2
 1238 1186 1238 1186 1238 1220 c 0,3,4
 1238 1407 1238 1407 982 1407 c 0,5,6
 679 1407 679 1407 576 921 c 2,7,-1
 560 846 l 1,8,-1
 1166 846 l 1,0,-1
180 0 m 1,9,-1
 376 921 l 2,10,11
 506 1530 506 1530 1086 1530 c 0,12,13
 1431 1530 1431 1530 1431 1223 c 0,14,15
 1431 1154 1431 1154 1412 1064 c 2,16,-1
 1250 300 l 2,17,18
 1230 206 1230 206 1230 143 c 0,19,20
 1230 67 1230 67 1256 0 c 1,21,-1
 1036 0 l 1,22,23
 1024 39 1024 39 1024 96 c 0,24,25
 1024 178 1024 178 1050 300 c 2,26,-1
 1139 719 l 1,27,-1
 533 719 l 1,28,-1
 380 0 l 1,29,-1
 180 0 l 1,9,-1
949 1920 m 1,30,-1
 1135 1640 l 1,31,-1
 1035 1560 l 1,32,-1
 799 1799 l 1,33,-1
 949 1920 l 1,30,-1
EndSplineSet
Validated: 1
EndChar

StartChar: Sacute
Encoding: 346 346 213
Width: 1368
Flags: W
HStem: -20 124<526.158 884.938> 745 151<704.227 1047> 1406 124<811.61 1139.61>
VStem: 232 215<176.289 365> 423 217<953.936 1199.28> 1113 216<407.472 682.465> 1203 213<1145 1345.94>
LayerCount: 2
Fore
SplineSet
1238 1920 m 1,0,-1
 1350 1782 l 1,1,-1
 1034 1560 l 1,2,-1
 954 1657 l 1,3,-1
 1238 1920 l 1,0,-1
571 -20 m 0,4,5
 232 -20 232 -20 232 279 c 0,6,7
 232 319 232 319 238 365 c 9,8,-1
 459 420 l 17,9,10
 447 363 447 363 447 317 c 0,11,12
 447 104 447 104 699 104 c 0,13,14
 1020 104 1020 104 1106 507 c 16,15,16
 1113 541 1113 541 1113 570 c 0,17,18
 1113 745 1113 745 849 745 c 0,19,20
 423 745 423 745 423 1009 c 0,21,22
 423 1067 423 1067 444 1138 c 0,23,24
 497 1321 497 1321 670 1426 c 0,25,26
 840 1530 840 1530 1118 1530 c 0,27,28
 1416 1530 1416 1530 1416 1229 c 0,29,30
 1416 1190 1416 1190 1411 1145 c 9,31,-1
 1190 1090 l 17,32,33
 1203 1153 1203 1153 1203 1204 c 0,34,35
 1203 1406 1203 1406 990 1406 c 0,36,37
 722 1406 722 1406 650 1127 c 0,38,39
 640 1090 640 1090 640 1059 c 0,40,41
 640 896 640 896 904 896 c 0,42,43
 1329 896 1329 896 1329 616 c 0,44,45
 1329 565 1329 565 1315 504 c 0,46,47
 1253 241 1253 241 1054 105 c 0,48,49
 870 -20 870 -20 571 -20 c 0,4,5
EndSplineSet
Validated: 1
EndChar

StartChar: Aacute
Encoding: 193 193 214
Width: 1386
Flags: W
HStem: 0 21G<180 384.256 1030 1256> 719 127<560 1139> 1407 123<821.923 1168.4>
VStem: 180 200<0 200> 1024 206<1.65955 384.336> 1238 193<978.625 1341.85>
DStem2: 180 0 380 0 0.207912 0.978148<41.5823 776.681 906.519 1237.02> 986.233 0 1186.23 0 0.207912 0.978148<192.491 735.05 864.889 1244.64>
LayerCount: 2
Fore
SplineSet
1248 1920 m 1,0,-1
 1360 1782 l 1,1,-1
 1044 1560 l 1,2,-1
 964 1657 l 1,3,-1
 1248 1920 l 1,0,-1
1166 846 m 1,4,-1
 1229 1145 l 2,5,6
 1238 1186 1238 1186 1238 1220 c 0,7,8
 1238 1407 1238 1407 982 1407 c 0,9,10
 679 1407 679 1407 576 921 c 2,11,-1
 560 846 l 1,12,-1
 1166 846 l 1,4,-1
180 0 m 1,13,-1
 376 921 l 2,14,15
 506 1530 506 1530 1086 1530 c 0,16,17
 1431 1530 1431 1530 1431 1223 c 0,18,19
 1431 1154 1431 1154 1412 1064 c 2,20,-1
 1250 300 l 2,21,22
 1230 206 1230 206 1230 143 c 0,23,24
 1230 67 1230 67 1256 0 c 1,25,-1
 1036 0 l 1,26,27
 1024 39 1024 39 1024 96 c 0,28,29
 1024 178 1024 178 1050 300 c 2,30,-1
 1139 719 l 1,31,-1
 533 719 l 1,32,-1
 380 0 l 1,33,-1
 180 0 l 1,13,-1
EndSplineSet
Validated: 1
EndChar

StartChar: Acircumflex
Encoding: 194 194 215
Width: 1386
Flags: W
HStem: 0 21G<180 384.256 1030 1256> 719 127<560 1139> 1407 123<821.923 1168.4>
VStem: 180 200<0 200> 1024 206<1.65955 384.336> 1238 193<978.625 1341.85>
DStem2: 180 0 380 0 0.207912 0.978148<41.5823 776.681 906.519 1237.02> 986.233 0 1186.23 0 0.207912 0.978148<192.491 735.05 864.889 1244.64>
LayerCount: 2
Fore
SplineSet
1166 846 m 1,0,-1
 1229 1145 l 2,1,2
 1238 1186 1238 1186 1238 1220 c 0,3,4
 1238 1407 1238 1407 982 1407 c 0,5,6
 679 1407 679 1407 576 921 c 2,7,-1
 560 846 l 1,8,-1
 1166 846 l 1,0,-1
180 0 m 1,9,-1
 376 921 l 2,10,11
 506 1530 506 1530 1086 1530 c 0,12,13
 1431 1530 1431 1530 1431 1223 c 0,14,15
 1431 1154 1431 1154 1412 1064 c 2,16,-1
 1250 300 l 2,17,18
 1230 206 1230 206 1230 143 c 0,19,20
 1230 67 1230 67 1256 0 c 1,21,-1
 1036 0 l 1,22,23
 1024 39 1024 39 1024 96 c 0,24,25
 1024 178 1024 178 1050 300 c 2,26,-1
 1139 719 l 1,27,-1
 533 719 l 1,28,-1
 380 0 l 1,29,-1
 180 0 l 1,9,-1
894 1560 m 1,30,-1
 796 1682 l 1,31,-1
 1132 1920 l 1,32,-1
 1368 1682 l 1,33,-1
 1218 1560 l 1,34,-1
 1095 1746 l 1,35,-1
 894 1560 l 1,30,-1
EndSplineSet
Validated: 1
EndChar

StartChar: Atilde
Encoding: 195 195 216
Width: 1386
Flags: W
HStem: 0 21G<180 384.256 1030 1256> 719 127<560 1139> 1407 123<821.923 1168.4> 1634 108<1131.55 1265.95> 1750 107<946.594 1061.87>
VStem: 180 200<0 200> 803 118<1664.75 1732.89> 1024 206<1.65955 384.336> 1238 193<978.625 1341.85> 1289 118<1758.11 1826.25>
DStem2: 180 0 380 0 0.207912 0.978148<41.5823 776.681 906.519 1237.02> 986.233 0 1186.23 0 0.207912 0.978148<192.491 735.05 864.889 1244.64>
LayerCount: 2
Fore
SplineSet
1166 846 m 1,0,-1
 1229 1145 l 2,1,2
 1238 1186 1238 1186 1238 1220 c 0,3,4
 1238 1407 1238 1407 982 1407 c 0,5,6
 679 1407 679 1407 576 921 c 2,7,-1
 560 846 l 1,8,-1
 1166 846 l 1,0,-1
180 0 m 1,9,-1
 376 921 l 2,10,11
 506 1530 506 1530 1086 1530 c 0,12,13
 1431 1530 1431 1530 1431 1223 c 0,14,15
 1431 1154 1431 1154 1412 1064 c 2,16,-1
 1250 300 l 2,17,18
 1230 206 1230 206 1230 143 c 0,19,20
 1230 67 1230 67 1256 0 c 1,21,-1
 1036 0 l 1,22,23
 1024 39 1024 39 1024 96 c 0,24,25
 1024 178 1024 178 1050 300 c 2,26,-1
 1139 719 l 1,27,-1
 533 719 l 1,28,-1
 380 0 l 1,29,-1
 180 0 l 1,9,-1
803 1669 m 1,30,31
 843 1857 843 1857 971 1857 c 0,32,33
 1090 1857 1090 1857 1142 1771 c 0,34,35
 1160 1742 1160 1742 1215 1742 c 0,36,37
 1264 1742 1264 1742 1289 1857 c 1,38,-1
 1407 1822 l 1,39,40
 1367 1634 1367 1634 1233 1634 c 0,41,42
 1089 1634 1089 1634 1057 1717 c 0,43,44
 1044 1750 1044 1750 1003 1750 c 0,45,46
 946 1750 946 1750 921 1634 c 1,47,-1
 803 1669 l 1,30,31
EndSplineSet
Validated: 1
EndChar

StartChar: Adieresis
Encoding: 196 196 217
Width: 1386
Flags: W
HStem: 0 21G<180 384.256 1030 1256> 719 127<560 1139> 1407 123<821.923 1168.4> 1630 229<846.534 1012.09 1198.53 1364.09>
VStem: 180 200<0 200> 812 235<1665.21 1824.91> 1024 206<1.65955 384.336> 1164 235<1665.21 1824.91> 1238 193<978.625 1341.85>
DStem2: 180 0 380 0 0.207912 0.978148<41.5823 776.681 906.519 1237.02> 986.233 0 1186.23 0 0.207912 0.978148<192.491 735.05 864.889 1244.64>
LayerCount: 2
Fore
SplineSet
1305 1859 m 0,0,1
 1399 1859 1399 1859 1399 1781 c 0,2,3
 1399 1765 1399 1765 1395 1745 c 0,4,5
 1371 1630 1371 1630 1257 1630 c 0,6,7
 1164 1630 1164 1630 1164 1708 c 0,8,9
 1164 1725 1164 1725 1168 1745 c 0,10,11
 1191 1859 1191 1859 1305 1859 c 0,0,1
953 1859 m 0,12,13
 1047 1859 1047 1859 1047 1781 c 0,14,15
 1047 1765 1047 1765 1043 1745 c 0,16,17
 1019 1630 1019 1630 905 1630 c 0,18,19
 812 1630 812 1630 812 1708 c 0,20,21
 812 1725 812 1725 816 1745 c 0,22,23
 839 1859 839 1859 953 1859 c 0,12,13
1166 846 m 1,24,-1
 1229 1145 l 2,25,26
 1238 1186 1238 1186 1238 1220 c 0,27,28
 1238 1407 1238 1407 982 1407 c 0,29,30
 679 1407 679 1407 576 921 c 2,31,-1
 560 846 l 1,32,-1
 1166 846 l 1,24,-1
180 0 m 1,33,-1
 376 921 l 2,34,35
 506 1530 506 1530 1086 1530 c 0,36,37
 1431 1530 1431 1530 1431 1223 c 0,38,39
 1431 1154 1431 1154 1412 1064 c 2,40,-1
 1250 300 l 2,41,42
 1230 206 1230 206 1230 143 c 0,43,44
 1230 67 1230 67 1256 0 c 1,45,-1
 1036 0 l 1,46,47
 1024 39 1024 39 1024 96 c 0,48,49
 1024 178 1024 178 1050 300 c 2,50,-1
 1139 719 l 1,51,-1
 533 719 l 1,52,-1
 380 0 l 1,53,-1
 180 0 l 1,33,-1
EndSplineSet
Validated: 1
EndChar

StartChar: Aring
Encoding: 197 197 218
Width: 1386
Flags: W
HStem: 0 21G<180 384.256 1030 1256> 719 127<560 1139> 1407 123<821.923 1168.4> 1594 91<1019.51 1147.23> 1828 92<1031.18 1160.51>
VStem: 180 200<0 200> 921 98<1686.18 1818.55> 1024 206<1.65955 384.336> 1161 101<1695.11 1826.97> 1238 193<978.625 1341.85>
DStem2: 180 0 380 0 0.207912 0.978148<41.5823 776.681 906.519 1237.02> 986.233 0 1186.23 0 0.207912 0.978148<192.491 735.05 864.889 1244.64>
LayerCount: 2
Fore
SplineSet
1166 846 m 1,0,-1
 1229 1145 l 2,1,2
 1238 1186 1238 1186 1238 1220 c 0,3,4
 1238 1407 1238 1407 982 1407 c 0,5,6
 679 1407 679 1407 576 921 c 2,7,-1
 560 846 l 1,8,-1
 1166 846 l 1,0,-1
180 0 m 1,9,-1
 376 921 l 2,10,11
 506 1530 506 1530 1086 1530 c 0,12,13
 1431 1530 1431 1530 1431 1223 c 0,14,15
 1431 1154 1431 1154 1412 1064 c 2,16,-1
 1250 300 l 2,17,18
 1230 206 1230 206 1230 143 c 0,19,20
 1230 67 1230 67 1256 0 c 1,21,-1
 1036 0 l 1,22,23
 1024 39 1024 39 1024 96 c 0,24,25
 1024 178 1024 178 1050 300 c 2,26,-1
 1139 719 l 1,27,-1
 533 719 l 1,28,-1
 380 0 l 1,29,-1
 180 0 l 1,9,-1
1074 1685 m 8,30,31
 1142 1685 1142 1685 1158 1757 c 0,32,33
 1161 1770 1161 1770 1161 1780 c 0,34,35
 1161 1828 1161 1828 1105 1828 c 0,36,37
 1038 1828 1038 1828 1022 1756 c 0,38,39
 1019 1743 1019 1743 1019 1732 c 0,40,41
 1019 1685 1019 1685 1074 1685 c 8,30,31
1055 1594 m 0,42,43
 921 1594 921 1594 921 1707 c 0,44,45
 921 1731 921 1731 927 1760 c 0,46,47
 961 1920 961 1920 1124 1920 c 0,48,49
 1262 1920 1262 1920 1262 1810 c 0,50,51
 1262 1788 1262 1788 1256 1761 c 0,52,53
 1221 1594 1221 1594 1055 1594 c 0,42,43
EndSplineSet
Validated: 1
EndChar

StartChar: Amacron
Encoding: 256 256 219
Width: 1386
Flags: W
HStem: 0 21G<180 384.256 1030 1256> 719 127<560 1139> 1407 123<821.923 1168.4> 1684 127<833 1378>
VStem: 180 200<0 200> 1024 206<1.65955 384.336> 1238 193<978.625 1341.85>
DStem2: 180 0 380 0 0.207912 0.978148<41.5823 776.681 906.519 1237.02> 986.233 0 1186.23 0 0.207912 0.978148<192.491 735.05 864.889 1244.64>
LayerCount: 2
Fore
SplineSet
1166 846 m 1,0,-1
 1229 1145 l 2,1,2
 1238 1186 1238 1186 1238 1220 c 0,3,4
 1238 1407 1238 1407 982 1407 c 0,5,6
 679 1407 679 1407 576 921 c 2,7,-1
 560 846 l 1,8,-1
 1166 846 l 1,0,-1
180 0 m 1,9,-1
 376 921 l 2,10,11
 506 1530 506 1530 1086 1530 c 0,12,13
 1431 1530 1431 1530 1431 1223 c 0,14,15
 1431 1154 1431 1154 1412 1064 c 2,16,-1
 1250 300 l 2,17,18
 1230 206 1230 206 1230 143 c 0,19,20
 1230 67 1230 67 1256 0 c 1,21,-1
 1036 0 l 1,22,23
 1024 39 1024 39 1024 96 c 0,24,25
 1024 178 1024 178 1050 300 c 2,26,-1
 1139 719 l 1,27,-1
 533 719 l 1,28,-1
 380 0 l 1,29,-1
 180 0 l 1,9,-1
833 1811 m 17,30,-1
 1405 1811 l 1,31,-1
 1378 1684 l 1,32,-1
 806 1684 l 9,33,-1
 833 1811 l 17,30,-1
EndSplineSet
Validated: 1
EndChar

StartChar: Abreve
Encoding: 258 258 220
Width: 1386
Flags: W
HStem: 0 21G<180 384.256 1030 1256> 719 127<560 1139> 1407 123<821.923 1168.4> 1640 93<960.562 1256.76>
VStem: 180 200<0 200> 826 134<1733.31 1828> 1024 206<1.65955 384.336> 1238 193<978.625 1341.85> 1289 118<1759.38 1832.25>
DStem2: 180 0 380 0 0.207912 0.978148<41.5823 776.681 906.519 1237.02> 986.233 0 1186.23 0 0.207912 0.978148<192.491 735.05 864.889 1244.64>
LayerCount: 2
Fore
SplineSet
969 1863 m 1,0,1
 960 1819 960 1819 960 1790 c 0,2,3
 960 1733 960 1733 996 1733 c 2,4,-1
 1196 1733 l 2,5,6
 1261 1733 1261 1733 1289 1863 c 1,7,-1
 1407 1828 l 1,8,9
 1367 1640 1367 1640 1237 1640 c 2,10,-1
 935 1640 l 2,11,12
 826 1640 826 1640 826 1754 c 0,13,14
 826 1786 826 1786 835 1828 c 1,15,-1
 969 1863 l 1,0,1
1166 846 m 1,16,-1
 1229 1145 l 2,17,18
 1238 1186 1238 1186 1238 1220 c 0,19,20
 1238 1407 1238 1407 982 1407 c 0,21,22
 679 1407 679 1407 576 921 c 2,23,-1
 560 846 l 1,24,-1
 1166 846 l 1,16,-1
180 0 m 1,25,-1
 376 921 l 2,26,27
 506 1530 506 1530 1086 1530 c 0,28,29
 1431 1530 1431 1530 1431 1223 c 0,30,31
 1431 1154 1431 1154 1412 1064 c 2,32,-1
 1250 300 l 2,33,34
 1230 206 1230 206 1230 143 c 0,35,36
 1230 67 1230 67 1256 0 c 1,37,-1
 1036 0 l 1,38,39
 1024 39 1024 39 1024 96 c 0,40,41
 1024 178 1024 178 1050 300 c 2,42,-1
 1139 719 l 1,43,-1
 533 719 l 1,44,-1
 380 0 l 1,45,-1
 180 0 l 1,25,-1
EndSplineSet
Validated: 1
EndChar

StartChar: Aogonek
Encoding: 260 260 221
Width: 1386
Flags: W
HStem: -430 21G<874.5 945.985> 0 21G<180 384.256> 719 127<560 1139> 1407 123<821.923 1168.4>
VStem: 180 200<0 200> 826 163<-321.681 -75.6714> 1024 206<44.1702 383.562> 1238 193<978.625 1341.85>
DStem2: 88.6007 -430 288.601 -430 0.207912 0.978148<481.189 1216.29 1346.13 1676.62> 894.834 -430 1094.83 -430 0.207912 0.978148<632.098 1174.66 1304.49 1684.25>
LayerCount: 2
Fore
SplineSet
180 0 m 1,0,-1
 376 921 l 2,1,2
 506 1530 506 1530 1086 1530 c 0,3,4
 1431 1530 1431 1530 1431 1223 c 0,5,6
 1431 1154 1431 1154 1412 1064 c 2,7,-1
 1250 300 l 2,8,9
 1230 206 1230 206 1230 143 c 0,10,11
 1230 67 1230 67 1256 0 c 1,12,-1
 1096 0 l 1,13,14
 1016 -46 1016 -46 994 -136 c 0,15,16
 989 -157 989 -157 989 -176 c 0,17,18
 989 -260 989 -260 1077 -296 c 1,19,-1
 923 -430 l 1,20,21
 826 -349 826 -349 826 -232 c 0,22,23
 826 -200 826 -200 834 -164 c 0,24,25
 863 -33 863 -33 1024 75 c 1,26,27
 1024 178 1024 178 1050 300 c 2,28,-1
 1139 719 l 1,29,-1
 533 719 l 1,30,-1
 380 0 l 1,31,-1
 180 0 l 1,0,-1
1166 846 m 1,32,-1
 1229 1145 l 2,33,34
 1238 1186 1238 1186 1238 1220 c 0,35,36
 1238 1407 1238 1407 982 1407 c 0,37,38
 679 1407 679 1407 576 921 c 2,39,-1
 560 846 l 1,40,-1
 1166 846 l 1,32,-1
EndSplineSet
Validated: 1
EndChar

StartChar: Aringacute
Encoding: 506 506 222
Width: 1386
Flags: W
HStem: 0 21G<180 384.256 1030 1256> 719 127<560 1139> 1407 123<821.923 1168.4> 1594 91<919.508 1047.23> 1828 92<931.18 1060.51>
VStem: 180 200<0 200> 821 98<1686.18 1818.55> 1024 206<1.65955 384.336> 1061 101<1695.11 1826.97> 1238 193<978.625 1341.85>
DStem2: 180 0 380 0 0.207912 0.978148<41.5823 776.681 906.519 1237.02> 986.233 0 1186.23 0 0.207912 0.978148<192.491 735.05 864.889 1244.64>
LayerCount: 2
Fore
SplineSet
974 1685 m 8,0,1
 1042 1685 1042 1685 1058 1757 c 0,2,3
 1061 1770 1061 1770 1061 1780 c 0,4,5
 1061 1828 1061 1828 1005 1828 c 0,6,7
 938 1828 938 1828 922 1756 c 0,8,9
 919 1743 919 1743 919 1732 c 0,10,11
 919 1685 919 1685 974 1685 c 8,0,1
955 1594 m 0,12,13
 821 1594 821 1594 821 1707 c 0,14,15
 821 1731 821 1731 827 1760 c 0,16,17
 861 1920 861 1920 1024 1920 c 0,18,19
 1162 1920 1162 1920 1162 1810 c 0,20,21
 1162 1788 1162 1788 1156 1761 c 0,22,23
 1121 1594 1121 1594 955 1594 c 0,12,13
1420 1920 m 1,24,-1
 1532 1782 l 1,25,-1
 1216 1560 l 1,26,-1
 1136 1657 l 1,27,-1
 1420 1920 l 1,24,-1
1166 846 m 1,28,-1
 1229 1145 l 2,29,30
 1238 1186 1238 1186 1238 1220 c 0,31,32
 1238 1407 1238 1407 982 1407 c 0,33,34
 679 1407 679 1407 576 921 c 2,35,-1
 560 846 l 1,36,-1
 1166 846 l 1,28,-1
180 0 m 1,37,-1
 376 921 l 2,38,39
 506 1530 506 1530 1086 1530 c 0,40,41
 1431 1530 1431 1530 1431 1223 c 0,42,43
 1431 1154 1431 1154 1412 1064 c 2,44,-1
 1250 300 l 2,45,46
 1230 206 1230 206 1230 143 c 0,47,48
 1230 67 1230 67 1256 0 c 1,49,-1
 1036 0 l 1,50,51
 1024 39 1024 39 1024 96 c 0,52,53
 1024 178 1024 178 1050 300 c 2,54,-1
 1139 719 l 1,55,-1
 533 719 l 1,56,-1
 380 0 l 1,57,-1
 180 0 l 1,37,-1
EndSplineSet
Validated: 1
EndChar

StartChar: AEacute
Encoding: 508 508 223
Width: 1897
Flags: W
HStem: 0 127<1213 1802.84> 698 130<556 1134 1362 1816> 1383 127<1398 1962> 1410 120<822.379 1171.2>
VStem: 180 200<0 200> 1239 194<1088.42 1344.08>
DStem2: 180 0 380 0 0.207912 0.978148<41.5823 755.1 888.081 1237.02> 986 0 1186.01 0 0.207912 0.978148<171.421 713.518 888.081 1247.83>
LayerCount: 2
Fore
SplineSet
1549 1920 m 1,0,-1
 1661 1782 l 1,1,-1
 1345 1560 l 1,2,-1
 1265 1657 l 1,3,-1
 1549 1920 l 1,0,-1
180 0 m 1,4,-1
 376 921 l 2,5,6
 506 1530 506 1530 1086 1530 c 0,7,8
 1173 1530 1173 1530 1244 1510 c 1,9,-1
 1989 1510 l 1,10,-1
 1962 1383 l 1,11,-1
 1398 1383 l 1,12,13
 1433 1311 1433 1311 1433 1220 c 0,14,15
 1433 1165 1433 1165 1420 1104 c 2,16,-1
 1362 828 l 1,17,-1
 1844 828 l 1,18,-1
 1816 698 l 1,19,-1
 1334 698 l 1,20,-1
 1213 127 l 1,21,-1
 1544 127 l 2,22,23
 1726 127 1726 127 1859 197 c 1,24,-1
 1828 50 l 1,25,26
 1696 0 1696 0 1517 0 c 2,27,-1
 986 0 l 1,28,-1
 1134 698 l 1,29,-1
 528 698 l 1,30,-1
 380 0 l 1,31,-1
 180 0 l 1,4,-1
1162 828 m 1,32,-1
 1230 1148 l 2,33,34
 1239 1189 1239 1189 1239 1223 c 0,35,36
 1239 1410 1239 1410 983 1410 c 0,37,38
 680 1410 680 1410 576 924 c 2,39,-1
 556 828 l 1,40,-1
 1162 828 l 1,32,-1
EndSplineSet
Validated: 1
EndChar

StartChar: Ccedilla
Encoding: 199 199 224
Width: 1385
Flags: W
HStem: -430 126<491 646.578> -20 124<684.372 886.005> 1406 124<823.118 1181.72>
VStem: 236 204<172.471 536.906> 578 104<-97.5312 -20.5618> 660 120<-280.586 -148.508> 1113 218<385.953 472> 1262 211<1144 1328.77>
DStem2: 68.8005 -430 279.018 -430 0.207912 0.978148<785.418 1669.97>
LayerCount: 2
Fore
SplineSet
580 -20 m 1,0,1
 236 -20 236 -20 236 286 c 0,2,3
 236 357 236 357 255 446 c 2,4,-1
 356 921 l 2,5,6
 485 1530 485 1530 1128 1530 c 0,7,8
 1473 1530 1473 1530 1473 1223 c 0,9,10
 1473 1186 1473 1186 1468 1144 c 1,11,-1
 1250 1090 l 1,12,13
 1262 1145 1262 1145 1262 1191 c 0,14,15
 1262 1406 1262 1406 1000 1406 c 0,16,17
 669 1406 669 1406 566 921 c 2,18,-1
 448 365 l 2,19,20
 440 327 440 327 440 293 c 0,21,22
 440 104 440 104 709 104 c 0,23,24
 997 104 997 104 1113 472 c 1,25,-1
 1331 497 l 1,26,27
 1188 26 1188 26 682 -16 c 1,28,29
 682 -68 682 -68 719 -93 c 0,30,31
 780 -134 780 -134 780 -210 c 0,32,33
 780 -233 780 -233 774 -260 c 0,34,35
 738 -430 738 -430 491 -430 c 1,36,-1
 481 -304 l 1,37,38
 649 -304 649 -304 659 -236 c 0,39,40
 660 -229 660 -229 660 -222 c 0,41,42
 660 -186 660 -186 621 -153 c 0,43,44
 578 -118 578 -118 578 -53 c 0,45,46
 578 -38 578 -38 580 -20 c 1,0,1
EndSplineSet
Validated: 1
EndChar

StartChar: Cacute
Encoding: 262 262 225
Width: 1385
Flags: W
HStem: -20 124<515.432 883.375> 1406 124<823.118 1181.72>
VStem: 236 204<172.471 536.906> 1262 211<1144 1328.77>
DStem2: 155.949 -20 366.166 -20 0.207912 0.978148<366.228 1250.81>
LayerCount: 2
Fore
SplineSet
1271 1920 m 1,0,-1
 1383 1782 l 1,1,-1
 1067 1560 l 1,2,-1
 987 1657 l 1,3,-1
 1271 1920 l 1,0,-1
581 -20 m 0,4,5
 236 -20 236 -20 236 286 c 0,6,7
 236 357 236 357 255 446 c 2,8,-1
 356 921 l 2,9,10
 485 1530 485 1530 1128 1530 c 0,11,12
 1473 1530 1473 1530 1473 1223 c 0,13,14
 1473 1186 1473 1186 1468 1144 c 1,15,-1
 1250 1090 l 1,16,17
 1262 1145 1262 1145 1262 1191 c 0,18,19
 1262 1406 1262 1406 1000 1406 c 0,20,21
 669 1406 669 1406 566 921 c 2,22,-1
 448 365 l 2,23,24
 440 326 440 326 440 293 c 0,25,26
 440 104 440 104 709 104 c 0,27,28
 997 104 997 104 1113 472 c 1,29,-1
 1331 497 l 1,30,31
 1174 -20 1174 -20 581 -20 c 0,4,5
EndSplineSet
Validated: 1
EndChar

StartChar: Ccircumflex
Encoding: 264 264 226
Width: 1385
Flags: W
HStem: -20 124<515.432 883.375> 1406 124<823.118 1181.72>
VStem: 236 204<172.471 536.906> 1262 211<1144 1328.77>
DStem2: 155.949 -20 366.166 -20 0.207912 0.978148<366.228 1250.81>
LayerCount: 2
Fore
SplineSet
581 -20 m 0,0,1
 236 -20 236 -20 236 286 c 0,2,3
 236 357 236 357 255 446 c 2,4,-1
 356 921 l 2,5,6
 485 1530 485 1530 1128 1530 c 0,7,8
 1473 1530 1473 1530 1473 1223 c 0,9,10
 1473 1186 1473 1186 1468 1144 c 1,11,-1
 1250 1090 l 1,12,13
 1262 1145 1262 1145 1262 1191 c 0,14,15
 1262 1406 1262 1406 1000 1406 c 0,16,17
 669 1406 669 1406 566 921 c 2,18,-1
 448 365 l 2,19,20
 440 326 440 326 440 293 c 0,21,22
 440 104 440 104 709 104 c 0,23,24
 997 104 997 104 1113 472 c 1,25,-1
 1331 497 l 1,26,27
 1174 -20 1174 -20 581 -20 c 0,0,1
894 1560 m 1,28,-1
 796 1682 l 1,29,-1
 1132 1920 l 1,30,-1
 1368 1682 l 1,31,-1
 1218 1560 l 1,32,-1
 1095 1746 l 1,33,-1
 894 1560 l 1,28,-1
EndSplineSet
Validated: 1
EndChar

StartChar: Cdotaccent
Encoding: 266 266 227
Width: 1385
Flags: W
HStem: -20 124<515.432 883.375> 1406 124<823.118 1181.72> 1670 230<1027.2 1200.58>
VStem: 236 204<172.471 536.906> 996 236<1701.41 1869.92> 1262 211<1144 1328.77>
DStem2: 155.949 -20 366.166 -20 0.207912 0.978148<366.228 1250.81>
LayerCount: 2
Fore
SplineSet
1138 1900 m 0,0,1
 1232 1900 1232 1900 1232 1823 c 0,2,3
 1232 1670 1232 1670 1089 1670 c 0,4,5
 996 1670 996 1670 996 1748 c 24,6,7
 996 1900 996 1900 1138 1900 c 0,0,1
581 -20 m 0,8,9
 236 -20 236 -20 236 286 c 0,10,11
 236 357 236 357 255 446 c 2,12,-1
 356 921 l 2,13,14
 485 1530 485 1530 1128 1530 c 0,15,16
 1473 1530 1473 1530 1473 1223 c 0,17,18
 1473 1186 1473 1186 1468 1144 c 1,19,-1
 1250 1090 l 1,20,21
 1262 1145 1262 1145 1262 1191 c 0,22,23
 1262 1406 1262 1406 1000 1406 c 0,24,25
 669 1406 669 1406 566 921 c 2,26,-1
 448 365 l 2,27,28
 440 326 440 326 440 293 c 0,29,30
 440 104 440 104 709 104 c 0,31,32
 997 104 997 104 1113 472 c 1,33,-1
 1331 497 l 1,34,35
 1174 -20 1174 -20 581 -20 c 0,8,9
EndSplineSet
Validated: 1
EndChar

